<?xml version="1.0" encoding="utf-8" standalone="no"?>
<!DOCTYPE svg PUBLIC "-//W3C//DTD SVG 1.1//EN"
  "http://www.w3.org/Graphics/SVG/1.1/DTD/svg11.dtd">
<svg xmlns:xlink="http://www.w3.org/1999/xlink" width="460.8pt" height="345.6pt" viewBox="0 0 460.8 345.6" xmlns="http://www.w3.org/2000/svg" version="1.1">
 <metadata>
  <rdf:RDF xmlns:dc="http://purl.org/dc/elements/1.1/" xmlns:cc="http://creativecommons.org/ns#" xmlns:rdf="http://www.w3.org/1999/02/22-rdf-syntax-ns#">
   <cc:Work>
    <dc:type rdf:resource="http://purl.org/dc/dcmitype/StillImage"/>
    <dc:date>2023-10-19T16:13:26.641591</dc:date>
    <dc:format>image/svg+xml</dc:format>
    <dc:creator>
     <cc:Agent>
      <dc:title>Matplotlib v3.5.2, https://matplotlib.org/</dc:title>
     </cc:Agent>
    </dc:creator>
   </cc:Work>
  </rdf:RDF>
 </metadata>
 <defs>
  <style type="text/css">*{stroke-linejoin: round; stroke-linecap: butt}</style>
 </defs>
 <g id="figure_1">
  <g id="patch_1">
   <path d="M 0 345.6 
L 460.8 345.6 
L 460.8 0 
L 0 0 
L 0 345.6 
z
" style="fill: none"/>
  </g>
  <g id="axes_1">
   <g id="patch_2">
    <path d="M 57.6 307.584 
L 414.72 307.584 
L 414.72 41.472 
L 57.6 41.472 
L 57.6 307.584 
z
" style="fill: none"/>
   </g>
   <g id="matplotlib.axis_1">
    <g id="xtick_1">
     <g id="line2d_1">
      <defs>
       <path id="ma0b58c89ad" d="M 0 0 
L 0 -3.5 
" style="stroke: #000000; stroke-width: 0.8"/>
      </defs>
      <g>
       <use xlink:href="#ma0b58c89ad" x="77.401523" y="307.584" style="stroke: #000000; stroke-width: 0.8"/>
      </g>
     </g>
     <g id="text_1">
      <!-- 200 -->
      <g transform="translate(67.857773 320.182437)scale(0.1 -0.1)">
       <defs>
        <path id="DejaVuSans-32" d="M 1228 531 
L 3431 531 
L 3431 0 
L 469 0 
L 469 531 
Q 828 903 1448 1529 
Q 2069 2156 2228 2338 
Q 2531 2678 2651 2914 
Q 2772 3150 2772 3378 
Q 2772 3750 2511 3984 
Q 2250 4219 1831 4219 
Q 1534 4219 1204 4116 
Q 875 4013 500 3803 
L 500 4441 
Q 881 4594 1212 4672 
Q 1544 4750 1819 4750 
Q 2544 4750 2975 4387 
Q 3406 4025 3406 3419 
Q 3406 3131 3298 2873 
Q 3191 2616 2906 2266 
Q 2828 2175 2409 1742 
Q 1991 1309 1228 531 
z
" transform="scale(0.015625)"/>
        <path id="DejaVuSans-30" d="M 2034 4250 
Q 1547 4250 1301 3770 
Q 1056 3291 1056 2328 
Q 1056 1369 1301 889 
Q 1547 409 2034 409 
Q 2525 409 2770 889 
Q 3016 1369 3016 2328 
Q 3016 3291 2770 3770 
Q 2525 4250 2034 4250 
z
M 2034 4750 
Q 2819 4750 3233 4129 
Q 3647 3509 3647 2328 
Q 3647 1150 3233 529 
Q 2819 -91 2034 -91 
Q 1250 -91 836 529 
Q 422 1150 422 2328 
Q 422 3509 836 4129 
Q 1250 4750 2034 4750 
z
" transform="scale(0.015625)"/>
       </defs>
       <use xlink:href="#DejaVuSans-32"/>
       <use xlink:href="#DejaVuSans-30" x="63.623047"/>
       <use xlink:href="#DejaVuSans-30" x="127.246094"/>
      </g>
     </g>
    </g>
    <g id="xtick_2">
     <g id="line2d_2">
      <g>
       <use xlink:href="#ma0b58c89ad" x="148.754134" y="307.584" style="stroke: #000000; stroke-width: 0.8"/>
      </g>
     </g>
     <g id="text_2">
      <!-- 400 -->
      <g transform="translate(139.210384 320.182437)scale(0.1 -0.1)">
       <defs>
        <path id="DejaVuSans-34" d="M 2419 4116 
L 825 1625 
L 2419 1625 
L 2419 4116 
z
M 2253 4666 
L 3047 4666 
L 3047 1625 
L 3713 1625 
L 3713 1100 
L 3047 1100 
L 3047 0 
L 2419 0 
L 2419 1100 
L 313 1100 
L 313 1709 
L 2253 4666 
z
" transform="scale(0.015625)"/>
       </defs>
       <use xlink:href="#DejaVuSans-34"/>
       <use xlink:href="#DejaVuSans-30" x="63.623047"/>
       <use xlink:href="#DejaVuSans-30" x="127.246094"/>
      </g>
     </g>
    </g>
    <g id="xtick_3">
     <g id="line2d_3">
      <g>
       <use xlink:href="#ma0b58c89ad" x="220.106746" y="307.584" style="stroke: #000000; stroke-width: 0.8"/>
      </g>
     </g>
     <g id="text_3">
      <!-- 600 -->
      <g transform="translate(210.562996 320.182437)scale(0.1 -0.1)">
       <defs>
        <path id="DejaVuSans-36" d="M 2113 2584 
Q 1688 2584 1439 2293 
Q 1191 2003 1191 1497 
Q 1191 994 1439 701 
Q 1688 409 2113 409 
Q 2538 409 2786 701 
Q 3034 994 3034 1497 
Q 3034 2003 2786 2293 
Q 2538 2584 2113 2584 
z
M 3366 4563 
L 3366 3988 
Q 3128 4100 2886 4159 
Q 2644 4219 2406 4219 
Q 1781 4219 1451 3797 
Q 1122 3375 1075 2522 
Q 1259 2794 1537 2939 
Q 1816 3084 2150 3084 
Q 2853 3084 3261 2657 
Q 3669 2231 3669 1497 
Q 3669 778 3244 343 
Q 2819 -91 2113 -91 
Q 1303 -91 875 529 
Q 447 1150 447 2328 
Q 447 3434 972 4092 
Q 1497 4750 2381 4750 
Q 2619 4750 2861 4703 
Q 3103 4656 3366 4563 
z
" transform="scale(0.015625)"/>
       </defs>
       <use xlink:href="#DejaVuSans-36"/>
       <use xlink:href="#DejaVuSans-30" x="63.623047"/>
       <use xlink:href="#DejaVuSans-30" x="127.246094"/>
      </g>
     </g>
    </g>
    <g id="xtick_4">
     <g id="line2d_4">
      <g>
       <use xlink:href="#ma0b58c89ad" x="291.459357" y="307.584" style="stroke: #000000; stroke-width: 0.8"/>
      </g>
     </g>
     <g id="text_4">
      <!-- 800 -->
      <g transform="translate(281.915607 320.182437)scale(0.1 -0.1)">
       <defs>
        <path id="DejaVuSans-38" d="M 2034 2216 
Q 1584 2216 1326 1975 
Q 1069 1734 1069 1313 
Q 1069 891 1326 650 
Q 1584 409 2034 409 
Q 2484 409 2743 651 
Q 3003 894 3003 1313 
Q 3003 1734 2745 1975 
Q 2488 2216 2034 2216 
z
M 1403 2484 
Q 997 2584 770 2862 
Q 544 3141 544 3541 
Q 544 4100 942 4425 
Q 1341 4750 2034 4750 
Q 2731 4750 3128 4425 
Q 3525 4100 3525 3541 
Q 3525 3141 3298 2862 
Q 3072 2584 2669 2484 
Q 3125 2378 3379 2068 
Q 3634 1759 3634 1313 
Q 3634 634 3220 271 
Q 2806 -91 2034 -91 
Q 1263 -91 848 271 
Q 434 634 434 1313 
Q 434 1759 690 2068 
Q 947 2378 1403 2484 
z
M 1172 3481 
Q 1172 3119 1398 2916 
Q 1625 2713 2034 2713 
Q 2441 2713 2670 2916 
Q 2900 3119 2900 3481 
Q 2900 3844 2670 4047 
Q 2441 4250 2034 4250 
Q 1625 4250 1398 4047 
Q 1172 3844 1172 3481 
z
" transform="scale(0.015625)"/>
       </defs>
       <use xlink:href="#DejaVuSans-38"/>
       <use xlink:href="#DejaVuSans-30" x="63.623047"/>
       <use xlink:href="#DejaVuSans-30" x="127.246094"/>
      </g>
     </g>
    </g>
    <g id="xtick_5">
     <g id="line2d_5">
      <g>
       <use xlink:href="#ma0b58c89ad" x="362.811969" y="307.584" style="stroke: #000000; stroke-width: 0.8"/>
      </g>
     </g>
     <g id="text_5">
      <!-- 1000 -->
      <g transform="translate(350.086969 320.182437)scale(0.1 -0.1)">
       <defs>
        <path id="DejaVuSans-31" d="M 794 531 
L 1825 531 
L 1825 4091 
L 703 3866 
L 703 4441 
L 1819 4666 
L 2450 4666 
L 2450 531 
L 3481 531 
L 3481 0 
L 794 0 
L 794 531 
z
" transform="scale(0.015625)"/>
       </defs>
       <use xlink:href="#DejaVuSans-31"/>
       <use xlink:href="#DejaVuSans-30" x="63.623047"/>
       <use xlink:href="#DejaVuSans-30" x="127.246094"/>
       <use xlink:href="#DejaVuSans-30" x="190.869141"/>
      </g>
     </g>
    </g>
    <g id="xtick_6">
     <g id="line2d_6">
      <defs>
       <path id="mc9d6af4eb7" d="M 0 0 
L 0 -2 
" style="stroke: #000000; stroke-width: 0.6"/>
      </defs>
      <g>
       <use xlink:href="#mc9d6af4eb7" x="59.56337" y="307.584" style="stroke: #000000; stroke-width: 0.6"/>
      </g>
     </g>
    </g>
    <g id="xtick_7">
     <g id="line2d_7">
      <g>
       <use xlink:href="#mc9d6af4eb7" x="95.239676" y="307.584" style="stroke: #000000; stroke-width: 0.6"/>
      </g>
     </g>
    </g>
    <g id="xtick_8">
     <g id="line2d_8">
      <g>
       <use xlink:href="#mc9d6af4eb7" x="113.077829" y="307.584" style="stroke: #000000; stroke-width: 0.6"/>
      </g>
     </g>
    </g>
    <g id="xtick_9">
     <g id="line2d_9">
      <g>
       <use xlink:href="#mc9d6af4eb7" x="130.915981" y="307.584" style="stroke: #000000; stroke-width: 0.6"/>
      </g>
     </g>
    </g>
    <g id="xtick_10">
     <g id="line2d_10">
      <g>
       <use xlink:href="#mc9d6af4eb7" x="166.592287" y="307.584" style="stroke: #000000; stroke-width: 0.6"/>
      </g>
     </g>
    </g>
    <g id="xtick_11">
     <g id="line2d_11">
      <g>
       <use xlink:href="#mc9d6af4eb7" x="184.43044" y="307.584" style="stroke: #000000; stroke-width: 0.6"/>
      </g>
     </g>
    </g>
    <g id="xtick_12">
     <g id="line2d_12">
      <g>
       <use xlink:href="#mc9d6af4eb7" x="202.268593" y="307.584" style="stroke: #000000; stroke-width: 0.6"/>
      </g>
     </g>
    </g>
    <g id="xtick_13">
     <g id="line2d_13">
      <g>
       <use xlink:href="#mc9d6af4eb7" x="237.944899" y="307.584" style="stroke: #000000; stroke-width: 0.6"/>
      </g>
     </g>
    </g>
    <g id="xtick_14">
     <g id="line2d_14">
      <g>
       <use xlink:href="#mc9d6af4eb7" x="255.783052" y="307.584" style="stroke: #000000; stroke-width: 0.6"/>
      </g>
     </g>
    </g>
    <g id="xtick_15">
     <g id="line2d_15">
      <g>
       <use xlink:href="#mc9d6af4eb7" x="273.621204" y="307.584" style="stroke: #000000; stroke-width: 0.6"/>
      </g>
     </g>
    </g>
    <g id="xtick_16">
     <g id="line2d_16">
      <g>
       <use xlink:href="#mc9d6af4eb7" x="309.29751" y="307.584" style="stroke: #000000; stroke-width: 0.6"/>
      </g>
     </g>
    </g>
    <g id="xtick_17">
     <g id="line2d_17">
      <g>
       <use xlink:href="#mc9d6af4eb7" x="327.135663" y="307.584" style="stroke: #000000; stroke-width: 0.6"/>
      </g>
     </g>
    </g>
    <g id="xtick_18">
     <g id="line2d_18">
      <g>
       <use xlink:href="#mc9d6af4eb7" x="344.973816" y="307.584" style="stroke: #000000; stroke-width: 0.6"/>
      </g>
     </g>
    </g>
    <g id="xtick_19">
     <g id="line2d_19">
      <g>
       <use xlink:href="#mc9d6af4eb7" x="380.650122" y="307.584" style="stroke: #000000; stroke-width: 0.6"/>
      </g>
     </g>
    </g>
    <g id="xtick_20">
     <g id="line2d_20">
      <g>
       <use xlink:href="#mc9d6af4eb7" x="398.488275" y="307.584" style="stroke: #000000; stroke-width: 0.6"/>
      </g>
     </g>
    </g>
    <g id="text_6">
     <!-- nm -->
     <g transform="translate(228.120937 333.860562)scale(0.1 -0.1)">
      <defs>
       <path id="DejaVuSans-6e" d="M 3513 2113 
L 3513 0 
L 2938 0 
L 2938 2094 
Q 2938 2591 2744 2837 
Q 2550 3084 2163 3084 
Q 1697 3084 1428 2787 
Q 1159 2491 1159 1978 
L 1159 0 
L 581 0 
L 581 3500 
L 1159 3500 
L 1159 2956 
Q 1366 3272 1645 3428 
Q 1925 3584 2291 3584 
Q 2894 3584 3203 3211 
Q 3513 2838 3513 2113 
z
" transform="scale(0.015625)"/>
       <path id="DejaVuSans-6d" d="M 3328 2828 
Q 3544 3216 3844 3400 
Q 4144 3584 4550 3584 
Q 5097 3584 5394 3201 
Q 5691 2819 5691 2113 
L 5691 0 
L 5113 0 
L 5113 2094 
Q 5113 2597 4934 2840 
Q 4756 3084 4391 3084 
Q 3944 3084 3684 2787 
Q 3425 2491 3425 1978 
L 3425 0 
L 2847 0 
L 2847 2094 
Q 2847 2600 2669 2842 
Q 2491 3084 2119 3084 
Q 1678 3084 1418 2786 
Q 1159 2488 1159 1978 
L 1159 0 
L 581 0 
L 581 3500 
L 1159 3500 
L 1159 2956 
Q 1356 3278 1631 3431 
Q 1906 3584 2284 3584 
Q 2666 3584 2933 3390 
Q 3200 3197 3328 2828 
z
" transform="scale(0.015625)"/>
      </defs>
      <use xlink:href="#DejaVuSans-6e"/>
      <use xlink:href="#DejaVuSans-6d" x="63.378906"/>
     </g>
    </g>
   </g>
   <g id="matplotlib.axis_2">
    <g id="ytick_1">
     <g id="line2d_21">
      <defs>
       <path id="m00a8649b8f" d="M 0 0 
L 3.5 0 
" style="stroke: #000000; stroke-width: 0.8"/>
      </defs>
      <g>
       <use xlink:href="#m00a8649b8f" x="57.6" y="294.989033" style="stroke: #000000; stroke-width: 0.8"/>
      </g>
     </g>
     <g id="text_7">
      <!-- 0 -->
      <g transform="translate(46.2375 298.788252)scale(0.1 -0.1)">
       <use xlink:href="#DejaVuSans-30"/>
      </g>
     </g>
    </g>
    <g id="ytick_2">
     <g id="line2d_22">
      <g>
       <use xlink:href="#m00a8649b8f" x="57.6" y="241.371697" style="stroke: #000000; stroke-width: 0.8"/>
      </g>
     </g>
     <g id="text_8">
      <!-- 1 -->
      <g transform="translate(46.2375 245.170916)scale(0.1 -0.1)">
       <use xlink:href="#DejaVuSans-31"/>
      </g>
     </g>
    </g>
    <g id="ytick_3">
     <g id="line2d_23">
      <g>
       <use xlink:href="#m00a8649b8f" x="57.6" y="187.754361" style="stroke: #000000; stroke-width: 0.8"/>
      </g>
     </g>
     <g id="text_9">
      <!-- 2 -->
      <g transform="translate(46.2375 191.55358)scale(0.1 -0.1)">
       <use xlink:href="#DejaVuSans-32"/>
      </g>
     </g>
    </g>
    <g id="ytick_4">
     <g id="line2d_24">
      <g>
       <use xlink:href="#m00a8649b8f" x="57.6" y="134.137025" style="stroke: #000000; stroke-width: 0.8"/>
      </g>
     </g>
     <g id="text_10">
      <!-- 3 -->
      <g transform="translate(46.2375 137.936243)scale(0.1 -0.1)">
       <defs>
        <path id="DejaVuSans-33" d="M 2597 2516 
Q 3050 2419 3304 2112 
Q 3559 1806 3559 1356 
Q 3559 666 3084 287 
Q 2609 -91 1734 -91 
Q 1441 -91 1130 -33 
Q 819 25 488 141 
L 488 750 
Q 750 597 1062 519 
Q 1375 441 1716 441 
Q 2309 441 2620 675 
Q 2931 909 2931 1356 
Q 2931 1769 2642 2001 
Q 2353 2234 1838 2234 
L 1294 2234 
L 1294 2753 
L 1863 2753 
Q 2328 2753 2575 2939 
Q 2822 3125 2822 3475 
Q 2822 3834 2567 4026 
Q 2313 4219 1838 4219 
Q 1578 4219 1281 4162 
Q 984 4106 628 3988 
L 628 4550 
Q 988 4650 1302 4700 
Q 1616 4750 1894 4750 
Q 2613 4750 3031 4423 
Q 3450 4097 3450 3541 
Q 3450 3153 3228 2886 
Q 3006 2619 2597 2516 
z
" transform="scale(0.015625)"/>
       </defs>
       <use xlink:href="#DejaVuSans-33"/>
      </g>
     </g>
    </g>
    <g id="ytick_5">
     <g id="line2d_25">
      <g>
       <use xlink:href="#m00a8649b8f" x="57.6" y="80.519688" style="stroke: #000000; stroke-width: 0.8"/>
      </g>
     </g>
     <g id="text_11">
      <!-- 4 -->
      <g transform="translate(46.2375 84.318907)scale(0.1 -0.1)">
       <use xlink:href="#DejaVuSans-34"/>
      </g>
     </g>
    </g>
    <g id="ytick_6">
     <g id="line2d_26">
      <defs>
       <path id="m5bd4dfc1ac" d="M 0 0 
L 2 0 
" style="stroke: #000000; stroke-width: 0.6"/>
      </defs>
      <g>
       <use xlink:href="#m5bd4dfc1ac" x="57.6" y="305.7125" style="stroke: #000000; stroke-width: 0.6"/>
      </g>
     </g>
    </g>
    <g id="ytick_7">
     <g id="line2d_27">
      <g>
       <use xlink:href="#m5bd4dfc1ac" x="57.6" y="284.265566" style="stroke: #000000; stroke-width: 0.6"/>
      </g>
     </g>
    </g>
    <g id="ytick_8">
     <g id="line2d_28">
      <g>
       <use xlink:href="#m5bd4dfc1ac" x="57.6" y="273.542099" style="stroke: #000000; stroke-width: 0.6"/>
      </g>
     </g>
    </g>
    <g id="ytick_9">
     <g id="line2d_29">
      <g>
       <use xlink:href="#m5bd4dfc1ac" x="57.6" y="262.818631" style="stroke: #000000; stroke-width: 0.6"/>
      </g>
     </g>
    </g>
    <g id="ytick_10">
     <g id="line2d_30">
      <g>
       <use xlink:href="#m5bd4dfc1ac" x="57.6" y="252.095164" style="stroke: #000000; stroke-width: 0.6"/>
      </g>
     </g>
    </g>
    <g id="ytick_11">
     <g id="line2d_31">
      <g>
       <use xlink:href="#m5bd4dfc1ac" x="57.6" y="230.64823" style="stroke: #000000; stroke-width: 0.6"/>
      </g>
     </g>
    </g>
    <g id="ytick_12">
     <g id="line2d_32">
      <g>
       <use xlink:href="#m5bd4dfc1ac" x="57.6" y="219.924762" style="stroke: #000000; stroke-width: 0.6"/>
      </g>
     </g>
    </g>
    <g id="ytick_13">
     <g id="line2d_33">
      <g>
       <use xlink:href="#m5bd4dfc1ac" x="57.6" y="209.201295" style="stroke: #000000; stroke-width: 0.6"/>
      </g>
     </g>
    </g>
    <g id="ytick_14">
     <g id="line2d_34">
      <g>
       <use xlink:href="#m5bd4dfc1ac" x="57.6" y="198.477828" style="stroke: #000000; stroke-width: 0.6"/>
      </g>
     </g>
    </g>
    <g id="ytick_15">
     <g id="line2d_35">
      <g>
       <use xlink:href="#m5bd4dfc1ac" x="57.6" y="177.030894" style="stroke: #000000; stroke-width: 0.6"/>
      </g>
     </g>
    </g>
    <g id="ytick_16">
     <g id="line2d_36">
      <g>
       <use xlink:href="#m5bd4dfc1ac" x="57.6" y="166.307426" style="stroke: #000000; stroke-width: 0.6"/>
      </g>
     </g>
    </g>
    <g id="ytick_17">
     <g id="line2d_37">
      <g>
       <use xlink:href="#m5bd4dfc1ac" x="57.6" y="155.583959" style="stroke: #000000; stroke-width: 0.6"/>
      </g>
     </g>
    </g>
    <g id="ytick_18">
     <g id="line2d_38">
      <g>
       <use xlink:href="#m5bd4dfc1ac" x="57.6" y="144.860492" style="stroke: #000000; stroke-width: 0.6"/>
      </g>
     </g>
    </g>
    <g id="ytick_19">
     <g id="line2d_39">
      <g>
       <use xlink:href="#m5bd4dfc1ac" x="57.6" y="123.413557" style="stroke: #000000; stroke-width: 0.6"/>
      </g>
     </g>
    </g>
    <g id="ytick_20">
     <g id="line2d_40">
      <g>
       <use xlink:href="#m5bd4dfc1ac" x="57.6" y="112.69009" style="stroke: #000000; stroke-width: 0.6"/>
      </g>
     </g>
    </g>
    <g id="ytick_21">
     <g id="line2d_41">
      <g>
       <use xlink:href="#m5bd4dfc1ac" x="57.6" y="101.966623" style="stroke: #000000; stroke-width: 0.6"/>
      </g>
     </g>
    </g>
    <g id="ytick_22">
     <g id="line2d_42">
      <g>
       <use xlink:href="#m5bd4dfc1ac" x="57.6" y="91.243156" style="stroke: #000000; stroke-width: 0.6"/>
      </g>
     </g>
    </g>
    <g id="ytick_23">
     <g id="line2d_43">
      <g>
       <use xlink:href="#m5bd4dfc1ac" x="57.6" y="69.796221" style="stroke: #000000; stroke-width: 0.6"/>
      </g>
     </g>
    </g>
    <g id="ytick_24">
     <g id="line2d_44">
      <g>
       <use xlink:href="#m5bd4dfc1ac" x="57.6" y="59.072754" style="stroke: #000000; stroke-width: 0.6"/>
      </g>
     </g>
    </g>
    <g id="ytick_25">
     <g id="line2d_45">
      <g>
       <use xlink:href="#m5bd4dfc1ac" x="57.6" y="48.349287" style="stroke: #000000; stroke-width: 0.6"/>
      </g>
     </g>
    </g>
    <g id="text_12">
     <!-- Abs -->
     <g transform="translate(40.157812 183.727219)rotate(-90)scale(0.1 -0.1)">
      <defs>
       <path id="DejaVuSans-41" d="M 2188 4044 
L 1331 1722 
L 3047 1722 
L 2188 4044 
z
M 1831 4666 
L 2547 4666 
L 4325 0 
L 3669 0 
L 3244 1197 
L 1141 1197 
L 716 0 
L 50 0 
L 1831 4666 
z
" transform="scale(0.015625)"/>
       <path id="DejaVuSans-62" d="M 3116 1747 
Q 3116 2381 2855 2742 
Q 2594 3103 2138 3103 
Q 1681 3103 1420 2742 
Q 1159 2381 1159 1747 
Q 1159 1113 1420 752 
Q 1681 391 2138 391 
Q 2594 391 2855 752 
Q 3116 1113 3116 1747 
z
M 1159 2969 
Q 1341 3281 1617 3432 
Q 1894 3584 2278 3584 
Q 2916 3584 3314 3078 
Q 3713 2572 3713 1747 
Q 3713 922 3314 415 
Q 2916 -91 2278 -91 
Q 1894 -91 1617 61 
Q 1341 213 1159 525 
L 1159 0 
L 581 0 
L 581 4863 
L 1159 4863 
L 1159 2969 
z
" transform="scale(0.015625)"/>
       <path id="DejaVuSans-73" d="M 2834 3397 
L 2834 2853 
Q 2591 2978 2328 3040 
Q 2066 3103 1784 3103 
Q 1356 3103 1142 2972 
Q 928 2841 928 2578 
Q 928 2378 1081 2264 
Q 1234 2150 1697 2047 
L 1894 2003 
Q 2506 1872 2764 1633 
Q 3022 1394 3022 966 
Q 3022 478 2636 193 
Q 2250 -91 1575 -91 
Q 1294 -91 989 -36 
Q 684 19 347 128 
L 347 722 
Q 666 556 975 473 
Q 1284 391 1588 391 
Q 1994 391 2212 530 
Q 2431 669 2431 922 
Q 2431 1156 2273 1281 
Q 2116 1406 1581 1522 
L 1381 1569 
Q 847 1681 609 1914 
Q 372 2147 372 2553 
Q 372 3047 722 3315 
Q 1072 3584 1716 3584 
Q 2034 3584 2315 3537 
Q 2597 3491 2834 3397 
z
" transform="scale(0.015625)"/>
      </defs>
      <use xlink:href="#DejaVuSans-41"/>
      <use xlink:href="#DejaVuSans-62" x="68.408203"/>
      <use xlink:href="#DejaVuSans-73" x="131.884766"/>
     </g>
    </g>
   </g>
   <g id="line2d_46">
    <path d="M 184.429787 292.768812 
L 182.285975 292.833864 
L 180.506482 292.895998 
L 176.587989 292.833956 
L 169.805953 292.385787 
L 148.392276 291.783264 
L 147.148613 291.529687 
L 145.904276 291.062177 
L 144.119524 289.826009 
L 142.873543 288.351731 
L 141.613016 285.886535 
L 140.726084 283.317148 
L 140.185463 280.975319 
L 139.297997 275.708606 
L 138.229842 264.713419 
L 137.869061 259.601571 
L 137.161218 246.45386 
L 136.800275 236.53541 
L 136.272642 217.911914 
L 135.731009 190.410687 
L 135.369858 168.24616 
L 134.841932 133.853835 
L 134.48064 112.455076 
L 134.133207 94.314184 
L 133.952518 99.866614 
L 133.771817 93.417609 
L 133.591106 98.956656 
L 133.410383 98.587741 
L 133.22965 100.40551 
L 133.062798 87.99346 
L 132.882032 100.05012 
L 132.701256 100.939855 
L 132.520468 104.173421 
L 132.158849 89.041683 
L 131.811101 105.455542 
L 131.630248 98.240404 
L 131.449384 96.089781 
L 131.268509 104.376089 
L 131.087613 102.046486 
L 130.92063 84.944102 
L 130.739701 102.664932 
L 130.377843 110.065289 
L 130.029855 91.692506 
L 129.848882 101.795305 
L 129.667877 97.959758 
L 129.486882 85.66433 
L 129.305866 100.523974 
L 129.138764 77.521656 
L 128.957726 103.530597 
L 128.776666 93.130648 
L 128.414535 102.913965 
L 128.233443 88.361084 
L 128.066286 107.885213 
L 127.704036 91.480954 
L 127.5229 102.695331 
L 127.341753 104.406948 
L 127.17452 90.84525 
L 126.993352 90.110207 
L 126.81215 94.077973 
L 126.449758 107.682558 
L 126.101237 85.118595 
L 125.919992 89.974588 
L 125.738725 103.004254 
L 125.390117 85.792879 
L 125.208829 77.031874 
L 125.027518 82.865705 
L 124.846208 97.970253 
L 124.678823 97.912446 
L 124.497491 85.470419 
L 124.316126 85.357184 
L 124.134761 94.265632 
L 123.953386 92.078999 
L 123.785946 99.202518 
L 123.604549 86.205207 
L 123.423119 101.518648 
L 123.241711 96.844166 
L 122.892787 76.536109 
L 122.711324 88.753393 
L 122.348366 75.753333 
L 122.180828 85.000528 
L 121.999322 87.867799 
L 121.817805 81.112313 
L 121.636277 82.808487 
L 121.468707 75.087217 
L 121.287146 54.985164 
L 121.105585 95.063852 
L 120.924014 97.376031 
L 120.74242 95.014316 
L 120.393181 85.44622 
L 120.211555 93.998051 
L 120.029918 80.871436 
L 119.86226 95.876925 
L 119.680591 99.861501 
L 119.498932 84.536926 
L 119.317252 89.256827 
L 119.14954 75.425235 
L 118.967838 79.036102 
L 118.786125 79.10301 
L 118.60439 77.807032 
L 118.422666 66.444406 
L 118.2549 87.143481 
L 118.073143 78.13692 
L 117.891375 74.843847 
L 117.709586 83.927313 
L 117.541787 77.203989 
L 117.359976 84.046888 
L 117.178165 81.155712 
L 116.996343 74.645884 
L 116.828501 72.803724 
L 116.646646 66.705699 
L 116.464791 83.54339 
L 116.282926 65.709823 
L 116.11504 78.502882 
L 115.933142 78.669117 
L 115.751243 79.401399 
L 115.569323 84.262263 
L 115.401394 78.924017 
L 115.219463 67.773775 
L 115.03751 82.12799 
L 114.855558 79.879625 
L 114.687585 72.863729 
L 114.50561 72.913354 
L 114.323625 81.640125 
L 114.141629 64.88706 
L 113.973612 70.932392 
L 113.791594 54.847181 
L 113.609554 78.201782 
L 113.441516 74.356724 
L 113.259465 53.568 
L 113.077404 84.960145 
L 112.895332 80.886494 
L 112.727261 82.521679 
L 112.36305 71.093232 
L 112.180924 76.855796 
L 112.012809 71.961376 
L 111.830671 78.15906 
L 111.648523 63.288423 
L 111.466363 80.137926 
L 111.298205 70.503868 
L 111.116035 85.410529 
L 110.933832 72.808658 
L 110.765641 73.764675 
L 110.401213 86.343689 
L 110.218977 74.172899 
L 110.050765 87.511923 
L 109.868507 78.158626 
L 109.686239 82.12914 
L 109.503959 65.632918 
L 109.153402 84.697562 
L 108.971101 84.312757 
L 108.62049 71.445772 
L 108.438156 85.415974 
L 108.2558 80.541075 
L 108.087468 81.817776 
L 107.905102 81.780256 
L 107.722724 58.47124 
L 107.55437 80.014362 
L 107.371971 88.326236 
L 107.189572 89.536476 
L 105.407053 180.469796 
L 105.056049 191.188108 
L 104.339877 204.650504 
L 103.97472 208.084258 
L 103.80617 209.018549 
L 103.623575 209.213413 
L 103.440947 208.673775 
L 103.089726 206.413369 
L 102.738494 199.101205 
L 102.373162 184.402114 
L 102.19048 175.726744 
L 101.839128 147.005697 
L 101.305029 90.529233 
L 101.122292 83.414789 
L 100.95359 81.604715 
L 100.770842 86.416286 
L 100.588073 65.007888 
L 100.419349 79.641957 
L 100.053767 71.827483 
L 99.870965 92.365397 
L 99.519384 75.653955 
L 99.336561 75.078805 
L 99.167771 73.00115 
L 98.984937 65.074106 
L 98.802069 81.257749 
L 98.633258 74.099523 
L 98.45038 78.141394 
L 98.267491 86.93524 
L 97.915758 65.008042 
L 97.732847 77.760143 
L 97.563981 74.066056 
L 97.381049 78.34199 
L 97.198111 71.504243 
L 97.029234 83.631787 
L 96.846269 71.200894 
L 96.663309 80.749776 
L 96.311407 78.8567 
L 96.12841 81.774887 
L 95.959484 81.495111 
L 95.776464 80.373728 
L 95.593439 82.094139 
L 95.424481 78.430042 
L 95.241439 88.324817 
L 95.058393 81.27052 
L 94.889418 85.332422 
L 94.52327 78.520676 
L 94.354268 79.017438 
L 93.988065 94.327223 
L 93.819042 76.938939 
L 93.635924 72.289091 
L 93.452796 90.142791 
L 93.283734 89.709601 
L 93.100589 86.380454 
L 92.917439 87.334528 
L 92.748366 82.724832 
L 92.565199 82.603838 
L 92.382011 61.406097 
L 92.212917 67.399784 
L 92.029712 79.695366 
L 91.846502 76.458054 
L 91.677385 70.530329 
L 91.494159 68.120408 
L 91.310932 75.952983 
L 91.141773 72.298423 
L 90.958524 74.695304 
L 90.775271 65.910599 
L 90.239549 79.035284 
L 89.887049 73.727117 
L 89.70374 75.92353 
L 89.534532 73.875814 
L 89.351207 74.834183 
L 89.167883 77.886698 
L 88.99863 84.236785 
L 88.815284 73.279981 
L 88.646037 77.352634 
L 88.462669 86.708859 
L 88.27929 73.861522 
L 88.110011 79.86633 
L 87.926616 76.077059 
L 87.74322 64.563922 
L 87.57393 79.757697 
L 87.390513 78.803061 
L 87.207096 97.59616 
L 87.037767 90.308898 
L 86.854334 91.546508 
L 86.67089 79.914677 
L 86.501539 85.305654 
L 86.318079 84.342363 
L 86.148723 81.539686 
L 85.965241 87.164305 
L 85.612381 81.366433 
L 85.428871 92.222543 
L 85.245362 87.222086 
L 85.075957 88.477412 
L 84.892431 81.7698 
L 84.708905 89.684635 
L 84.539484 86.279197 
L 84.355931 93.134995 
L 84.186488 86.44014 
L 84.00293 85.971629 
L 83.81936 88.993656 
L 83.649895 85.440097 
L 83.46631 88.613082 
L 83.282713 88.181529 
L 83.113238 95.892495 
L 82.746006 89.819027 
L 82.576509 91.984108 
L 82.392879 91.290444 
L 82.039704 84.821471 
L 81.856058 93.368496 
L 81.502839 88.048684 
L 81.319166 93.361068 
L 81.149614 91.920204 
L 80.965914 81.105755 
L 80.796346 92.592264 
L 80.612646 85.206941 
L 80.259334 91.816595 
L 80.075602 88.674353 
L 79.891869 82.923857 
L 79.722257 85.053157 
L 79.538508 90.438714 
L 79.368886 89.595765 
L 79.185115 82.853318 
L 79.001339 94.302845 
L 78.831689 85.730637 
L 78.294443 95.396258 
L 78.110634 94.523652 
L 77.940957 95.188515 
L 77.757132 93.087607 
L 77.573301 102.560428 
L 77.403602 101.35511 
L 77.219761 92.272424 
L 77.050046 93.017988 
L 76.866188 89.107262 
L 76.682324 92.864601 
L 76.512593 93.074529 
L 76.328713 95.053344 
L 76.158965 100.374945 
L 75.791173 95.198422 
L 75.621415 104.445132 
L 75.437497 103.217966 
L 75.267722 98.742368 
L 75.083799 100.138951 
L 74.899859 98.350993 
L 74.546117 108.103284 
L 74.362161 105.982715 
L 74.192348 111.120287 
L 73.838552 102.483012 
L 73.838552 102.483012 
" clip-path="url(#pf17175fabe)" style="fill: none; stroke: #099e7d; stroke-width: 1.5; stroke-linecap: square"/>
   </g>
   <g id="line2d_47">
    <path d="M 184.429787 289.366994 
L 181.213062 289.442656 
L 180.153083 289.473131 
L 178.004012 289.474725 
L 174.98003 289.263133 
L 170.871985 288.966894 
L 166.768622 288.770173 
L 164.096764 288.682798 
L 162.491896 288.646155 
L 160.350066 288.625183 
L 144.479358 288.580946 
L 140.365684 288.215152 
L 138.93738 288.043702 
L 135.911568 287.698516 
L 132.882032 287.164688 
L 130.196903 286.223733 
L 129.305866 285.65051 
L 128.595606 285.009563 
L 127.704036 284.049724 
L 126.993352 282.808223 
L 126.63096 282.029681 
L 126.101237 280.612992 
L 125.738725 279.498468 
L 125.027518 277.097813 
L 124.497491 274.769578 
L 123.06027 268.735951 
L 121.817805 266.343309 
L 121.468707 265.344912 
L 121.287146 265.14721 
L 121.105585 264.775972 
L 120.74242 263.506407 
L 120.574796 263.576777 
L 120.211555 264.234922 
L 119.86226 263.945142 
L 119.498932 264.75386 
L 119.317252 264.677281 
L 119.14954 264.483869 
L 118.422666 264.937295 
L 117.891375 267.126587 
L 117.541787 268.231228 
L 116.996343 269.669166 
L 116.646646 270.143598 
L 115.933142 272.959333 
L 115.219463 275.52579 
L 113.077404 280.904336 
L 111.648523 283.03623 
L 110.583427 283.813296 
L 109.686239 284.272726 
L 108.971101 284.370421 
L 107.722724 284.457211 
L 104.339877 283.715636 
L 103.272375 283.403118 
L 102.907098 283.324861 
L 101.487765 282.837528 
L 101.122292 282.615836 
L 100.419349 281.951459 
L 99.870965 280.962456 
L 98.984937 277.729746 
L 98.633258 275.347991 
L 98.098669 268.335025 
L 97.732847 261.834355 
L 97.198111 245.206001 
L 96.494394 205.389204 
L 95.959484 168.709634 
L 95.424481 121.171659 
L 95.058393 107.128041 
L 94.52327 91.905861 
L 94.354268 91.177413 
L 93.988065 100.383804 
L 93.819042 94.572906 
L 93.635924 95.007464 
L 93.452796 98.255693 
L 93.283734 98.285082 
L 92.748366 90.115013 
L 92.565199 91.584295 
L 92.382011 91.393542 
L 92.029712 97.818476 
L 91.846502 100.18207 
L 91.677385 94.271871 
L 91.310932 100.875631 
L 91.141773 99.548756 
L 90.606106 90.972598 
L 90.42283 91.766049 
L 90.239549 91.70226 
L 90.070351 91.318874 
L 89.887049 81.334488 
L 89.70374 86.823526 
L 89.534532 95.479043 
L 89.351207 92.940496 
L 88.99863 91.549256 
L 88.815284 85.355739 
L 88.27929 93.673686 
L 88.110011 90.146026 
L 87.926616 89.313777 
L 87.74322 87.323202 
L 87.57393 87.333569 
L 87.390513 107.376703 
L 87.207096 103.328287 
L 87.037767 111.505949 
L 86.854334 110.401824 
L 86.67089 86.818412 
L 86.501539 89.682053 
L 86.318079 88.879999 
L 85.965241 92.572961 
L 85.781747 91.305963 
L 85.612381 94.41204 
L 85.428871 89.918379 
L 85.245362 92.448579 
L 85.075957 97.802407 
L 84.892431 91.752767 
L 84.708905 91.306104 
L 84.539484 92.079855 
L 84.355931 93.602393 
L 84.186488 96.22439 
L 83.81936 93.39272 
L 83.649895 98.294477 
L 83.282713 91.049286 
L 83.113238 93.935553 
L 82.746006 92.296968 
L 82.576509 89.81252 
L 82.392879 92.916514 
L 82.22335 98.665221 
L 82.039704 92.953381 
L 81.856058 92.988178 
L 81.686523 94.240897 
L 81.502839 100.840912 
L 80.965914 89.309763 
L 80.796346 97.725144 
L 80.612646 96.48618 
L 80.428924 96.518663 
L 80.259334 93.543781 
L 80.075602 94.726294 
L 79.891869 97.457486 
L 79.722257 92.581692 
L 79.538508 94.48589 
L 79.368886 98.461697 
L 79.185115 88.951381 
L 79.001339 98.08538 
L 78.831689 95.354239 
L 78.647907 94.516186 
L 78.478252 99.121408 
L 78.294443 94.841983 
L 77.757132 103.359849 
L 77.573301 103.464455 
L 77.403602 105.516928 
L 77.050046 93.798618 
L 76.866188 99.029317 
L 76.682324 96.766532 
L 76.512593 96.640437 
L 76.328713 94.615194 
L 76.158965 103.729697 
L 75.975075 104.198234 
L 75.791173 103.691066 
L 75.621415 103.599358 
L 75.437497 104.255759 
L 75.267722 100.792118 
L 75.083799 99.655114 
L 74.899859 108.266605 
L 74.730068 104.419603 
L 74.546117 112.535649 
L 74.362161 113.184865 
L 74.192348 112.999276 
L 73.838552 108.657686 
L 73.838552 108.657686 
" clip-path="url(#pf17175fabe)" style="fill: none; stroke: #e57373; stroke-width: 1.5; stroke-linecap: square"/>
   </g>
   <g id="line2d_48">
    <path d="M 184.429787 281.446824 
L 183.90087 281.45013 
L 182.109466 281.502777 
L 181.932924 281.614651 
L 181.756394 281.455915 
L 180.683154 281.479938 
L 180.506482 281.599146 
L 180.153083 281.355241 
L 179.432469 281.409978 
L 179.255677 281.553659 
L 177.827068 281.298839 
L 177.473147 281.363165 
L 175.157268 281.186745 
L 174.98003 281.294867 
L 174.080065 281.102691 
L 173.902729 281.14839 
L 173.548024 281.037325 
L 173.370655 281.096272 
L 173.193275 281.01524 
L 173.015851 281.056826 
L 172.661004 280.932025 
L 172.483537 280.891558 
L 172.30606 280.996316 
L 171.759875 280.790914 
L 170.516713 280.820447 
L 170.161377 280.678826 
L 169.450496 280.605296 
L 168.547843 280.581532 
L 168.192114 280.548621 
L 166.412588 280.519429 
L 165.700325 280.491262 
L 165.522205 280.413158 
L 165.165954 280.476485 
L 164.096764 280.310496 
L 163.561957 280.3139 
L 163.383652 280.260649 
L 162.848638 280.453329 
L 162.491896 280.258941 
L 161.42127 280.204715 
L 161.242768 280.383067 
L 160.885755 280.17749 
L 160.350066 280.14626 
L 159.456982 280.065811 
L 158.384734 280.077823 
L 158.205971 280.013006 
L 157.848424 280.04702 
L 157.490779 280.024219 
L 157.31194 279.912197 
L 156.596454 280.049933 
L 156.252364 279.934994 
L 155.178482 279.968669 
L 152.863638 279.862536 
L 152.684418 279.795019 
L 152.325913 279.815725 
L 151.070677 279.867725 
L 150.007998 279.825901 
L 146.084062 279.684969 
L 145.72449 279.488781 
L 144.825299 279.556322 
L 141.08645 278.890888 
L 140.726084 278.648704 
L 140.365684 278.666978 
L 139.658571 278.556845 
L 139.297997 278.604586 
L 138.93738 278.550566 
L 138.410205 278.351612 
L 137.522108 278.232721 
L 137.161218 278.029494 
L 136.272642 277.916005 
L 136.092105 277.806867 
L 135.731009 277.824468 
L 135.203148 277.321831 
L 135.022556 277.425111 
L 134.48064 277.281491 
L 134.299983 277.404187 
L 133.591106 277.01258 
L 133.410383 276.99712 
L 132.882032 276.611774 
L 131.991943 276.206547 
L 130.558783 275.477128 
L 130.377843 275.451932 
L 128.776666 273.596645 
L 128.233443 272.980094 
L 127.704036 272.084523 
L 126.81215 269.967445 
L 125.571406 265.330396 
L 122.711324 249.652044 
L 120.574796 244.143087 
L 120.211555 244.037573 
L 119.680591 245.244463 
L 119.498932 245.596997 
L 118.967838 245.5622 
L 118.60439 245.42639 
L 118.422666 245.761426 
L 117.891375 248.469624 
L 117.541787 250.272706 
L 116.996343 251.890706 
L 116.464791 253.181533 
L 116.11504 254.615456 
L 115.751243 256.866153 
L 115.03751 259.579273 
L 114.687585 260.436631 
L 113.791594 263.303912 
L 113.441516 264.1795 
L 112.727261 265.539088 
L 112.012809 266.30988 
L 111.648523 266.786706 
L 111.466363 266.749615 
L 110.401213 267.1782 
L 110.218977 267.229209 
L 109.868507 267.116009 
L 109.503959 267.135587 
L 109.153402 266.988821 
L 108.802812 266.68767 
L 107.905102 266.012983 
L 105.758013 263.570727 
L 103.623575 260.119917 
L 102.907098 258.628561 
L 102.555833 258.034189 
L 101.839128 256.597495 
L 101.122292 254.686177 
L 100.770842 253.748526 
L 99.519384 249.372466 
L 98.098669 240.801993 
L 97.198111 231.411382 
L 96.311407 216.241351 
L 95.776464 203.657396 
L 94.889418 174.160015 
L 94.354268 155.308035 
L 93.635924 137.237426 
L 93.452796 136.789663 
L 93.100589 133.554691 
L 92.748366 132.928459 
L 92.565199 133.718612 
L 92.382011 132.890582 
L 92.212917 133.07015 
L 91.846502 134.047937 
L 91.494159 132.976717 
L 91.310932 133.649492 
L 91.141773 133.223538 
L 90.958524 134.044 
L 90.606106 131.409642 
L 90.42283 132.352863 
L 90.239549 130.769182 
L 90.070351 130.774883 
L 89.887049 131.034501 
L 89.70374 130.568355 
L 89.534532 131.977479 
L 89.167883 130.8416 
L 88.99863 131.180231 
L 88.815284 131.146943 
L 88.646037 130.498315 
L 88.462669 131.366574 
L 88.27929 131.216076 
L 88.110011 129.735698 
L 87.926616 131.025067 
L 87.74322 130.301899 
L 87.57393 130.224189 
L 87.390513 132.310729 
L 87.207096 132.847119 
L 87.037767 134.513955 
L 86.854334 133.514385 
L 86.67089 129.671819 
L 86.501539 130.234019 
L 85.965241 130.142823 
L 85.781747 129.389256 
L 85.428871 130.827845 
L 85.245362 131.273972 
L 84.892431 129.106909 
L 84.539484 130.093965 
L 84.355931 129.538438 
L 84.186488 130.962646 
L 84.00293 129.706501 
L 83.649895 131.048307 
L 83.46631 129.986252 
L 83.282713 129.746436 
L 83.113238 130.202534 
L 82.576509 129.373852 
L 82.392879 130.7604 
L 82.22335 129.300514 
L 82.039704 129.072829 
L 81.856058 129.373494 
L 81.686523 129.124359 
L 81.502839 129.482063 
L 81.319166 130.340147 
L 81.149614 128.524934 
L 80.965914 128.739746 
L 80.796346 129.145605 
L 80.612646 128.760186 
L 80.428924 129.119667 
L 79.368886 126.494999 
L 79.185115 125.170565 
L 79.001339 127.558818 
L 78.647907 125.666355 
L 78.478252 123.45606 
L 78.294443 124.105825 
L 78.110634 124.06612 
L 77.757132 121.933049 
L 77.573301 122.627224 
L 77.219761 119.493343 
L 77.050046 122.090681 
L 76.866188 119.977475 
L 76.682324 119.919157 
L 76.512593 120.813008 
L 76.158965 119.285 
L 75.975075 123.088295 
L 75.791173 119.901516 
L 75.437497 122.995309 
L 75.267722 124.200601 
L 75.083799 123.931511 
L 74.546117 128.793167 
L 74.362161 130.931991 
L 74.192348 130.096125 
L 74.008381 128.596035 
L 73.838552 128.886665 
L 73.838552 128.886665 
" clip-path="url(#pf17175fabe)" style="fill: none; stroke: #64b5f6; stroke-width: 1.5; stroke-linecap: square"/>
   </g>
   <g id="line2d_49">
    <path d="M 398.487273 292.452965 
L 398.130031 294.010011 
L 397.772527 294.635301 
L 397.414806 293.424784 
L 397.056737 294.767873 
L 396.708988 293.782168 
L 396.350396 293.210643 
L 395.991586 294.326607 
L 395.632472 294.481153 
L 395.273052 293.310062 
L 394.923997 294.817569 
L 394.564055 295.488 
L 394.203852 293.289799 
L 393.853969 292.904466 
L 393.493287 294.269791 
L 393.1323 294.368903 
L 392.781634 294.227261 
L 392.420123 293.823642 
L 392.068978 292.562186 
L 391.706902 293.843082 
L 391.355235 293.29807 
L 390.992636 295.131162 
L 390.640446 294.685207 
L 390.288037 295.254569 
L 389.924655 294.502639 
L 389.57168 294.231588 
L 389.207819 293.671311 
L 388.854366 294.729557 
L 388.500651 293.086464 
L 388.146718 293.975692 
L 387.781768 294.427024 
L 387.42727 293.229592 
L 387.072597 293.350814 
L 386.71762 293.923991 
L 386.362381 294.138783 
L 386.006924 293.670521 
L 385.640449 294.008038 
L 385.284427 293.969279 
L 384.571728 294.268313 
L 383.858115 293.628699 
L 383.500873 294.165057 
L 383.143457 293.906415 
L 382.785735 293.842087 
L 382.43864 293.901605 
L 382.080397 293.722099 
L 381.721979 293.700276 
L 381.363299 294.108724 
L 381.004359 294.034198 
L 380.6452 293.725885 
L 380.296625 293.85938 
L 379.936988 294.254746 
L 379.577089 293.564881 
L 379.227817 293.246316 
L 378.156874 294.209032 
L 377.795756 294.047412 
L 377.43442 293.659394 
L 376.721939 293.939432 
L 376.370794 293.80417 
L 376.008457 294.363336 
L 375.656919 293.951676 
L 375.294147 294.308259 
L 374.589853 294.04425 
L 374.22634 294.006732 
L 373.873583 294.311609 
L 373.509635 294.028438 
L 373.156399 294.253675 
L 372.803033 294.009766 
L 372.449362 294.119228 
L 371.730348 293.903827 
L 371.376024 294.249033 
L 371.021504 294.05129 
L 370.655639 294.106158 
L 369.945423 293.772815 
L 367.095499 293.959372 
L 366.380797 293.961423 
L 366.023141 293.993577 
L 365.665202 293.89868 
L 365.307089 294.093473 
L 364.601337 293.961334 
L 363.883543 294.102253 
L 363.524319 294.016742 
L 363.164878 294.050128 
L 362.816433 293.910537 
L 362.456556 293.910612 
L 362.096461 294.123461 
L 361.736149 294.034558 
L 361.386855 294.066281 
L 361.026128 293.92908 
L 360.67642 294.020481 
L 359.241682 293.859121 
L 358.528656 293.950442 
L 358.17749 293.878107 
L 357.463288 293.879083 
L 353.537 293.995889 
L 353.183003 293.995686 
L 352.817355 293.873021 
L 352.4629 294.002924 
L 351.753468 293.952516 
L 350.676298 293.930806 
L 348.539509 293.794565 
L 348.18268 293.757964 
L 347.825699 293.896264 
L 345.332539 293.852386 
L 338.193706 293.678315 
L 337.842953 293.809442 
L 336.76624 293.759741 
L 336.051343 293.848194 
L 334.266874 293.793538 
L 333.561209 293.752002 
L 331.416319 293.582103 
L 325.704669 293.613428 
L 324.990512 293.571417 
L 322.8559 293.508682 
L 322.497547 293.444537 
L 321.43342 293.537699 
L 319.288596 293.52661 
L 318.21994 293.502505 
L 317.85941 293.400488 
L 317.149803 293.412932 
L 316.427545 293.382066 
L 316.078208 293.434064 
L 315.716632 293.30142 
L 315.005088 293.342417 
L 314.643011 293.271824 
L 314.292868 293.371497 
L 313.579995 293.329786 
L 313.217287 293.439988 
L 312.5035 293.40038 
L 311.437631 293.358287 
L 310.722211 293.395477 
L 310.006159 293.349807 
L 309.653968 293.393108 
L 308.584267 293.171287 
L 308.231489 293.254326 
L 307.513194 293.236653 
L 306.794333 293.249901 
L 306.440727 293.362879 
L 305.379018 293.295024 
L 304.303785 293.358099 
L 302.161313 293.219896 
L 301.805813 293.278125 
L 301.094181 293.201555 
L 300.382005 293.194266 
L 299.669263 293.240537 
L 285.390749 293.521364 
L 285.040889 293.569045 
L 283.615034 293.423264 
L 283.251956 293.38218 
L 282.90129 293.468672 
L 281.823423 293.364816 
L 279.689072 293.599905 
L 278.972367 293.60485 
L 276.112884 293.615282 
L 272.194305 293.829768 
L 271.839588 293.771044 
L 271.129808 293.825568 
L 268.273025 294.203115 
L 266.134711 294.202761 
L 263.991999 294.290285 
L 262.919009 294.290075 
L 261.486622 294.112535 
L 260.423867 293.952448 
L 259.347285 293.934306 
L 257.216506 293.699295 
L 254.708146 293.39977 
L 253.999672 293.40199 
L 252.568395 293.349148 
L 252.219928 293.203016 
L 251.14818 293.133573 
L 250.43742 293.07995 
L 247.576979 292.980783 
L 246.150558 292.852167 
L 244.00765 292.935643 
L 241.509198 292.883519 
L 239.723227 292.977839 
L 239.018541 292.885977 
L 218.674947 293.002443 
L 217.613651 293.049684 
L 216.896815 292.984668 
L 209.401306 293.321111 
L 208.333042 293.479131 
L 206.555324 293.479753 
L 204.762102 293.64767 
L 203.690463 293.663395 
L 201.907214 293.750979 
L 200.847006 293.708448 
L 199.772602 293.800716 
L 197.635094 293.677349 
L 196.55849 293.61211 
L 195.844833 293.487518 
L 193.701925 293.378941 
L 192.987005 293.321996 
L 191.569686 293.307501 
L 190.85383 293.179005 
L 189.421138 293.264658 
L 188.352569 293.105406 
L 186.565596 293.168305 
L 185.86115 293.133186 
L 177.65719 293.319646 
L 174.795889 293.172758 
L 174.086674 293.193297 
L 173.008698 293.051546 
L 171.943744 293.038929 
L 171.233462 292.953262 
L 170.522876 293.022821 
L 169.442831 292.866772 
L 168.375863 292.939039 
L 167.664242 292.804679 
L 166.596272 292.891687 
L 165.527725 292.814458 
L 164.444893 292.776669 
L 164.08837 292.746687 
L 163.375181 292.811472 
L 162.30487 292.768497 
L 161.591028 292.837518 
L 160.890665 292.74982 
L 159.819037 292.810226 
L 159.461708 292.730773 
L 158.389339 292.844128 
L 157.674125 292.786513 
L 156.95865 292.874363 
L 155.884986 292.871209 
L 155.182696 292.850717 
L 154.466372 292.910194 
L 153.749786 292.920845 
L 153.032994 292.961501 
L 152.67451 293.015661 
L 152.315951 292.90095 
L 149.818239 293.081009 
L 149.113946 293.049664 
L 148.395607 293.100275 
L 147.677051 293.117431 
L 145.893476 293.118466 
L 145.547654 293.010053 
L 144.828184 293.074586 
L 144.122322 293.028725 
L 143.762391 293.065329 
L 143.042365 292.94215 
L 142.33597 292.947649 
L 141.615498 292.917826 
L 139.8411 292.640887 
L 139.119866 292.597062 
L 138.759162 292.464976 
L 138.051493 292.389342 
L 135.913343 291.491701 
L 135.190932 291.053663 
L 134.12085 289.612916 
L 133.411842 288.426148 
L 130.559883 278.487404 
L 130.197948 276.708921 
L 129.487851 270.688027 
L 128.777537 263.04162 
L 128.06707 254.732005 
L 127.34245 241.35155 
L 126.283037 212.010497 
L 125.920515 199.345988 
L 124.846589 150.754458 
L 124.497828 140.442728 
L 123.786208 108.609467 
L 123.423348 110.602638 
L 123.060444 120.098214 
L 122.711444 94.608815 
L 122.348453 106.809313 
L 121.999355 101.593878 
L 121.636266 84.456071 
L 121.287102 94.80743 
L 120.923916 111.498304 
L 120.574643 108.001056 
L 119.862032 97.532358 
L 119.49866 99.990025 
L 119.149213 87.805749 
L 118.785754 108.200809 
L 118.436242 100.323351 
L 118.072696 99.474817 
L 117.709096 109.527096 
L 117.359443 104.534385 
L 116.995766 104.942136 
L 116.282251 132.412165 
L 115.568572 159.915238 
L 113.076337 238.497855 
L 112.361885 253.621913 
L 111.29692 268.927161 
L 110.582055 276.298317 
L 109.867048 281.098754 
L 109.151856 284.388753 
L 108.801212 285.755654 
L 107.720993 288.105696 
L 107.019367 289.014203 
L 105.587568 289.945691 
L 104.520317 290.096383 
L 103.08744 290.055376 
L 102.370778 289.832053 
L 102.019415 289.552273 
L 101.668009 289.002391 
L 101.302525 288.220854 
L 100.951042 286.162652 
L 100.585482 283.259501 
L 100.233934 279.339812 
L 99.882342 272.193864 
L 99.516652 257.631251 
L 98.813316 217.990832 
L 97.743963 114.000304 
L 97.378055 107.707946 
L 97.026202 110.935133 
L 96.660217 104.454566 
L 96.308277 94.986308 
L 95.956316 93.552538 
L 95.590238 100.777621 
L 95.23819 91.587082 
L 94.88613 70.445754 
L 94.519938 86.158957 
L 94.167786 94.875003 
L 93.815618 96.128885 
L 93.449333 90.534691 
L 93.097089 91.67429 
L 92.744817 79.240124 
L 92.392501 87.098905 
L 92.02607 102.276791 
L 91.6737 98.397869 
L 91.321292 91.798174 
L 90.954763 103.699644 
L 90.602295 72.009263 
L 90.249789 93.254225 
L 89.883156 80.640427 
L 89.53059 106.023047 
L 89.177992 93.684539 
L 88.811261 86.561096 
L 88.458603 94.390168 
L 88.105906 89.417821 
L 87.753188 93.90656 
L 87.386316 101.358344 
L 87.033527 120.294042 
L 86.68071 79.837133 
L 86.313751 59.419613 
L 85.960875 83.538749 
L 85.60796 98.408556 
L 85.255024 99.621225 
L 84.887935 95.869038 
L 84.181904 101.242552 
L 83.828854 94.418739 
L 83.461634 92.68323 
L 83.108523 98.703481 
L 82.755369 71.102308 
L 82.402199 86.089914 
L 82.034864 70.117963 
L 81.681623 99.233352 
L 80.975065 85.540663 
L 80.607616 101.354957 
L 80.254266 96.759361 
L 79.547485 71.721535 
L 79.179916 91.668601 
L 78.826452 96.038762 
L 78.472966 98.651875 
L 78.119453 96.434254 
L 77.75177 105.720196 
L 77.398197 106.624389 
L 77.044596 97.055756 
L 76.690974 96.528685 
L 76.337325 104.498489 
L 75.9695 108.143322 
L 75.615791 89.478772 
L 75.262066 105.008878 
L 74.908302 115.34822 
L 74.540369 121.865156 
L 74.186556 108.406135 
L 73.832727 105.027018 
L 73.832727 105.027018 
" clip-path="url(#pf17175fabe)" style="fill: none; stroke: #81c784; stroke-width: 1.5; stroke-linecap: square"/>
   </g>
   <g id="patch_3">
    <path d="M 57.6 307.584 
L 57.6 41.472 
" style="fill: none; stroke: #000000; stroke-width: 0.8; stroke-linejoin: miter; stroke-linecap: square"/>
   </g>
   <g id="patch_4">
    <path d="M 414.72 307.584 
L 414.72 41.472 
" style="fill: none; stroke: #000000; stroke-width: 0.8; stroke-linejoin: miter; stroke-linecap: square"/>
   </g>
   <g id="patch_5">
    <path d="M 57.6 307.584 
L 414.72 307.584 
" style="fill: none; stroke: #000000; stroke-width: 0.8; stroke-linejoin: miter; stroke-linecap: square"/>
   </g>
   <g id="patch_6">
    <path d="M 57.6 41.472 
L 414.72 41.472 
" style="fill: none; stroke: #000000; stroke-width: 0.8; stroke-linejoin: miter; stroke-linecap: square"/>
   </g>
   <g id="text_13">
    <!-- UV-Vis: CS₂ -->
    <g transform="translate(203.110312 35.472)scale(0.12 -0.12)">
     <defs>
      <path id="DejaVuSans-55" d="M 556 4666 
L 1191 4666 
L 1191 1831 
Q 1191 1081 1462 751 
Q 1734 422 2344 422 
Q 2950 422 3222 751 
Q 3494 1081 3494 1831 
L 3494 4666 
L 4128 4666 
L 4128 1753 
Q 4128 841 3676 375 
Q 3225 -91 2344 -91 
Q 1459 -91 1007 375 
Q 556 841 556 1753 
L 556 4666 
z
" transform="scale(0.015625)"/>
      <path id="DejaVuSans-56" d="M 1831 0 
L 50 4666 
L 709 4666 
L 2188 738 
L 3669 4666 
L 4325 4666 
L 2547 0 
L 1831 0 
z
" transform="scale(0.015625)"/>
      <path id="DejaVuSans-2d" d="M 313 2009 
L 1997 2009 
L 1997 1497 
L 313 1497 
L 313 2009 
z
" transform="scale(0.015625)"/>
      <path id="DejaVuSans-69" d="M 603 3500 
L 1178 3500 
L 1178 0 
L 603 0 
L 603 3500 
z
M 603 4863 
L 1178 4863 
L 1178 4134 
L 603 4134 
L 603 4863 
z
" transform="scale(0.015625)"/>
      <path id="DejaVuSans-3a" d="M 750 794 
L 1409 794 
L 1409 0 
L 750 0 
L 750 794 
z
M 750 3309 
L 1409 3309 
L 1409 2516 
L 750 2516 
L 750 3309 
z
" transform="scale(0.015625)"/>
      <path id="DejaVuSans-20" transform="scale(0.015625)"/>
      <path id="DejaVuSans-43" d="M 4122 4306 
L 4122 3641 
Q 3803 3938 3442 4084 
Q 3081 4231 2675 4231 
Q 1875 4231 1450 3742 
Q 1025 3253 1025 2328 
Q 1025 1406 1450 917 
Q 1875 428 2675 428 
Q 3081 428 3442 575 
Q 3803 722 4122 1019 
L 4122 359 
Q 3791 134 3420 21 
Q 3050 -91 2638 -91 
Q 1578 -91 968 557 
Q 359 1206 359 2328 
Q 359 3453 968 4101 
Q 1578 4750 2638 4750 
Q 3056 4750 3426 4639 
Q 3797 4528 4122 4306 
z
" transform="scale(0.015625)"/>
      <path id="DejaVuSans-53" d="M 3425 4513 
L 3425 3897 
Q 3066 4069 2747 4153 
Q 2428 4238 2131 4238 
Q 1616 4238 1336 4038 
Q 1056 3838 1056 3469 
Q 1056 3159 1242 3001 
Q 1428 2844 1947 2747 
L 2328 2669 
Q 3034 2534 3370 2195 
Q 3706 1856 3706 1288 
Q 3706 609 3251 259 
Q 2797 -91 1919 -91 
Q 1588 -91 1214 -16 
Q 841 59 441 206 
L 441 856 
Q 825 641 1194 531 
Q 1563 422 1919 422 
Q 2459 422 2753 634 
Q 3047 847 3047 1241 
Q 3047 1584 2836 1778 
Q 2625 1972 2144 2069 
L 1759 2144 
Q 1053 2284 737 2584 
Q 422 2884 422 3419 
Q 422 4038 858 4394 
Q 1294 4750 2059 4750 
Q 2388 4750 2728 4690 
Q 3069 4631 3425 4513 
z
" transform="scale(0.015625)"/>
      <path id="DejaVuSans-2082" d="M 838 356 
L 2163 356 
L 2163 0 
L 294 0 
L 294 343 
Q 400 440 597 615 
Q 1672 1568 1672 1862 
Q 1672 2068 1509 2194 
Q 1347 2321 1081 2321 
Q 919 2321 728 2266 
Q 538 2212 313 2103 
L 313 2487 
Q 553 2575 761 2618 
Q 969 2662 1147 2662 
Q 1600 2662 1872 2456 
Q 2144 2250 2144 1912 
Q 2144 1478 1109 590 
Q 934 440 838 356 
z
" transform="scale(0.015625)"/>
     </defs>
     <use xlink:href="#DejaVuSans-55"/>
     <use xlink:href="#DejaVuSans-56" x="73.193359"/>
     <use xlink:href="#DejaVuSans-2d" x="135.726562"/>
     <use xlink:href="#DejaVuSans-56" x="165.935547"/>
     <use xlink:href="#DejaVuSans-69" x="232.09375"/>
     <use xlink:href="#DejaVuSans-73" x="259.876953"/>
     <use xlink:href="#DejaVuSans-3a" x="311.976562"/>
     <use xlink:href="#DejaVuSans-20" x="345.667969"/>
     <use xlink:href="#DejaVuSans-43" x="377.455078"/>
     <use xlink:href="#DejaVuSans-53" x="447.279297"/>
     <use xlink:href="#DejaVuSans-2082" x="510.755859"/>
    </g>
   </g>
   <g id="legend_1">
    <g id="patch_7">
     <path d="M 309.424688 108.1845 
L 407.72 108.1845 
Q 409.72 108.1845 409.72 106.1845 
L 409.72 48.472 
Q 409.72 46.472 407.72 46.472 
L 309.424688 46.472 
Q 307.424688 46.472 307.424688 48.472 
L 307.424688 106.1845 
Q 307.424688 108.1845 309.424688 108.1845 
z
" style="fill: #ffffff; opacity: 0.8; stroke: #cccccc; stroke-linejoin: miter"/>
    </g>
    <g id="line2d_50">
     <path d="M 311.424688 54.570438 
L 321.424688 54.570438 
L 331.424688 54.570438 
" style="fill: none; stroke: #099e7d; stroke-width: 1.5; stroke-linecap: square"/>
    </g>
    <g id="text_14">
     <!-- 1mm full -->
     <g transform="translate(339.424688 58.070438)scale(0.1 -0.1)">
      <defs>
       <path id="DejaVuSans-66" d="M 2375 4863 
L 2375 4384 
L 1825 4384 
Q 1516 4384 1395 4259 
Q 1275 4134 1275 3809 
L 1275 3500 
L 2222 3500 
L 2222 3053 
L 1275 3053 
L 1275 0 
L 697 0 
L 697 3053 
L 147 3053 
L 147 3500 
L 697 3500 
L 697 3744 
Q 697 4328 969 4595 
Q 1241 4863 1831 4863 
L 2375 4863 
z
" transform="scale(0.015625)"/>
       <path id="DejaVuSans-75" d="M 544 1381 
L 544 3500 
L 1119 3500 
L 1119 1403 
Q 1119 906 1312 657 
Q 1506 409 1894 409 
Q 2359 409 2629 706 
Q 2900 1003 2900 1516 
L 2900 3500 
L 3475 3500 
L 3475 0 
L 2900 0 
L 2900 538 
Q 2691 219 2414 64 
Q 2138 -91 1772 -91 
Q 1169 -91 856 284 
Q 544 659 544 1381 
z
M 1991 3584 
L 1991 3584 
z
" transform="scale(0.015625)"/>
       <path id="DejaVuSans-6c" d="M 603 4863 
L 1178 4863 
L 1178 0 
L 603 0 
L 603 4863 
z
" transform="scale(0.015625)"/>
      </defs>
      <use xlink:href="#DejaVuSans-31"/>
      <use xlink:href="#DejaVuSans-6d" x="63.623047"/>
      <use xlink:href="#DejaVuSans-6d" x="161.035156"/>
      <use xlink:href="#DejaVuSans-20" x="258.447266"/>
      <use xlink:href="#DejaVuSans-66" x="290.234375"/>
      <use xlink:href="#DejaVuSans-75" x="325.439453"/>
      <use xlink:href="#DejaVuSans-6c" x="388.818359"/>
      <use xlink:href="#DejaVuSans-6c" x="416.601562"/>
     </g>
    </g>
    <g id="line2d_51">
     <path d="M 311.424688 69.248563 
L 321.424688 69.248563 
L 331.424688 69.248563 
" style="fill: none; stroke: #e57373; stroke-width: 1.5; stroke-linecap: square"/>
    </g>
    <g id="text_15">
     <!-- 1mm vapor -->
     <g transform="translate(339.424688 72.748563)scale(0.1 -0.1)">
      <defs>
       <path id="DejaVuSans-76" d="M 191 3500 
L 800 3500 
L 1894 563 
L 2988 3500 
L 3597 3500 
L 2284 0 
L 1503 0 
L 191 3500 
z
" transform="scale(0.015625)"/>
       <path id="DejaVuSans-61" d="M 2194 1759 
Q 1497 1759 1228 1600 
Q 959 1441 959 1056 
Q 959 750 1161 570 
Q 1363 391 1709 391 
Q 2188 391 2477 730 
Q 2766 1069 2766 1631 
L 2766 1759 
L 2194 1759 
z
M 3341 1997 
L 3341 0 
L 2766 0 
L 2766 531 
Q 2569 213 2275 61 
Q 1981 -91 1556 -91 
Q 1019 -91 701 211 
Q 384 513 384 1019 
Q 384 1609 779 1909 
Q 1175 2209 1959 2209 
L 2766 2209 
L 2766 2266 
Q 2766 2663 2505 2880 
Q 2244 3097 1772 3097 
Q 1472 3097 1187 3025 
Q 903 2953 641 2809 
L 641 3341 
Q 956 3463 1253 3523 
Q 1550 3584 1831 3584 
Q 2591 3584 2966 3190 
Q 3341 2797 3341 1997 
z
" transform="scale(0.015625)"/>
       <path id="DejaVuSans-70" d="M 1159 525 
L 1159 -1331 
L 581 -1331 
L 581 3500 
L 1159 3500 
L 1159 2969 
Q 1341 3281 1617 3432 
Q 1894 3584 2278 3584 
Q 2916 3584 3314 3078 
Q 3713 2572 3713 1747 
Q 3713 922 3314 415 
Q 2916 -91 2278 -91 
Q 1894 -91 1617 61 
Q 1341 213 1159 525 
z
M 3116 1747 
Q 3116 2381 2855 2742 
Q 2594 3103 2138 3103 
Q 1681 3103 1420 2742 
Q 1159 2381 1159 1747 
Q 1159 1113 1420 752 
Q 1681 391 2138 391 
Q 2594 391 2855 752 
Q 3116 1113 3116 1747 
z
" transform="scale(0.015625)"/>
       <path id="DejaVuSans-6f" d="M 1959 3097 
Q 1497 3097 1228 2736 
Q 959 2375 959 1747 
Q 959 1119 1226 758 
Q 1494 397 1959 397 
Q 2419 397 2687 759 
Q 2956 1122 2956 1747 
Q 2956 2369 2687 2733 
Q 2419 3097 1959 3097 
z
M 1959 3584 
Q 2709 3584 3137 3096 
Q 3566 2609 3566 1747 
Q 3566 888 3137 398 
Q 2709 -91 1959 -91 
Q 1206 -91 779 398 
Q 353 888 353 1747 
Q 353 2609 779 3096 
Q 1206 3584 1959 3584 
z
" transform="scale(0.015625)"/>
       <path id="DejaVuSans-72" d="M 2631 2963 
Q 2534 3019 2420 3045 
Q 2306 3072 2169 3072 
Q 1681 3072 1420 2755 
Q 1159 2438 1159 1844 
L 1159 0 
L 581 0 
L 581 3500 
L 1159 3500 
L 1159 2956 
Q 1341 3275 1631 3429 
Q 1922 3584 2338 3584 
Q 2397 3584 2469 3576 
Q 2541 3569 2628 3553 
L 2631 2963 
z
" transform="scale(0.015625)"/>
      </defs>
      <use xlink:href="#DejaVuSans-31"/>
      <use xlink:href="#DejaVuSans-6d" x="63.623047"/>
      <use xlink:href="#DejaVuSans-6d" x="161.035156"/>
      <use xlink:href="#DejaVuSans-20" x="258.447266"/>
      <use xlink:href="#DejaVuSans-76" x="290.234375"/>
      <use xlink:href="#DejaVuSans-61" x="349.414062"/>
      <use xlink:href="#DejaVuSans-70" x="410.693359"/>
      <use xlink:href="#DejaVuSans-6f" x="474.169922"/>
      <use xlink:href="#DejaVuSans-72" x="535.351562"/>
     </g>
    </g>
    <g id="line2d_52">
     <path d="M 311.424688 83.926688 
L 321.424688 83.926688 
L 331.424688 83.926688 
" style="fill: none; stroke: #64b5f6; stroke-width: 1.5; stroke-linecap: square"/>
    </g>
    <g id="text_16">
     <!-- 10um bubble -->
     <g transform="translate(339.424688 87.426688)scale(0.1 -0.1)">
      <defs>
       <path id="DejaVuSans-65" d="M 3597 1894 
L 3597 1613 
L 953 1613 
Q 991 1019 1311 708 
Q 1631 397 2203 397 
Q 2534 397 2845 478 
Q 3156 559 3463 722 
L 3463 178 
Q 3153 47 2828 -22 
Q 2503 -91 2169 -91 
Q 1331 -91 842 396 
Q 353 884 353 1716 
Q 353 2575 817 3079 
Q 1281 3584 2069 3584 
Q 2775 3584 3186 3129 
Q 3597 2675 3597 1894 
z
M 3022 2063 
Q 3016 2534 2758 2815 
Q 2500 3097 2075 3097 
Q 1594 3097 1305 2825 
Q 1016 2553 972 2059 
L 3022 2063 
z
" transform="scale(0.015625)"/>
      </defs>
      <use xlink:href="#DejaVuSans-31"/>
      <use xlink:href="#DejaVuSans-30" x="63.623047"/>
      <use xlink:href="#DejaVuSans-75" x="127.246094"/>
      <use xlink:href="#DejaVuSans-6d" x="190.625"/>
      <use xlink:href="#DejaVuSans-20" x="288.037109"/>
      <use xlink:href="#DejaVuSans-62" x="319.824219"/>
      <use xlink:href="#DejaVuSans-75" x="383.300781"/>
      <use xlink:href="#DejaVuSans-62" x="446.679688"/>
      <use xlink:href="#DejaVuSans-62" x="510.15625"/>
      <use xlink:href="#DejaVuSans-6c" x="573.632812"/>
      <use xlink:href="#DejaVuSans-65" x="601.416016"/>
     </g>
    </g>
    <g id="line2d_53">
     <path d="M 311.424688 98.604813 
L 321.424688 98.604813 
L 331.424688 98.604813 
" style="fill: none; stroke: #81c784; stroke-width: 1.5; stroke-linecap: square"/>
    </g>
    <g id="text_17">
     <!-- s1 -->
     <g transform="translate(339.424688 102.104813)scale(0.1 -0.1)">
      <use xlink:href="#DejaVuSans-73"/>
      <use xlink:href="#DejaVuSans-31" x="52.099609"/>
     </g>
    </g>
   </g>
  </g>
 </g>
 <defs>
  <clipPath id="pf17175fabe">
   <rect x="57.6" y="41.472" width="357.12" height="266.112"/>
  </clipPath>
 </defs>
</svg>
