<?xml version="1.0" encoding="utf-8" standalone="no"?>
<!DOCTYPE svg PUBLIC "-//W3C//DTD SVG 1.1//EN"
  "http://www.w3.org/Graphics/SVG/1.1/DTD/svg11.dtd">
<svg xmlns:xlink="http://www.w3.org/1999/xlink" width="460.8pt" height="345.6pt" viewBox="0 0 460.8 345.6" xmlns="http://www.w3.org/2000/svg" version="1.1">
 <metadata>
  <rdf:RDF xmlns:dc="http://purl.org/dc/elements/1.1/" xmlns:cc="http://creativecommons.org/ns#" xmlns:rdf="http://www.w3.org/1999/02/22-rdf-syntax-ns#">
   <cc:Work>
    <dc:type rdf:resource="http://purl.org/dc/dcmitype/StillImage"/>
    <dc:date>2023-10-19T16:19:02.086810</dc:date>
    <dc:format>image/svg+xml</dc:format>
    <dc:creator>
     <cc:Agent>
      <dc:title>Matplotlib v3.5.2, https://matplotlib.org/</dc:title>
     </cc:Agent>
    </dc:creator>
   </cc:Work>
  </rdf:RDF>
 </metadata>
 <defs>
  <style type="text/css">*{stroke-linejoin: round; stroke-linecap: butt}</style>
 </defs>
 <g id="figure_1">
  <g id="patch_1">
   <path d="M 0 345.6 
L 460.8 345.6 
L 460.8 0 
L 0 0 
L 0 345.6 
z
" style="fill: none"/>
  </g>
  <g id="axes_1">
   <g id="patch_2">
    <path d="M 57.6 307.584 
L 414.72 307.584 
L 414.72 41.472 
L 57.6 41.472 
L 57.6 307.584 
z
" style="fill: none"/>
   </g>
   <g id="matplotlib.axis_1">
    <g id="xtick_1">
     <g id="line2d_1">
      <defs>
       <path id="mb0d5877580" d="M 0 0 
L 0 -3.5 
" style="stroke: #000000; stroke-width: 0.8"/>
      </defs>
      <g>
       <use xlink:href="#mb0d5877580" x="84.308826" y="307.584" style="stroke: #000000; stroke-width: 0.8"/>
      </g>
     </g>
     <g id="text_1">
      <!-- 200 -->
      <g transform="translate(74.765076 320.182437)scale(0.1 -0.1)">
       <defs>
        <path id="DejaVuSans-32" d="M 1228 531 
L 3431 531 
L 3431 0 
L 469 0 
L 469 531 
Q 828 903 1448 1529 
Q 2069 2156 2228 2338 
Q 2531 2678 2651 2914 
Q 2772 3150 2772 3378 
Q 2772 3750 2511 3984 
Q 2250 4219 1831 4219 
Q 1534 4219 1204 4116 
Q 875 4013 500 3803 
L 500 4441 
Q 881 4594 1212 4672 
Q 1544 4750 1819 4750 
Q 2544 4750 2975 4387 
Q 3406 4025 3406 3419 
Q 3406 3131 3298 2873 
Q 3191 2616 2906 2266 
Q 2828 2175 2409 1742 
Q 1991 1309 1228 531 
z
" transform="scale(0.015625)"/>
        <path id="DejaVuSans-30" d="M 2034 4250 
Q 1547 4250 1301 3770 
Q 1056 3291 1056 2328 
Q 1056 1369 1301 889 
Q 1547 409 2034 409 
Q 2525 409 2770 889 
Q 3016 1369 3016 2328 
Q 3016 3291 2770 3770 
Q 2525 4250 2034 4250 
z
M 2034 4750 
Q 2819 4750 3233 4129 
Q 3647 3509 3647 2328 
Q 3647 1150 3233 529 
Q 2819 -91 2034 -91 
Q 1250 -91 836 529 
Q 422 1150 422 2328 
Q 422 3509 836 4129 
Q 1250 4750 2034 4750 
z
" transform="scale(0.015625)"/>
       </defs>
       <use xlink:href="#DejaVuSans-32"/>
       <use xlink:href="#DejaVuSans-30" x="63.623047"/>
       <use xlink:href="#DejaVuSans-30" x="127.246094"/>
      </g>
     </g>
    </g>
    <g id="xtick_2">
     <g id="line2d_2">
      <g>
       <use xlink:href="#mb0d5877580" x="136.67222" y="307.584" style="stroke: #000000; stroke-width: 0.8"/>
      </g>
     </g>
     <g id="text_2">
      <!-- 250 -->
      <g transform="translate(127.12847 320.182437)scale(0.1 -0.1)">
       <defs>
        <path id="DejaVuSans-35" d="M 691 4666 
L 3169 4666 
L 3169 4134 
L 1269 4134 
L 1269 2991 
Q 1406 3038 1543 3061 
Q 1681 3084 1819 3084 
Q 2600 3084 3056 2656 
Q 3513 2228 3513 1497 
Q 3513 744 3044 326 
Q 2575 -91 1722 -91 
Q 1428 -91 1123 -41 
Q 819 9 494 109 
L 494 744 
Q 775 591 1075 516 
Q 1375 441 1709 441 
Q 2250 441 2565 725 
Q 2881 1009 2881 1497 
Q 2881 1984 2565 2268 
Q 2250 2553 1709 2553 
Q 1456 2553 1204 2497 
Q 953 2441 691 2322 
L 691 4666 
z
" transform="scale(0.015625)"/>
       </defs>
       <use xlink:href="#DejaVuSans-32"/>
       <use xlink:href="#DejaVuSans-35" x="63.623047"/>
       <use xlink:href="#DejaVuSans-30" x="127.246094"/>
      </g>
     </g>
    </g>
    <g id="xtick_3">
     <g id="line2d_3">
      <g>
       <use xlink:href="#mb0d5877580" x="189.035614" y="307.584" style="stroke: #000000; stroke-width: 0.8"/>
      </g>
     </g>
     <g id="text_3">
      <!-- 300 -->
      <g transform="translate(179.491864 320.182437)scale(0.1 -0.1)">
       <defs>
        <path id="DejaVuSans-33" d="M 2597 2516 
Q 3050 2419 3304 2112 
Q 3559 1806 3559 1356 
Q 3559 666 3084 287 
Q 2609 -91 1734 -91 
Q 1441 -91 1130 -33 
Q 819 25 488 141 
L 488 750 
Q 750 597 1062 519 
Q 1375 441 1716 441 
Q 2309 441 2620 675 
Q 2931 909 2931 1356 
Q 2931 1769 2642 2001 
Q 2353 2234 1838 2234 
L 1294 2234 
L 1294 2753 
L 1863 2753 
Q 2328 2753 2575 2939 
Q 2822 3125 2822 3475 
Q 2822 3834 2567 4026 
Q 2313 4219 1838 4219 
Q 1578 4219 1281 4162 
Q 984 4106 628 3988 
L 628 4550 
Q 988 4650 1302 4700 
Q 1616 4750 1894 4750 
Q 2613 4750 3031 4423 
Q 3450 4097 3450 3541 
Q 3450 3153 3228 2886 
Q 3006 2619 2597 2516 
z
" transform="scale(0.015625)"/>
       </defs>
       <use xlink:href="#DejaVuSans-33"/>
       <use xlink:href="#DejaVuSans-30" x="63.623047"/>
       <use xlink:href="#DejaVuSans-30" x="127.246094"/>
      </g>
     </g>
    </g>
    <g id="xtick_4">
     <g id="line2d_4">
      <g>
       <use xlink:href="#mb0d5877580" x="241.399008" y="307.584" style="stroke: #000000; stroke-width: 0.8"/>
      </g>
     </g>
     <g id="text_4">
      <!-- 350 -->
      <g transform="translate(231.855258 320.182437)scale(0.1 -0.1)">
       <use xlink:href="#DejaVuSans-33"/>
       <use xlink:href="#DejaVuSans-35" x="63.623047"/>
       <use xlink:href="#DejaVuSans-30" x="127.246094"/>
      </g>
     </g>
    </g>
    <g id="xtick_5">
     <g id="line2d_5">
      <g>
       <use xlink:href="#mb0d5877580" x="293.762402" y="307.584" style="stroke: #000000; stroke-width: 0.8"/>
      </g>
     </g>
     <g id="text_5">
      <!-- 400 -->
      <g transform="translate(284.218652 320.182437)scale(0.1 -0.1)">
       <defs>
        <path id="DejaVuSans-34" d="M 2419 4116 
L 825 1625 
L 2419 1625 
L 2419 4116 
z
M 2253 4666 
L 3047 4666 
L 3047 1625 
L 3713 1625 
L 3713 1100 
L 3047 1100 
L 3047 0 
L 2419 0 
L 2419 1100 
L 313 1100 
L 313 1709 
L 2253 4666 
z
" transform="scale(0.015625)"/>
       </defs>
       <use xlink:href="#DejaVuSans-34"/>
       <use xlink:href="#DejaVuSans-30" x="63.623047"/>
       <use xlink:href="#DejaVuSans-30" x="127.246094"/>
      </g>
     </g>
    </g>
    <g id="xtick_6">
     <g id="line2d_6">
      <g>
       <use xlink:href="#mb0d5877580" x="346.125796" y="307.584" style="stroke: #000000; stroke-width: 0.8"/>
      </g>
     </g>
     <g id="text_6">
      <!-- 450 -->
      <g transform="translate(336.582046 320.182437)scale(0.1 -0.1)">
       <use xlink:href="#DejaVuSans-34"/>
       <use xlink:href="#DejaVuSans-35" x="63.623047"/>
       <use xlink:href="#DejaVuSans-30" x="127.246094"/>
      </g>
     </g>
    </g>
    <g id="xtick_7">
     <g id="line2d_7">
      <g>
       <use xlink:href="#mb0d5877580" x="398.48919" y="307.584" style="stroke: #000000; stroke-width: 0.8"/>
      </g>
     </g>
     <g id="text_7">
      <!-- 500 -->
      <g transform="translate(388.94544 320.182437)scale(0.1 -0.1)">
       <use xlink:href="#DejaVuSans-35"/>
       <use xlink:href="#DejaVuSans-30" x="63.623047"/>
       <use xlink:href="#DejaVuSans-30" x="127.246094"/>
      </g>
     </g>
    </g>
    <g id="xtick_8">
     <g id="line2d_8">
      <defs>
       <path id="m6051848f5d" d="M 0 0 
L 0 -2 
" style="stroke: #000000; stroke-width: 0.6"/>
      </defs>
      <g>
       <use xlink:href="#m6051848f5d" x="63.363468" y="307.584" style="stroke: #000000; stroke-width: 0.6"/>
      </g>
     </g>
    </g>
    <g id="xtick_9">
     <g id="line2d_9">
      <g>
       <use xlink:href="#m6051848f5d" x="73.836147" y="307.584" style="stroke: #000000; stroke-width: 0.6"/>
      </g>
     </g>
    </g>
    <g id="xtick_10">
     <g id="line2d_10">
      <g>
       <use xlink:href="#m6051848f5d" x="94.781505" y="307.584" style="stroke: #000000; stroke-width: 0.6"/>
      </g>
     </g>
    </g>
    <g id="xtick_11">
     <g id="line2d_11">
      <g>
       <use xlink:href="#m6051848f5d" x="105.254183" y="307.584" style="stroke: #000000; stroke-width: 0.6"/>
      </g>
     </g>
    </g>
    <g id="xtick_12">
     <g id="line2d_12">
      <g>
       <use xlink:href="#m6051848f5d" x="115.726862" y="307.584" style="stroke: #000000; stroke-width: 0.6"/>
      </g>
     </g>
    </g>
    <g id="xtick_13">
     <g id="line2d_13">
      <g>
       <use xlink:href="#m6051848f5d" x="126.199541" y="307.584" style="stroke: #000000; stroke-width: 0.6"/>
      </g>
     </g>
    </g>
    <g id="xtick_14">
     <g id="line2d_14">
      <g>
       <use xlink:href="#m6051848f5d" x="147.144899" y="307.584" style="stroke: #000000; stroke-width: 0.6"/>
      </g>
     </g>
    </g>
    <g id="xtick_15">
     <g id="line2d_15">
      <g>
       <use xlink:href="#m6051848f5d" x="157.617578" y="307.584" style="stroke: #000000; stroke-width: 0.6"/>
      </g>
     </g>
    </g>
    <g id="xtick_16">
     <g id="line2d_16">
      <g>
       <use xlink:href="#m6051848f5d" x="168.090256" y="307.584" style="stroke: #000000; stroke-width: 0.6"/>
      </g>
     </g>
    </g>
    <g id="xtick_17">
     <g id="line2d_17">
      <g>
       <use xlink:href="#m6051848f5d" x="178.562935" y="307.584" style="stroke: #000000; stroke-width: 0.6"/>
      </g>
     </g>
    </g>
    <g id="xtick_18">
     <g id="line2d_18">
      <g>
       <use xlink:href="#m6051848f5d" x="199.508293" y="307.584" style="stroke: #000000; stroke-width: 0.6"/>
      </g>
     </g>
    </g>
    <g id="xtick_19">
     <g id="line2d_19">
      <g>
       <use xlink:href="#m6051848f5d" x="209.980972" y="307.584" style="stroke: #000000; stroke-width: 0.6"/>
      </g>
     </g>
    </g>
    <g id="xtick_20">
     <g id="line2d_20">
      <g>
       <use xlink:href="#m6051848f5d" x="220.45365" y="307.584" style="stroke: #000000; stroke-width: 0.6"/>
      </g>
     </g>
    </g>
    <g id="xtick_21">
     <g id="line2d_21">
      <g>
       <use xlink:href="#m6051848f5d" x="230.926329" y="307.584" style="stroke: #000000; stroke-width: 0.6"/>
      </g>
     </g>
    </g>
    <g id="xtick_22">
     <g id="line2d_22">
      <g>
       <use xlink:href="#m6051848f5d" x="251.871687" y="307.584" style="stroke: #000000; stroke-width: 0.6"/>
      </g>
     </g>
    </g>
    <g id="xtick_23">
     <g id="line2d_23">
      <g>
       <use xlink:href="#m6051848f5d" x="262.344366" y="307.584" style="stroke: #000000; stroke-width: 0.6"/>
      </g>
     </g>
    </g>
    <g id="xtick_24">
     <g id="line2d_24">
      <g>
       <use xlink:href="#m6051848f5d" x="272.817045" y="307.584" style="stroke: #000000; stroke-width: 0.6"/>
      </g>
     </g>
    </g>
    <g id="xtick_25">
     <g id="line2d_25">
      <g>
       <use xlink:href="#m6051848f5d" x="283.289723" y="307.584" style="stroke: #000000; stroke-width: 0.6"/>
      </g>
     </g>
    </g>
    <g id="xtick_26">
     <g id="line2d_26">
      <g>
       <use xlink:href="#m6051848f5d" x="304.235081" y="307.584" style="stroke: #000000; stroke-width: 0.6"/>
      </g>
     </g>
    </g>
    <g id="xtick_27">
     <g id="line2d_27">
      <g>
       <use xlink:href="#m6051848f5d" x="314.70776" y="307.584" style="stroke: #000000; stroke-width: 0.6"/>
      </g>
     </g>
    </g>
    <g id="xtick_28">
     <g id="line2d_28">
      <g>
       <use xlink:href="#m6051848f5d" x="325.180439" y="307.584" style="stroke: #000000; stroke-width: 0.6"/>
      </g>
     </g>
    </g>
    <g id="xtick_29">
     <g id="line2d_29">
      <g>
       <use xlink:href="#m6051848f5d" x="335.653117" y="307.584" style="stroke: #000000; stroke-width: 0.6"/>
      </g>
     </g>
    </g>
    <g id="xtick_30">
     <g id="line2d_30">
      <g>
       <use xlink:href="#m6051848f5d" x="356.598475" y="307.584" style="stroke: #000000; stroke-width: 0.6"/>
      </g>
     </g>
    </g>
    <g id="xtick_31">
     <g id="line2d_31">
      <g>
       <use xlink:href="#m6051848f5d" x="367.071154" y="307.584" style="stroke: #000000; stroke-width: 0.6"/>
      </g>
     </g>
    </g>
    <g id="xtick_32">
     <g id="line2d_32">
      <g>
       <use xlink:href="#m6051848f5d" x="377.543833" y="307.584" style="stroke: #000000; stroke-width: 0.6"/>
      </g>
     </g>
    </g>
    <g id="xtick_33">
     <g id="line2d_33">
      <g>
       <use xlink:href="#m6051848f5d" x="388.016512" y="307.584" style="stroke: #000000; stroke-width: 0.6"/>
      </g>
     </g>
    </g>
    <g id="xtick_34">
     <g id="line2d_34">
      <g>
       <use xlink:href="#m6051848f5d" x="408.961869" y="307.584" style="stroke: #000000; stroke-width: 0.6"/>
      </g>
     </g>
    </g>
    <g id="text_8">
     <!-- nm -->
     <g transform="translate(228.120937 333.860562)scale(0.1 -0.1)">
      <defs>
       <path id="DejaVuSans-6e" d="M 3513 2113 
L 3513 0 
L 2938 0 
L 2938 2094 
Q 2938 2591 2744 2837 
Q 2550 3084 2163 3084 
Q 1697 3084 1428 2787 
Q 1159 2491 1159 1978 
L 1159 0 
L 581 0 
L 581 3500 
L 1159 3500 
L 1159 2956 
Q 1366 3272 1645 3428 
Q 1925 3584 2291 3584 
Q 2894 3584 3203 3211 
Q 3513 2838 3513 2113 
z
" transform="scale(0.015625)"/>
       <path id="DejaVuSans-6d" d="M 3328 2828 
Q 3544 3216 3844 3400 
Q 4144 3584 4550 3584 
Q 5097 3584 5394 3201 
Q 5691 2819 5691 2113 
L 5691 0 
L 5113 0 
L 5113 2094 
Q 5113 2597 4934 2840 
Q 4756 3084 4391 3084 
Q 3944 3084 3684 2787 
Q 3425 2491 3425 1978 
L 3425 0 
L 2847 0 
L 2847 2094 
Q 2847 2600 2669 2842 
Q 2491 3084 2119 3084 
Q 1678 3084 1418 2786 
Q 1159 2488 1159 1978 
L 1159 0 
L 581 0 
L 581 3500 
L 1159 3500 
L 1159 2956 
Q 1356 3278 1631 3431 
Q 1906 3584 2284 3584 
Q 2666 3584 2933 3390 
Q 3200 3197 3328 2828 
z
" transform="scale(0.015625)"/>
      </defs>
      <use xlink:href="#DejaVuSans-6e"/>
      <use xlink:href="#DejaVuSans-6d" x="63.378906"/>
     </g>
    </g>
   </g>
   <g id="matplotlib.axis_2">
    <g id="ytick_1">
     <g id="line2d_35">
      <defs>
       <path id="m7c21b6fbbd" d="M 0 0 
L 3.5 0 
" style="stroke: #000000; stroke-width: 0.8"/>
      </defs>
      <g>
       <use xlink:href="#m7c21b6fbbd" x="57.6" y="297.075567" style="stroke: #000000; stroke-width: 0.8"/>
      </g>
     </g>
     <g id="text_9">
      <!-- 0 -->
      <g transform="translate(46.2375 300.874786)scale(0.1 -0.1)">
       <use xlink:href="#DejaVuSans-30"/>
      </g>
     </g>
    </g>
    <g id="ytick_2">
     <g id="line2d_36">
      <g>
       <use xlink:href="#m7c21b6fbbd" x="57.6" y="242.994831" style="stroke: #000000; stroke-width: 0.8"/>
      </g>
     </g>
     <g id="text_10">
      <!-- 1 -->
      <g transform="translate(46.2375 246.79405)scale(0.1 -0.1)">
       <defs>
        <path id="DejaVuSans-31" d="M 794 531 
L 1825 531 
L 1825 4091 
L 703 3866 
L 703 4441 
L 1819 4666 
L 2450 4666 
L 2450 531 
L 3481 531 
L 3481 0 
L 794 0 
L 794 531 
z
" transform="scale(0.015625)"/>
       </defs>
       <use xlink:href="#DejaVuSans-31"/>
      </g>
     </g>
    </g>
    <g id="ytick_3">
     <g id="line2d_37">
      <g>
       <use xlink:href="#m7c21b6fbbd" x="57.6" y="188.914096" style="stroke: #000000; stroke-width: 0.8"/>
      </g>
     </g>
     <g id="text_11">
      <!-- 2 -->
      <g transform="translate(46.2375 192.713314)scale(0.1 -0.1)">
       <use xlink:href="#DejaVuSans-32"/>
      </g>
     </g>
    </g>
    <g id="ytick_4">
     <g id="line2d_38">
      <g>
       <use xlink:href="#m7c21b6fbbd" x="57.6" y="134.83336" style="stroke: #000000; stroke-width: 0.8"/>
      </g>
     </g>
     <g id="text_12">
      <!-- 3 -->
      <g transform="translate(46.2375 138.632579)scale(0.1 -0.1)">
       <use xlink:href="#DejaVuSans-33"/>
      </g>
     </g>
    </g>
    <g id="ytick_5">
     <g id="line2d_39">
      <g>
       <use xlink:href="#m7c21b6fbbd" x="57.6" y="80.752624" style="stroke: #000000; stroke-width: 0.8"/>
      </g>
     </g>
     <g id="text_13">
      <!-- 4 -->
      <g transform="translate(46.2375 84.551843)scale(0.1 -0.1)">
       <use xlink:href="#DejaVuSans-34"/>
      </g>
     </g>
    </g>
    <g id="ytick_6">
     <g id="line2d_40">
      <defs>
       <path id="mc5c6e841c5" d="M 0 0 
L 2 0 
" style="stroke: #000000; stroke-width: 0.6"/>
      </defs>
      <g>
       <use xlink:href="#mc5c6e841c5" x="57.6" y="286.25942" style="stroke: #000000; stroke-width: 0.6"/>
      </g>
     </g>
    </g>
    <g id="ytick_7">
     <g id="line2d_41">
      <g>
       <use xlink:href="#mc5c6e841c5" x="57.6" y="275.443273" style="stroke: #000000; stroke-width: 0.6"/>
      </g>
     </g>
    </g>
    <g id="ytick_8">
     <g id="line2d_42">
      <g>
       <use xlink:href="#mc5c6e841c5" x="57.6" y="264.627126" style="stroke: #000000; stroke-width: 0.6"/>
      </g>
     </g>
    </g>
    <g id="ytick_9">
     <g id="line2d_43">
      <g>
       <use xlink:href="#mc5c6e841c5" x="57.6" y="253.810979" style="stroke: #000000; stroke-width: 0.6"/>
      </g>
     </g>
    </g>
    <g id="ytick_10">
     <g id="line2d_44">
      <g>
       <use xlink:href="#mc5c6e841c5" x="57.6" y="232.178684" style="stroke: #000000; stroke-width: 0.6"/>
      </g>
     </g>
    </g>
    <g id="ytick_11">
     <g id="line2d_45">
      <g>
       <use xlink:href="#mc5c6e841c5" x="57.6" y="221.362537" style="stroke: #000000; stroke-width: 0.6"/>
      </g>
     </g>
    </g>
    <g id="ytick_12">
     <g id="line2d_46">
      <g>
       <use xlink:href="#mc5c6e841c5" x="57.6" y="210.54639" style="stroke: #000000; stroke-width: 0.6"/>
      </g>
     </g>
    </g>
    <g id="ytick_13">
     <g id="line2d_47">
      <g>
       <use xlink:href="#mc5c6e841c5" x="57.6" y="199.730243" style="stroke: #000000; stroke-width: 0.6"/>
      </g>
     </g>
    </g>
    <g id="ytick_14">
     <g id="line2d_48">
      <g>
       <use xlink:href="#mc5c6e841c5" x="57.6" y="178.097949" style="stroke: #000000; stroke-width: 0.6"/>
      </g>
     </g>
    </g>
    <g id="ytick_15">
     <g id="line2d_49">
      <g>
       <use xlink:href="#mc5c6e841c5" x="57.6" y="167.281801" style="stroke: #000000; stroke-width: 0.6"/>
      </g>
     </g>
    </g>
    <g id="ytick_16">
     <g id="line2d_50">
      <g>
       <use xlink:href="#mc5c6e841c5" x="57.6" y="156.465654" style="stroke: #000000; stroke-width: 0.6"/>
      </g>
     </g>
    </g>
    <g id="ytick_17">
     <g id="line2d_51">
      <g>
       <use xlink:href="#mc5c6e841c5" x="57.6" y="145.649507" style="stroke: #000000; stroke-width: 0.6"/>
      </g>
     </g>
    </g>
    <g id="ytick_18">
     <g id="line2d_52">
      <g>
       <use xlink:href="#mc5c6e841c5" x="57.6" y="124.017213" style="stroke: #000000; stroke-width: 0.6"/>
      </g>
     </g>
    </g>
    <g id="ytick_19">
     <g id="line2d_53">
      <g>
       <use xlink:href="#mc5c6e841c5" x="57.6" y="113.201066" style="stroke: #000000; stroke-width: 0.6"/>
      </g>
     </g>
    </g>
    <g id="ytick_20">
     <g id="line2d_54">
      <g>
       <use xlink:href="#mc5c6e841c5" x="57.6" y="102.384919" style="stroke: #000000; stroke-width: 0.6"/>
      </g>
     </g>
    </g>
    <g id="ytick_21">
     <g id="line2d_55">
      <g>
       <use xlink:href="#mc5c6e841c5" x="57.6" y="91.568771" style="stroke: #000000; stroke-width: 0.6"/>
      </g>
     </g>
    </g>
    <g id="ytick_22">
     <g id="line2d_56">
      <g>
       <use xlink:href="#mc5c6e841c5" x="57.6" y="69.936477" style="stroke: #000000; stroke-width: 0.6"/>
      </g>
     </g>
    </g>
    <g id="ytick_23">
     <g id="line2d_57">
      <g>
       <use xlink:href="#mc5c6e841c5" x="57.6" y="59.12033" style="stroke: #000000; stroke-width: 0.6"/>
      </g>
     </g>
    </g>
    <g id="ytick_24">
     <g id="line2d_58">
      <g>
       <use xlink:href="#mc5c6e841c5" x="57.6" y="48.304183" style="stroke: #000000; stroke-width: 0.6"/>
      </g>
     </g>
    </g>
    <g id="text_14">
     <!-- Abs -->
     <g transform="translate(40.157812 183.727219)rotate(-90)scale(0.1 -0.1)">
      <defs>
       <path id="DejaVuSans-41" d="M 2188 4044 
L 1331 1722 
L 3047 1722 
L 2188 4044 
z
M 1831 4666 
L 2547 4666 
L 4325 0 
L 3669 0 
L 3244 1197 
L 1141 1197 
L 716 0 
L 50 0 
L 1831 4666 
z
" transform="scale(0.015625)"/>
       <path id="DejaVuSans-62" d="M 3116 1747 
Q 3116 2381 2855 2742 
Q 2594 3103 2138 3103 
Q 1681 3103 1420 2742 
Q 1159 2381 1159 1747 
Q 1159 1113 1420 752 
Q 1681 391 2138 391 
Q 2594 391 2855 752 
Q 3116 1113 3116 1747 
z
M 1159 2969 
Q 1341 3281 1617 3432 
Q 1894 3584 2278 3584 
Q 2916 3584 3314 3078 
Q 3713 2572 3713 1747 
Q 3713 922 3314 415 
Q 2916 -91 2278 -91 
Q 1894 -91 1617 61 
Q 1341 213 1159 525 
L 1159 0 
L 581 0 
L 581 4863 
L 1159 4863 
L 1159 2969 
z
" transform="scale(0.015625)"/>
       <path id="DejaVuSans-73" d="M 2834 3397 
L 2834 2853 
Q 2591 2978 2328 3040 
Q 2066 3103 1784 3103 
Q 1356 3103 1142 2972 
Q 928 2841 928 2578 
Q 928 2378 1081 2264 
Q 1234 2150 1697 2047 
L 1894 2003 
Q 2506 1872 2764 1633 
Q 3022 1394 3022 966 
Q 3022 478 2636 193 
Q 2250 -91 1575 -91 
Q 1294 -91 989 -36 
Q 684 19 347 128 
L 347 722 
Q 666 556 975 473 
Q 1284 391 1588 391 
Q 1994 391 2212 530 
Q 2431 669 2431 922 
Q 2431 1156 2273 1281 
Q 2116 1406 1581 1522 
L 1381 1569 
Q 847 1681 609 1914 
Q 372 2147 372 2553 
Q 372 3047 722 3315 
Q 1072 3584 1716 3584 
Q 2034 3584 2315 3537 
Q 2597 3491 2834 3397 
z
" transform="scale(0.015625)"/>
      </defs>
      <use xlink:href="#DejaVuSans-41"/>
      <use xlink:href="#DejaVuSans-62" x="68.408203"/>
      <use xlink:href="#DejaVuSans-73" x="131.884766"/>
     </g>
    </g>
   </g>
   <g id="line2d_59">
    <path d="M 398.487273 294.836157 
L 392.194173 294.901772 
L 386.970522 294.964442 
L 375.467898 294.901864 
L 355.559421 294.449822 
L 292.700177 293.842092 
L 289.049441 293.586323 
L 285.396724 293.114772 
L 280.685776 292.030691 
L 279.101227 291.492489 
L 274.914521 289.466991 
L 271.782944 286.860216 
L 271.254133 286.411764 
L 269.667347 284.651562 
L 267.062632 279.978274 
L 266.004178 277.628505 
L 265.474919 275.885308 
L 264.945597 274.573025 
L 263.92754 270.913686 
L 263.39809 268.967624 
L 261.809578 261.382261 
L 260.791106 255.547167 
L 260.2614 250.956253 
L 259.731725 248.120918 
L 259.201987 243.877912 
L 258.142318 232.496322 
L 256.593373 210.660325 
L 255.533385 191.59338 
L 255.003327 177.922009 
L 253.983865 160.155274 
L 252.923525 134.547722 
L 252.393244 121.436235 
L 251.332648 104.731618 
L 250.843084 94.666341 
L 250.312674 100.26676 
L 249.782233 93.762018 
L 249.251759 99.348937 
L 248.721254 98.976834 
L 248.190717 100.810314 
L 247.700929 88.290989 
L 247.170295 100.451852 
L 246.63963 101.349277 
L 246.108933 104.610789 
L 245.578204 94.183157 
L 245.047411 89.348272 
L 244.557463 100.004796 
L 244.026606 105.903991 
L 243.495717 98.626495 
L 242.964796 96.457285 
L 242.433844 104.815209 
L 241.902827 102.465472 
L 241.412655 85.215277 
L 240.881542 103.089263 
L 240.350462 107.49927 
L 239.819317 110.553579 
L 239.288173 97.712024 
L 238.797809 92.022006 
L 238.266569 102.21212 
L 237.735232 98.343423 
L 237.203928 85.941729 
L 236.67256 100.929801 
L 236.182037 77.728681 
L 235.650604 103.962409 
L 235.119108 93.472577 
L 234.056084 103.340448 
L 233.524492 88.661791 
L 233.033809 108.354661 
L 232.502153 100.974001 
L 231.970433 91.808625 
L 231.438713 103.119925 
L 230.906961 104.846334 
L 230.416055 91.167427 
L 229.884239 90.426031 
L 229.352327 94.428089 
L 228.820448 103.067395 
L 228.288536 108.150255 
L 227.797469 92.755885 
L 227.265462 85.391278 
L 226.733423 90.28924 
L 226.201319 103.431518 
L 225.710157 92.141351 
L 225.177989 86.07139 
L 224.645822 77.234666 
L 224.113591 83.118917 
L 223.58136 98.354009 
L 223.090005 98.295703 
L 222.55771 85.746142 
L 222.025319 85.631929 
L 221.492928 94.617371 
L 220.960505 92.411838 
L 220.468991 99.596925 
L 219.936504 86.487281 
L 219.403922 101.933072 
L 218.871403 97.21819 
L 217.847146 76.734616 
L 217.314468 89.05749 
L 216.781757 80.629514 
L 216.249014 75.945074 
L 215.757213 85.27219 
L 215.224406 88.164243 
L 214.691568 81.35037 
L 214.158697 83.061204 
L 213.6668 75.273201 
L 213.133834 54.997412 
L 212.600867 95.422489 
L 212.067869 97.754651 
L 211.534807 95.372525 
L 210.509623 85.721734 
L 209.976465 94.347476 
L 209.443275 81.107412 
L 208.951122 96.242589 
L 208.417836 100.261603 
L 207.884582 84.804582 
L 207.351264 89.565276 
L 206.858951 75.614141 
L 206.32557 79.256215 
L 205.792156 79.323702 
L 205.258678 78.016523 
L 204.725232 66.555694 
L 204.23276 87.433664 
L 203.699218 78.349262 
L 203.165645 75.027728 
L 202.632007 84.1897 
L 202.139438 77.408268 
L 201.605737 84.310309 
L 201.072036 81.394145 
L 200.538302 74.828054 
L 200.045606 72.969972 
L 199.511776 66.819244 
L 198.977947 83.802459 
L 198.444086 65.814761 
L 197.951262 78.718387 
L 197.417305 78.886059 
L 196.883348 79.62467 
L 196.349327 84.527544 
L 195.856374 79.143162 
L 195.322321 67.896551 
L 194.788205 82.374826 
L 194.254088 80.107029 
L 193.761008 73.030496 
L 193.226827 73.08055 
L 192.692614 81.882745 
L 192.158369 64.984887 
L 191.665162 71.082467 
L 191.130853 54.858236 
L 190.59648 78.414685 
L 190.103209 74.536395 
L 189.568804 53.568 
L 189.034368 85.231459 
L 188.499899 81.1226 
L 188.006531 82.771918 
L 186.937403 71.244698 
L 186.402775 77.057066 
L 185.909279 72.120345 
L 185.374619 78.371594 
L 184.839927 63.372434 
L 184.305203 80.367562 
L 183.811579 70.65024 
L 183.276823 85.685735 
L 182.741971 72.97495 
L 182.248252 73.939229 
L 181.178484 86.62696 
L 180.643536 74.350981 
L 180.149753 87.805291 
L 179.614741 78.371156 
L 179.079698 82.375986 
L 178.544622 65.737192 
L 178.050711 76.88501 
L 177.515571 84.966606 
L 176.980432 84.578475 
L 175.951221 71.600284 
L 175.415986 85.691228 
L 174.880687 80.774196 
L 174.386552 82.061931 
L 173.85122 82.024087 
L 173.315857 58.513618 
L 172.821659 80.24293 
L 172.286231 88.626642 
L 171.750804 89.847342 
L 171.215313 99.697561 
L 170.720986 104.702568 
L 169.155486 139.151369 
L 168.084184 159.891027 
L 167.053983 175.869373 
L 165.487907 192.37752 
L 163.921543 203.063467 
L 163.385605 205.956268 
L 162.849666 208.116149 
L 161.818922 210.362065 
L 161.282919 210.558612 
L 160.746821 210.014311 
L 159.715821 207.734368 
L 159.179722 204.335736 
L 158.684789 200.359008 
L 158.148594 194.115663 
L 157.07611 176.782528 
L 156.044726 147.813253 
L 155.01331 103.761239 
L 154.476893 90.848678 
L 153.940475 83.672747 
L 153.445253 81.847029 
L 152.908803 86.700184 
L 152.372289 65.10676 
L 151.877004 79.867307 
L 150.803848 71.985295 
L 150.267239 92.700712 
L 149.235184 75.844837 
L 148.69851 75.264717 
L 148.203033 73.169105 
L 147.666327 65.17355 
L 147.129526 81.497064 
L 146.633985 74.276971 
L 146.097151 78.353775 
L 145.560286 87.223623 
L 145.064713 75.19148 
L 144.527784 65.106915 
L 143.990854 77.969228 
L 143.495154 74.243215 
L 142.95816 78.556105 
L 142.421151 71.659261 
L 141.925418 83.89162 
L 141.388329 71.35329 
L 140.851256 80.984701 
L 139.818258 79.075263 
L 139.281073 82.018672 
L 138.785197 81.736477 
L 138.247948 80.605402 
L 137.710683 82.340683 
L 137.21471 78.644918 
L 136.677397 88.625211 
L 136.140069 81.509945 
L 135.644048 85.606953 
L 135.106671 81.627021 
L 134.569231 78.736335 
L 134.07313 79.23739 
L 132.998153 94.679493 
L 132.501989 77.140927 
L 131.964452 72.450892 
L 131.426884 90.458897 
L 130.930608 90.021963 
L 130.392991 86.664043 
L 129.855359 87.626363 
L 129.359051 82.976827 
L 128.82137 82.854786 
L 128.283626 61.47384 
L 127.787254 67.519329 
L 127.249462 79.921177 
L 126.711653 76.655886 
L 126.215218 70.67693 
L 125.677361 68.246181 
L 125.139505 76.14645 
L 124.642941 72.460304 
L 124.105021 74.877902 
L 123.567085 66.017272 
L 123.070506 71.091132 
L 122.532505 77.864272 
L 121.99449 79.25539 
L 121.497814 75.634023 
L 120.959734 73.901347 
L 120.421638 76.116743 
L 119.924931 74.051328 
L 119.386787 75.01798 
L 118.848643 78.096878 
L 118.351808 84.501847 
L 117.8136 73.450346 
L 117.31678 77.558198 
L 116.778509 86.995286 
L 116.240205 74.036913 
L 115.74329 80.093619 
L 115.204938 76.271598 
L 114.666587 64.658956 
L 114.169639 79.984048 
L 113.631224 79.02116 
L 113.092808 97.976683 
L 112.595749 90.62644 
L 112.057286 91.874745 
L 111.51879 80.142384 
L 111.021667 85.579954 
L 110.483124 84.608337 
L 109.985985 81.781438 
L 109.447378 87.454668 
L 108.908739 84.934861 
L 108.411568 81.606687 
L 107.87288 92.556624 
L 107.334193 87.512948 
L 106.836911 88.779125 
L 106.298175 82.01354 
L 105.75944 89.996781 
L 105.26211 86.561911 
L 104.723295 93.476961 
L 104.2259 86.724244 
L 103.687069 86.251685 
L 103.148206 89.29983 
L 102.650747 85.715558 
L 102.111837 88.915967 
L 101.572894 88.480684 
L 101.075403 96.258294 
L 100.536396 92.673055 
L 99.997406 90.132334 
L 99.499851 92.316127 
L 98.960812 91.616468 
L 98.463162 87.292399 
L 97.924075 85.091586 
L 97.384989 93.71248 
L 96.887322 91.617925 
L 96.348124 88.346691 
L 95.808957 93.704989 
L 95.311243 92.251671 
L 94.771997 81.343756 
L 94.274234 92.92954 
L 93.734988 85.480387 
L 93.195677 88.257285 
L 92.697851 92.147166 
L 92.158509 88.977767 
L 91.619167 83.177571 
L 91.121277 85.325274 
L 90.581886 90.757377 
L 90.083964 89.907143 
L 89.54451 83.106423 
L 89.00504 94.654905 
L 88.507038 86.00861 
L 87.967552 89.922667 
L 87.469534 95.021889 
L 86.929968 95.757767 
L 86.390402 94.87762 
L 85.89232 95.548229 
L 85.352706 93.429163 
L 84.813076 102.983856 
L 84.31493 101.768121 
L 83.775268 92.606935 
L 83.277075 93.358944 
L 82.737365 89.414418 
L 82.197639 93.20423 
L 81.699397 93.415973 
L 81.159623 95.41189 
L 80.661334 100.779484 
L 80.121528 98.764962 
L 79.58169 95.558222 
L 79.083369 104.884848 
L 78.543483 103.647077 
L 78.045114 99.132798 
L 77.505212 100.541451 
L 76.965262 98.738039 
L 76.466845 102.474007 
L 75.926864 108.574617 
L 75.386866 106.435721 
L 74.888385 111.617695 
L 74.348355 105.029698 
L 73.849826 102.905771 
L 73.849826 102.905771 
" clip-path="url(#paa8203ee9e)" style="fill: none; stroke: #099e7d; stroke-width: 1.5; stroke-linecap: square"/>
   </g>
   <g id="line2d_60">
    <path d="M 398.487273 291.404938 
L 389.602978 291.476114 
L 378.066252 291.475944 
L 372.828347 291.367084 
L 362.898414 291.085863 
L 359.731394 291.033536 
L 354.515988 290.934011 
L 326.229049 290.65327 
L 316.298541 290.63487 
L 309.992689 290.659148 
L 295.862499 290.738404 
L 287.466842 290.714409 
L 278.044627 290.541158 
L 272.79985 290.378694 
L 247.700929 289.237438 
L 239.819317 288.353222 
L 235.650604 287.351801 
L 231.970433 286.041713 
L 230.416055 285.124725 
L 228.820448 284.004211 
L 227.797469 283.135013 
L 224.645822 279.658453 
L 224.113591 279.029718 
L 223.58136 278.02321 
L 222.55771 276.681361 
L 219.936504 272.889647 
L 218.871403 271.501235 
L 218.338788 270.595587 
L 217.847146 270.283622 
L 216.781757 269.794507 
L 215.757213 268.767424 
L 215.224406 268.549902 
L 214.691568 268.182266 
L 213.6668 267.17524 
L 213.133834 266.97583 
L 212.600867 266.601383 
L 211.534807 265.320846 
L 211.042749 265.391823 
L 210.509623 265.879588 
L 209.976465 266.055657 
L 208.951122 265.763373 
L 207.884582 266.57908 
L 207.351264 266.501839 
L 206.858951 266.306755 
L 205.258678 266.63549 
L 204.725232 266.7641 
L 204.23276 267.343056 
L 203.165645 268.972314 
L 202.632007 269.700204 
L 201.605737 270.604948 
L 201.072036 271.214005 
L 200.045606 271.727743 
L 199.511776 272.0154 
L 197.951262 273.942136 
L 196.349327 276.489879 
L 195.856374 277.137594 
L 195.322321 277.444108 
L 191.130853 281.391395 
L 190.59648 281.963308 
L 189.034368 282.86914 
L 184.839927 285.019459 
L 182.248252 285.672895 
L 179.614741 286.217167 
L 176.980432 286.365181 
L 173.315857 286.452721 
L 163.385605 285.704738 
L 160.251983 285.389518 
L 159.179722 285.310585 
L 155.01331 284.81904 
L 153.940475 284.595432 
L 151.877004 283.925313 
L 150.803848 283.378662 
L 150.267239 282.927762 
L 148.203033 280.496771 
L 147.666327 279.667113 
L 146.633985 277.264773 
L 145.560286 272.967506 
L 143.990854 263.634343 
L 142.421151 246.862275 
L 140.851256 219.24219 
L 138.247948 150.640256 
L 137.710683 133.478087 
L 137.21471 121.755938 
L 136.677397 112.90993 
L 135.644048 101.945566 
L 135.106671 95.025126 
L 134.569231 92.237204 
L 134.07313 91.502461 
L 133.535642 95.077449 
L 132.998153 100.78842 
L 132.501989 94.9273 
L 131.964452 95.365614 
L 131.426884 98.641916 
L 130.930608 98.671559 
L 129.855359 92.318861 
L 129.359051 90.430879 
L 128.82137 91.912859 
L 128.283626 91.720457 
L 127.787254 95.26031 
L 126.711653 100.584942 
L 126.215218 94.623663 
L 125.677361 97.273272 
L 125.139505 101.284498 
L 124.642941 99.946155 
L 124.105021 96.844049 
L 123.567085 95.060932 
L 123.070506 91.295876 
L 122.532505 92.096184 
L 121.99449 92.031844 
L 121.497814 91.645144 
L 120.959734 81.574466 
L 120.421638 87.110944 
L 119.924931 95.841268 
L 119.386787 93.280781 
L 118.351808 91.877517 
L 117.8136 85.630472 
L 117.31678 88.603833 
L 116.778509 93.633234 
L 116.240205 94.020308 
L 115.74329 90.462159 
L 115.204938 89.622718 
L 114.666587 87.614939 
L 114.169639 87.625396 
L 113.631224 107.841757 
L 113.092808 103.758351 
L 112.595749 112.00669 
L 112.057286 110.893022 
L 111.51879 87.105786 
L 111.021667 89.994177 
L 110.483124 89.185191 
L 109.985985 91.241347 
L 109.447378 92.91007 
L 108.908739 91.632121 
L 108.411568 94.765044 
L 107.87288 90.232545 
L 107.334193 92.784613 
L 106.836911 98.184713 
L 106.298175 92.082787 
L 105.75944 91.632263 
L 105.26211 92.412702 
L 104.723295 93.948399 
L 104.2259 96.593057 
L 103.148206 93.736914 
L 102.650747 98.681036 
L 101.572894 91.373226 
L 101.075403 94.284438 
L 100.536396 93.626491 
L 99.997406 92.631692 
L 99.499851 90.125771 
L 98.960812 93.256592 
L 98.463162 99.054983 
L 97.924075 93.293778 
L 97.384989 93.328875 
L 96.887322 94.592421 
L 96.348124 101.249478 
L 95.311243 94.420301 
L 94.771997 89.618669 
L 94.274234 98.106782 
L 93.734988 96.85711 
L 93.195677 96.889873 
L 92.697851 93.889281 
L 92.158509 95.082013 
L 91.619167 97.836811 
L 91.121277 92.918876 
L 90.581886 94.839532 
L 90.083964 98.8497 
L 89.54451 89.25719 
L 89.00504 98.470131 
L 88.507038 95.715385 
L 87.967552 94.87009 
L 87.469534 99.515113 
L 86.929968 95.198703 
L 86.390402 98.474399 
L 85.89232 103.237981 
L 85.352706 103.790186 
L 84.813076 103.895696 
L 84.31493 105.965908 
L 83.775268 97.222225 
L 83.277075 94.14632 
L 82.737365 99.422226 
L 82.197639 97.139885 
L 81.699397 97.0127 
L 81.159623 94.969953 
L 80.661334 104.163231 
L 80.121528 104.635816 
L 79.58169 104.124266 
L 79.083369 104.031765 
L 78.543483 104.693839 
L 78.045114 101.200262 
L 77.505212 100.053432 
L 76.965262 108.739349 
L 76.466845 104.859099 
L 75.926864 113.04529 
L 75.386866 113.700117 
L 74.888385 113.512924 
L 74.348355 110.567169 
L 73.849826 109.133811 
L 73.849826 109.133811 
" clip-path="url(#paa8203ee9e)" style="fill: none; stroke: #e57373; stroke-width: 1.5; stroke-linecap: square"/>
   </g>
   <g id="line2d_61">
    <path d="M 398.470813 295.290838 
L 396.40028 295.225247 
L 391.140354 295.356157 
L 389.066752 295.351023 
L 386.952465 295.488 
L 381.722837 295.463576 
L 378.606505 295.391752 
L 370.207237 295.243595 
L 368.125357 295.264311 
L 364.96099 295.121334 
L 361.834846 295.108609 
L 359.749835 295.022201 
L 357.663928 295.092361 
L 354.493488 294.934964 
L 351.361433 295.007855 
L 349.27249 294.872334 
L 346.137494 294.960094 
L 343.000804 294.882197 
L 339.822182 294.844082 
L 338.775617 294.813841 
L 336.682072 294.879186 
L 333.540205 294.83584 
L 331.444742 294.905457 
L 329.388846 294.817001 
L 326.243111 294.877929 
L 325.194182 294.797789 
L 322.046273 294.912125 
L 319.946784 294.854011 
L 317.846527 294.942621 
L 314.694816 294.93944 
L 312.633263 294.91877 
L 310.530514 294.978761 
L 308.426997 294.989504 
L 306.322873 295.030511 
L 305.270556 295.08514 
L 304.218014 294.969438 
L 296.886053 295.151053 
L 294.818619 295.119437 
L 293.764384 295.201903 
L 290.600655 295.187789 
L 285.365019 295.188833 
L 284.349871 295.079483 
L 282.237885 295.144574 
L 280.165849 295.098316 
L 279.109281 295.135237 
L 276.995665 295.010993 
L 274.922063 295.01654 
L 272.807137 294.986459 
L 267.598443 294.707127 
L 265.481279 294.662923 
L 264.422442 294.529695 
L 262.345101 294.453408 
L 256.068621 293.548009 
L 253.948005 293.106185 
L 251.867628 292.271486 
L 248.725537 290.455961 
L 241.416011 282.001788 
L 240.35369 280.431319 
L 239.291241 278.637465 
L 238.269477 275.929603 
L 236.143844 269.111838 
L 233.03611 256.470609 
L 231.972638 250.282881 
L 230.909007 242.974511 
L 229.886157 234.135704 
L 227.799131 213.379871 
L 226.734957 200.605906 
L 223.582478 151.594414 
L 222.558701 141.193562 
L 221.493823 122.636485 
L 220.469758 109.085175 
L 219.404593 111.095572 
L 218.339299 120.673216 
L 217.314819 94.963519 
L 216.24927 107.269463 
L 215.224502 102.008952 
L 214.158665 84.723028 
L 213.133706 95.163851 
L 212.067581 111.99898 
L 211.042302 108.471505 
L 208.950451 97.91233 
L 207.883783 100.391238 
L 206.857993 88.101656 
L 205.791069 108.672985 
L 204.765087 100.727445 
L 203.697908 99.871577 
L 202.630569 110.010735 
L 201.604171 104.974873 
L 200.536608 105.386148 
L 199.509955 121.076561 
L 198.442105 133.093593 
L 197.415195 147.837081 
L 194.251595 185.422737 
L 193.224206 196.686942 
L 192.196722 210.605481 
L 190.100204 231.051849 
L 188.00324 247.858251 
L 186.933983 255.350923 
L 184.836283 266.773264 
L 182.738072 275.019187 
L 181.709341 278.223313 
L 180.639382 280.867719 
L 179.610459 283.065238 
L 178.581376 284.905915 
L 176.481727 287.762387 
L 173.310776 290.132739 
L 171.251172 291.049099 
L 168.078495 291.841995 
L 165.976481 292.07553 
L 162.843306 292.152126 
L 158.677949 291.993548 
L 157.605369 291.874016 
L 156.573953 291.591818 
L 155.54241 291.037184 
L 154.469542 290.248893 
L 153.437774 288.172902 
L 152.364683 285.24466 
L 151.332724 281.291094 
L 150.300637 274.083385 
L 149.227162 259.394912 
L 147.162541 219.411892 
L 146.088746 183.058804 
L 145.056212 137.284146 
L 144.023486 114.522603 
L 142.949371 108.175862 
L 141.916517 111.430941 
L 140.842179 104.894364 
L 139.80907 95.344274 
L 138.775896 93.898113 
L 137.701287 101.185641 
L 136.667857 91.91567 
L 135.634396 70.591624 
L 134.559451 86.440631 
L 133.525718 95.232008 
L 132.491937 96.496727 
L 131.41672 90.854184 
L 130.382716 92.003632 
L 129.348632 79.462001 
L 128.314419 87.388703 
L 127.238771 102.697767 
L 126.204399 98.785321 
L 125.169915 92.128586 
L 124.093979 104.132917 
L 123.059319 72.168645 
L 122.024548 93.597222 
L 120.948308 80.874407 
L 119.913361 106.476401 
L 118.878318 94.031255 
L 117.801791 86.846246 
L 116.766572 94.742982 
L 115.731241 89.727661 
L 114.695846 94.255195 
L 113.618903 101.771383 
L 112.583301 120.870736 
L 111.547619 80.06417 
L 110.47042 59.470187 
L 109.434562 83.797778 
L 108.398592 98.7961 
L 107.362558 100.01925 
L 106.284976 96.234634 
L 105.24875 99.324645 
L 104.212445 101.65459 
L 103.176075 94.7718 
L 102.09811 93.021292 
L 101.061564 99.093575 
L 100.024891 71.253852 
L 98.98817 86.370991 
L 97.909869 70.261 
L 96.87294 99.628025 
L 94.798859 85.816994 
L 93.720222 101.767966 
L 92.682974 97.132652 
L 91.645662 85.383941 
L 90.608237 71.878431 
L 89.529249 91.997894 
L 88.491665 96.405825 
L 87.454017 99.041522 
L 86.416289 96.804735 
L 85.336966 106.170933 
L 84.299062 107.082941 
L 83.261079 97.431609 
L 82.223031 96.899982 
L 81.184904 104.938667 
L 80.105165 108.615001 
L 79.066861 89.789139 
L 78.02851 105.453467 
L 76.990048 115.882169 
L 75.909989 122.45543 
L 74.871382 108.880086 
L 73.832727 105.471764 
L 73.832727 105.471764 
" clip-path="url(#paa8203ee9e)" style="fill: none; stroke: #64b5f6; stroke-width: 1.5; stroke-linecap: square"/>
   </g>
   <g id="line2d_62">
    <path d="M 398.487273 283.416317 
L 396.934652 283.419651 
L 391.676036 283.472753 
L 391.157804 283.585593 
L 390.639603 283.425486 
L 387.489138 283.449716 
L 386.970522 283.569955 
L 385.93313 283.323942 
L 383.817788 283.379152 
L 383.29882 283.524075 
L 379.105178 283.267052 
L 378.066252 283.331934 
L 371.268056 283.15399 
L 370.747778 283.263046 
L 368.105957 283.069209 
L 367.585392 283.115303 
L 367.064858 282.997619 
L 364.981988 283.022948 
L 364.461166 282.900297 
L 361.816246 282.838919 
L 360.773964 282.76958 
L 357.645839 282.784526 
L 356.602758 282.641681 
L 355.0378 282.561354 
L 351.866274 282.543546 
L 350.822042 282.510351 
L 345.598295 282.480906 
L 343.507467 282.452496 
L 342.9846 282.373716 
L 341.938834 282.437591 
L 338.800258 282.270168 
L 337.230347 282.273601 
L 336.706937 282.21989 
L 336.183527 282.30922 
L 335.659989 282.274182 
L 335.136419 282.414235 
L 334.089215 282.218167 
L 330.94642 282.163473 
L 330.422435 282.343366 
L 329.374432 282.136012 
L 327.801932 282.104512 
L 325.180311 282.023368 
L 322.032754 282.035483 
L 321.508002 281.970107 
L 320.458433 282.004414 
L 319.408576 281.981416 
L 318.8836 281.868426 
L 316.783311 282.007352 
L 315.773245 281.89142 
L 312.620894 281.925386 
L 305.825734 281.818336 
L 305.299639 281.750236 
L 304.77348 281.816697 
L 303.720939 281.788967 
L 301.615537 281.803247 
L 298.982698 281.720329 
L 294.808551 281.805275 
L 291.158998 281.706742 
L 289.57691 281.726455 
L 287.466842 281.613464 
L 286.411552 281.712017 
L 284.341146 281.473194 
L 283.285345 281.520864 
L 271.254133 280.838291 
L 270.725225 280.634181 
L 268.609308 280.566959 
L 267.591795 280.542828 
L 267.062632 280.50136 
L 266.004178 280.549514 
L 264.945597 280.495027 
L 263.39809 280.294354 
L 260.791106 280.174435 
L 259.731725 279.969451 
L 257.123335 279.854981 
L 256.593373 279.7449 
L 255.533385 279.762653 
L 253.983865 279.255672 
L 253.453743 279.359845 
L 251.862962 279.214984 
L 251.332648 279.338741 
L 250.312674 279.015983 
L 249.782233 278.841821 
L 249.251759 278.943749 
L 248.721254 278.928155 
L 247.170295 278.539478 
L 244.557463 278.130749 
L 240.881542 277.484869 
L 239.288173 277.142071 
L 237.735232 276.593219 
L 236.67256 276.078142 
L 234.587612 275.328443 
L 231.970433 273.973099 
L 229.352327 271.837724 
L 228.820448 271.175641 
L 227.797469 270.152466 
L 225.177989 266.133729 
L 223.090005 262.48659 
L 219.403922 254.555904 
L 217.847146 252.045403 
L 217.314468 251.346744 
L 216.781757 250.851671 
L 216.249014 250.520525 
L 214.691568 249.044666 
L 213.6668 248.15695 
L 213.133834 247.413074 
L 211.534807 245.978627 
L 210.509623 245.680963 
L 209.976465 245.683748 
L 209.443275 246.022711 
L 208.417836 246.901069 
L 207.884582 247.256649 
L 206.32557 247.221552 
L 205.258678 247.084568 
L 204.725232 247.4225 
L 203.699218 249.136196 
L 202.139438 251.972769 
L 201.072036 253.270332 
L 200.045606 253.995666 
L 198.977947 254.906736 
L 197.951262 256.353052 
L 197.417305 257.698939 
L 195.856374 260.222082 
L 190.103209 265.999756 
L 189.034368 266.662087 
L 187.471967 267.543985 
L 184.839927 268.629495 
L 184.305203 268.592084 
L 181.713368 268.997338 
L 180.149753 269.001483 
L 176.980432 268.732582 
L 175.951221 268.408072 
L 174.386552 268.072175 
L 173.315857 267.649688 
L 172.821659 267.565475 
L 167.548501 265.385721 
L 162.313696 262.514151 
L 161.818922 262.146289 
L 161.282919 261.905087 
L 159.715821 260.618568 
L 158.684789 260.186343 
L 155.508404 257.794295 
L 155.01331 257.287992 
L 154.476893 256.955012 
L 150.803848 253.195803 
L 149.235184 251.064749 
L 148.69851 250.010721 
L 147.666327 248.476756 
L 146.633985 246.543784 
L 145.064713 242.420204 
L 143.495154 237.134021 
L 142.421151 232.948432 
L 140.355411 220.848841 
L 139.818258 217.647291 
L 138.785197 210.680633 
L 136.140069 181.842617 
L 134.569231 161.476198 
L 134.07313 156.187346 
L 133.535642 151.772117 
L 132.501989 141.371703 
L 131.964452 137.960558 
L 131.426884 137.508925 
L 130.930608 135.639123 
L 130.392991 134.245993 
L 129.359051 133.614349 
L 128.82137 134.411331 
L 128.283626 133.576145 
L 127.787254 133.757265 
L 126.711653 134.743503 
L 125.677361 133.663024 
L 125.139505 134.341614 
L 124.642941 133.911978 
L 124.105021 134.739531 
L 123.070506 132.082405 
L 122.532505 133.033778 
L 121.99449 131.43641 
L 121.497814 131.442161 
L 120.959734 131.704022 
L 120.421638 131.233848 
L 119.924931 132.65515 
L 119.386787 132.205644 
L 118.848643 131.509454 
L 118.351808 131.851012 
L 117.8136 131.817436 
L 117.31678 131.163202 
L 116.778509 132.038966 
L 116.240205 131.887166 
L 115.74329 130.393994 
L 115.204938 131.694506 
L 114.666587 130.965088 
L 114.169639 130.886707 
L 113.631224 132.99128 
L 113.092808 133.532306 
L 112.595749 135.213548 
L 112.057286 134.205339 
L 111.51879 130.329563 
L 111.021667 130.896622 
L 109.447378 130.804637 
L 108.908739 130.044558 
L 108.411568 130.955869 
L 107.334193 131.945563 
L 106.298175 129.759771 
L 105.26211 130.755357 
L 104.723295 130.195029 
L 104.2259 131.631546 
L 103.687069 130.364544 
L 102.650747 131.717947 
L 102.111837 130.646713 
L 101.572894 130.404825 
L 101.075403 130.864864 
L 99.499851 130.02902 
L 98.960812 131.427552 
L 98.463162 129.955048 
L 97.924075 129.725396 
L 97.384989 130.028659 
L 96.887322 129.777371 
L 96.348124 130.138167 
L 95.808957 131.003667 
L 95.311243 129.172765 
L 94.771997 129.389434 
L 94.274234 129.798801 
L 93.734988 129.410051 
L 93.195677 129.772639 
L 92.697851 129.311336 
L 92.158509 129.004165 
L 91.619167 128.015284 
L 91.121277 127.857167 
L 90.581886 127.064853 
L 90.083964 127.125286 
L 89.54451 125.789406 
L 89.00504 128.1983 
L 88.507038 127.454092 
L 87.967552 126.289481 
L 87.469534 124.060082 
L 86.929968 124.715464 
L 86.390402 124.675416 
L 85.89232 123.20473 
L 85.352706 122.523909 
L 84.813076 123.224084 
L 84.31493 121.986519 
L 83.775268 120.063117 
L 83.277075 122.682903 
L 82.737365 120.551433 
L 82.197639 120.492611 
L 81.699397 121.394188 
L 81.159623 120.709666 
L 80.661334 119.852973 
L 80.121528 123.689139 
L 79.58169 120.474818 
L 79.083369 122.474989 
L 78.045114 124.811059 
L 77.505212 124.539643 
L 76.466845 127.371236 
L 75.386866 131.600626 
L 74.888385 130.757536 
L 74.348355 129.244481 
L 73.849826 129.537623 
L 73.849826 129.537623 
" clip-path="url(#paa8203ee9e)" style="fill: none; stroke: #b366ff; stroke-width: 1.5; stroke-linecap: square"/>
   </g>
   <g id="patch_3">
    <path d="M 57.6 307.584 
L 57.6 41.472 
" style="fill: none; stroke: #000000; stroke-width: 0.8; stroke-linejoin: miter; stroke-linecap: square"/>
   </g>
   <g id="patch_4">
    <path d="M 414.72 307.584 
L 414.72 41.472 
" style="fill: none; stroke: #000000; stroke-width: 0.8; stroke-linejoin: miter; stroke-linecap: square"/>
   </g>
   <g id="patch_5">
    <path d="M 57.6 307.584 
L 414.72 307.584 
" style="fill: none; stroke: #000000; stroke-width: 0.8; stroke-linejoin: miter; stroke-linecap: square"/>
   </g>
   <g id="patch_6">
    <path d="M 57.6 41.472 
L 414.72 41.472 
" style="fill: none; stroke: #000000; stroke-width: 0.8; stroke-linejoin: miter; stroke-linecap: square"/>
   </g>
   <g id="text_15">
    <!-- UV-Vis: CS₂ -->
    <g transform="translate(203.110312 35.472)scale(0.12 -0.12)">
     <defs>
      <path id="DejaVuSans-55" d="M 556 4666 
L 1191 4666 
L 1191 1831 
Q 1191 1081 1462 751 
Q 1734 422 2344 422 
Q 2950 422 3222 751 
Q 3494 1081 3494 1831 
L 3494 4666 
L 4128 4666 
L 4128 1753 
Q 4128 841 3676 375 
Q 3225 -91 2344 -91 
Q 1459 -91 1007 375 
Q 556 841 556 1753 
L 556 4666 
z
" transform="scale(0.015625)"/>
      <path id="DejaVuSans-56" d="M 1831 0 
L 50 4666 
L 709 4666 
L 2188 738 
L 3669 4666 
L 4325 4666 
L 2547 0 
L 1831 0 
z
" transform="scale(0.015625)"/>
      <path id="DejaVuSans-2d" d="M 313 2009 
L 1997 2009 
L 1997 1497 
L 313 1497 
L 313 2009 
z
" transform="scale(0.015625)"/>
      <path id="DejaVuSans-69" d="M 603 3500 
L 1178 3500 
L 1178 0 
L 603 0 
L 603 3500 
z
M 603 4863 
L 1178 4863 
L 1178 4134 
L 603 4134 
L 603 4863 
z
" transform="scale(0.015625)"/>
      <path id="DejaVuSans-3a" d="M 750 794 
L 1409 794 
L 1409 0 
L 750 0 
L 750 794 
z
M 750 3309 
L 1409 3309 
L 1409 2516 
L 750 2516 
L 750 3309 
z
" transform="scale(0.015625)"/>
      <path id="DejaVuSans-20" transform="scale(0.015625)"/>
      <path id="DejaVuSans-43" d="M 4122 4306 
L 4122 3641 
Q 3803 3938 3442 4084 
Q 3081 4231 2675 4231 
Q 1875 4231 1450 3742 
Q 1025 3253 1025 2328 
Q 1025 1406 1450 917 
Q 1875 428 2675 428 
Q 3081 428 3442 575 
Q 3803 722 4122 1019 
L 4122 359 
Q 3791 134 3420 21 
Q 3050 -91 2638 -91 
Q 1578 -91 968 557 
Q 359 1206 359 2328 
Q 359 3453 968 4101 
Q 1578 4750 2638 4750 
Q 3056 4750 3426 4639 
Q 3797 4528 4122 4306 
z
" transform="scale(0.015625)"/>
      <path id="DejaVuSans-53" d="M 3425 4513 
L 3425 3897 
Q 3066 4069 2747 4153 
Q 2428 4238 2131 4238 
Q 1616 4238 1336 4038 
Q 1056 3838 1056 3469 
Q 1056 3159 1242 3001 
Q 1428 2844 1947 2747 
L 2328 2669 
Q 3034 2534 3370 2195 
Q 3706 1856 3706 1288 
Q 3706 609 3251 259 
Q 2797 -91 1919 -91 
Q 1588 -91 1214 -16 
Q 841 59 441 206 
L 441 856 
Q 825 641 1194 531 
Q 1563 422 1919 422 
Q 2459 422 2753 634 
Q 3047 847 3047 1241 
Q 3047 1584 2836 1778 
Q 2625 1972 2144 2069 
L 1759 2144 
Q 1053 2284 737 2584 
Q 422 2884 422 3419 
Q 422 4038 858 4394 
Q 1294 4750 2059 4750 
Q 2388 4750 2728 4690 
Q 3069 4631 3425 4513 
z
" transform="scale(0.015625)"/>
      <path id="DejaVuSans-2082" d="M 838 356 
L 2163 356 
L 2163 0 
L 294 0 
L 294 343 
Q 400 440 597 615 
Q 1672 1568 1672 1862 
Q 1672 2068 1509 2194 
Q 1347 2321 1081 2321 
Q 919 2321 728 2266 
Q 538 2212 313 2103 
L 313 2487 
Q 553 2575 761 2618 
Q 969 2662 1147 2662 
Q 1600 2662 1872 2456 
Q 2144 2250 2144 1912 
Q 2144 1478 1109 590 
Q 934 440 838 356 
z
" transform="scale(0.015625)"/>
     </defs>
     <use xlink:href="#DejaVuSans-55"/>
     <use xlink:href="#DejaVuSans-56" x="73.193359"/>
     <use xlink:href="#DejaVuSans-2d" x="135.726562"/>
     <use xlink:href="#DejaVuSans-56" x="165.935547"/>
     <use xlink:href="#DejaVuSans-69" x="232.09375"/>
     <use xlink:href="#DejaVuSans-73" x="259.876953"/>
     <use xlink:href="#DejaVuSans-3a" x="311.976562"/>
     <use xlink:href="#DejaVuSans-20" x="345.667969"/>
     <use xlink:href="#DejaVuSans-43" x="377.455078"/>
     <use xlink:href="#DejaVuSans-53" x="447.279297"/>
     <use xlink:href="#DejaVuSans-2082" x="510.755859"/>
    </g>
   </g>
   <g id="legend_1">
    <g id="patch_7">
     <path d="M 309.424688 108.1845 
L 407.72 108.1845 
Q 409.72 108.1845 409.72 106.1845 
L 409.72 48.472 
Q 409.72 46.472 407.72 46.472 
L 309.424688 46.472 
Q 307.424688 46.472 307.424688 48.472 
L 307.424688 106.1845 
Q 307.424688 108.1845 309.424688 108.1845 
z
" style="fill: #ffffff; opacity: 0.8; stroke: #cccccc; stroke-linejoin: miter"/>
    </g>
    <g id="line2d_63">
     <path d="M 311.424688 54.570438 
L 321.424688 54.570438 
L 331.424688 54.570438 
" style="fill: none; stroke: #099e7d; stroke-width: 1.5; stroke-linecap: square"/>
    </g>
    <g id="text_16">
     <!-- 1mm full -->
     <g transform="translate(339.424688 58.070438)scale(0.1 -0.1)">
      <defs>
       <path id="DejaVuSans-66" d="M 2375 4863 
L 2375 4384 
L 1825 4384 
Q 1516 4384 1395 4259 
Q 1275 4134 1275 3809 
L 1275 3500 
L 2222 3500 
L 2222 3053 
L 1275 3053 
L 1275 0 
L 697 0 
L 697 3053 
L 147 3053 
L 147 3500 
L 697 3500 
L 697 3744 
Q 697 4328 969 4595 
Q 1241 4863 1831 4863 
L 2375 4863 
z
" transform="scale(0.015625)"/>
       <path id="DejaVuSans-75" d="M 544 1381 
L 544 3500 
L 1119 3500 
L 1119 1403 
Q 1119 906 1312 657 
Q 1506 409 1894 409 
Q 2359 409 2629 706 
Q 2900 1003 2900 1516 
L 2900 3500 
L 3475 3500 
L 3475 0 
L 2900 0 
L 2900 538 
Q 2691 219 2414 64 
Q 2138 -91 1772 -91 
Q 1169 -91 856 284 
Q 544 659 544 1381 
z
M 1991 3584 
L 1991 3584 
z
" transform="scale(0.015625)"/>
       <path id="DejaVuSans-6c" d="M 603 4863 
L 1178 4863 
L 1178 0 
L 603 0 
L 603 4863 
z
" transform="scale(0.015625)"/>
      </defs>
      <use xlink:href="#DejaVuSans-31"/>
      <use xlink:href="#DejaVuSans-6d" x="63.623047"/>
      <use xlink:href="#DejaVuSans-6d" x="161.035156"/>
      <use xlink:href="#DejaVuSans-20" x="258.447266"/>
      <use xlink:href="#DejaVuSans-66" x="290.234375"/>
      <use xlink:href="#DejaVuSans-75" x="325.439453"/>
      <use xlink:href="#DejaVuSans-6c" x="388.818359"/>
      <use xlink:href="#DejaVuSans-6c" x="416.601562"/>
     </g>
    </g>
    <g id="line2d_64">
     <path d="M 311.424688 69.248563 
L 321.424688 69.248563 
L 331.424688 69.248563 
" style="fill: none; stroke: #e57373; stroke-width: 1.5; stroke-linecap: square"/>
    </g>
    <g id="text_17">
     <!-- 1mm vapor -->
     <g transform="translate(339.424688 72.748563)scale(0.1 -0.1)">
      <defs>
       <path id="DejaVuSans-76" d="M 191 3500 
L 800 3500 
L 1894 563 
L 2988 3500 
L 3597 3500 
L 2284 0 
L 1503 0 
L 191 3500 
z
" transform="scale(0.015625)"/>
       <path id="DejaVuSans-61" d="M 2194 1759 
Q 1497 1759 1228 1600 
Q 959 1441 959 1056 
Q 959 750 1161 570 
Q 1363 391 1709 391 
Q 2188 391 2477 730 
Q 2766 1069 2766 1631 
L 2766 1759 
L 2194 1759 
z
M 3341 1997 
L 3341 0 
L 2766 0 
L 2766 531 
Q 2569 213 2275 61 
Q 1981 -91 1556 -91 
Q 1019 -91 701 211 
Q 384 513 384 1019 
Q 384 1609 779 1909 
Q 1175 2209 1959 2209 
L 2766 2209 
L 2766 2266 
Q 2766 2663 2505 2880 
Q 2244 3097 1772 3097 
Q 1472 3097 1187 3025 
Q 903 2953 641 2809 
L 641 3341 
Q 956 3463 1253 3523 
Q 1550 3584 1831 3584 
Q 2591 3584 2966 3190 
Q 3341 2797 3341 1997 
z
" transform="scale(0.015625)"/>
       <path id="DejaVuSans-70" d="M 1159 525 
L 1159 -1331 
L 581 -1331 
L 581 3500 
L 1159 3500 
L 1159 2969 
Q 1341 3281 1617 3432 
Q 1894 3584 2278 3584 
Q 2916 3584 3314 3078 
Q 3713 2572 3713 1747 
Q 3713 922 3314 415 
Q 2916 -91 2278 -91 
Q 1894 -91 1617 61 
Q 1341 213 1159 525 
z
M 3116 1747 
Q 3116 2381 2855 2742 
Q 2594 3103 2138 3103 
Q 1681 3103 1420 2742 
Q 1159 2381 1159 1747 
Q 1159 1113 1420 752 
Q 1681 391 2138 391 
Q 2594 391 2855 752 
Q 3116 1113 3116 1747 
z
" transform="scale(0.015625)"/>
       <path id="DejaVuSans-6f" d="M 1959 3097 
Q 1497 3097 1228 2736 
Q 959 2375 959 1747 
Q 959 1119 1226 758 
Q 1494 397 1959 397 
Q 2419 397 2687 759 
Q 2956 1122 2956 1747 
Q 2956 2369 2687 2733 
Q 2419 3097 1959 3097 
z
M 1959 3584 
Q 2709 3584 3137 3096 
Q 3566 2609 3566 1747 
Q 3566 888 3137 398 
Q 2709 -91 1959 -91 
Q 1206 -91 779 398 
Q 353 888 353 1747 
Q 353 2609 779 3096 
Q 1206 3584 1959 3584 
z
" transform="scale(0.015625)"/>
       <path id="DejaVuSans-72" d="M 2631 2963 
Q 2534 3019 2420 3045 
Q 2306 3072 2169 3072 
Q 1681 3072 1420 2755 
Q 1159 2438 1159 1844 
L 1159 0 
L 581 0 
L 581 3500 
L 1159 3500 
L 1159 2956 
Q 1341 3275 1631 3429 
Q 1922 3584 2338 3584 
Q 2397 3584 2469 3576 
Q 2541 3569 2628 3553 
L 2631 2963 
z
" transform="scale(0.015625)"/>
      </defs>
      <use xlink:href="#DejaVuSans-31"/>
      <use xlink:href="#DejaVuSans-6d" x="63.623047"/>
      <use xlink:href="#DejaVuSans-6d" x="161.035156"/>
      <use xlink:href="#DejaVuSans-20" x="258.447266"/>
      <use xlink:href="#DejaVuSans-76" x="290.234375"/>
      <use xlink:href="#DejaVuSans-61" x="349.414062"/>
      <use xlink:href="#DejaVuSans-70" x="410.693359"/>
      <use xlink:href="#DejaVuSans-6f" x="474.169922"/>
      <use xlink:href="#DejaVuSans-72" x="535.351562"/>
     </g>
    </g>
    <g id="line2d_65">
     <path d="M 311.424688 83.926688 
L 321.424688 83.926688 
L 331.424688 83.926688 
" style="fill: none; stroke: #64b5f6; stroke-width: 1.5; stroke-linecap: square"/>
    </g>
    <g id="text_18">
     <!-- 10um full -->
     <g transform="translate(339.424688 87.426688)scale(0.1 -0.1)">
      <use xlink:href="#DejaVuSans-31"/>
      <use xlink:href="#DejaVuSans-30" x="63.623047"/>
      <use xlink:href="#DejaVuSans-75" x="127.246094"/>
      <use xlink:href="#DejaVuSans-6d" x="190.625"/>
      <use xlink:href="#DejaVuSans-20" x="288.037109"/>
      <use xlink:href="#DejaVuSans-66" x="319.824219"/>
      <use xlink:href="#DejaVuSans-75" x="355.029297"/>
      <use xlink:href="#DejaVuSans-6c" x="418.408203"/>
      <use xlink:href="#DejaVuSans-6c" x="446.191406"/>
     </g>
    </g>
    <g id="line2d_66">
     <path d="M 311.424688 98.604813 
L 321.424688 98.604813 
L 331.424688 98.604813 
" style="fill: none; stroke: #b366ff; stroke-width: 1.5; stroke-linecap: square"/>
    </g>
    <g id="text_19">
     <!-- 10um bubble -->
     <g transform="translate(339.424688 102.104813)scale(0.1 -0.1)">
      <defs>
       <path id="DejaVuSans-65" d="M 3597 1894 
L 3597 1613 
L 953 1613 
Q 991 1019 1311 708 
Q 1631 397 2203 397 
Q 2534 397 2845 478 
Q 3156 559 3463 722 
L 3463 178 
Q 3153 47 2828 -22 
Q 2503 -91 2169 -91 
Q 1331 -91 842 396 
Q 353 884 353 1716 
Q 353 2575 817 3079 
Q 1281 3584 2069 3584 
Q 2775 3584 3186 3129 
Q 3597 2675 3597 1894 
z
M 3022 2063 
Q 3016 2534 2758 2815 
Q 2500 3097 2075 3097 
Q 1594 3097 1305 2825 
Q 1016 2553 972 2059 
L 3022 2063 
z
" transform="scale(0.015625)"/>
      </defs>
      <use xlink:href="#DejaVuSans-31"/>
      <use xlink:href="#DejaVuSans-30" x="63.623047"/>
      <use xlink:href="#DejaVuSans-75" x="127.246094"/>
      <use xlink:href="#DejaVuSans-6d" x="190.625"/>
      <use xlink:href="#DejaVuSans-20" x="288.037109"/>
      <use xlink:href="#DejaVuSans-62" x="319.824219"/>
      <use xlink:href="#DejaVuSans-75" x="383.300781"/>
      <use xlink:href="#DejaVuSans-62" x="446.679688"/>
      <use xlink:href="#DejaVuSans-62" x="510.15625"/>
      <use xlink:href="#DejaVuSans-6c" x="573.632812"/>
      <use xlink:href="#DejaVuSans-65" x="601.416016"/>
     </g>
    </g>
   </g>
  </g>
 </g>
 <defs>
  <clipPath id="paa8203ee9e">
   <rect x="57.6" y="41.472" width="357.12" height="266.112"/>
  </clipPath>
 </defs>
</svg>
