<?xml version="1.0" encoding="utf-8" standalone="no"?>
<!DOCTYPE svg PUBLIC "-//W3C//DTD SVG 1.1//EN"
  "http://www.w3.org/Graphics/SVG/1.1/DTD/svg11.dtd">
<svg xmlns:xlink="http://www.w3.org/1999/xlink" width="460.8pt" height="345.6pt" viewBox="0 0 460.8 345.6" xmlns="http://www.w3.org/2000/svg" version="1.1">
 <metadata>
  <rdf:RDF xmlns:dc="http://purl.org/dc/elements/1.1/" xmlns:cc="http://creativecommons.org/ns#" xmlns:rdf="http://www.w3.org/1999/02/22-rdf-syntax-ns#">
   <cc:Work>
    <dc:type rdf:resource="http://purl.org/dc/dcmitype/StillImage"/>
    <dc:date>2023-10-12T11:41:12.158281</dc:date>
    <dc:format>image/svg+xml</dc:format>
    <dc:creator>
     <cc:Agent>
      <dc:title>Matplotlib v3.5.2, https://matplotlib.org/</dc:title>
     </cc:Agent>
    </dc:creator>
   </cc:Work>
  </rdf:RDF>
 </metadata>
 <defs>
  <style type="text/css">*{stroke-linejoin: round; stroke-linecap: butt}</style>
 </defs>
 <g id="figure_1">
  <g id="patch_1">
   <path d="M 0 345.6 
L 460.8 345.6 
L 460.8 0 
L 0 0 
z
" style="fill: #ffffff"/>
  </g>
  <g id="axes_1">
   <g id="patch_2">
    <path d="M 57.6 307.584 
L 414.72 307.584 
L 414.72 41.472 
L 57.6 41.472 
z
" style="fill: #ffffff"/>
   </g>
   <g id="matplotlib.axis_1">
    <g id="xtick_1">
     <g id="line2d_1">
      <defs>
       <path id="m1636cfe09e" d="M 0 0 
L 0 -3.5 
" style="stroke: #000000; stroke-width: 0.8"/>
      </defs>
      <g>
       <use xlink:href="#m1636cfe09e" x="77.401523" y="307.584" style="stroke: #000000; stroke-width: 0.8"/>
      </g>
     </g>
     <g id="text_1">
      <!-- 200 -->
      <g transform="translate(67.857773 320.182437)scale(0.1 -0.1)">
       <defs>
        <path id="DejaVuSans-32" d="M 1228 531 
L 3431 531 
L 3431 0 
L 469 0 
L 469 531 
Q 828 903 1448 1529 
Q 2069 2156 2228 2338 
Q 2531 2678 2651 2914 
Q 2772 3150 2772 3378 
Q 2772 3750 2511 3984 
Q 2250 4219 1831 4219 
Q 1534 4219 1204 4116 
Q 875 4013 500 3803 
L 500 4441 
Q 881 4594 1212 4672 
Q 1544 4750 1819 4750 
Q 2544 4750 2975 4387 
Q 3406 4025 3406 3419 
Q 3406 3131 3298 2873 
Q 3191 2616 2906 2266 
Q 2828 2175 2409 1742 
Q 1991 1309 1228 531 
z
" transform="scale(0.015625)"/>
        <path id="DejaVuSans-30" d="M 2034 4250 
Q 1547 4250 1301 3770 
Q 1056 3291 1056 2328 
Q 1056 1369 1301 889 
Q 1547 409 2034 409 
Q 2525 409 2770 889 
Q 3016 1369 3016 2328 
Q 3016 3291 2770 3770 
Q 2525 4250 2034 4250 
z
M 2034 4750 
Q 2819 4750 3233 4129 
Q 3647 3509 3647 2328 
Q 3647 1150 3233 529 
Q 2819 -91 2034 -91 
Q 1250 -91 836 529 
Q 422 1150 422 2328 
Q 422 3509 836 4129 
Q 1250 4750 2034 4750 
z
" transform="scale(0.015625)"/>
       </defs>
       <use xlink:href="#DejaVuSans-32"/>
       <use xlink:href="#DejaVuSans-30" x="63.623047"/>
       <use xlink:href="#DejaVuSans-30" x="127.246094"/>
      </g>
     </g>
    </g>
    <g id="xtick_2">
     <g id="line2d_2">
      <g>
       <use xlink:href="#m1636cfe09e" x="148.754134" y="307.584" style="stroke: #000000; stroke-width: 0.8"/>
      </g>
     </g>
     <g id="text_2">
      <!-- 400 -->
      <g transform="translate(139.210384 320.182437)scale(0.1 -0.1)">
       <defs>
        <path id="DejaVuSans-34" d="M 2419 4116 
L 825 1625 
L 2419 1625 
L 2419 4116 
z
M 2253 4666 
L 3047 4666 
L 3047 1625 
L 3713 1625 
L 3713 1100 
L 3047 1100 
L 3047 0 
L 2419 0 
L 2419 1100 
L 313 1100 
L 313 1709 
L 2253 4666 
z
" transform="scale(0.015625)"/>
       </defs>
       <use xlink:href="#DejaVuSans-34"/>
       <use xlink:href="#DejaVuSans-30" x="63.623047"/>
       <use xlink:href="#DejaVuSans-30" x="127.246094"/>
      </g>
     </g>
    </g>
    <g id="xtick_3">
     <g id="line2d_3">
      <g>
       <use xlink:href="#m1636cfe09e" x="220.106746" y="307.584" style="stroke: #000000; stroke-width: 0.8"/>
      </g>
     </g>
     <g id="text_3">
      <!-- 600 -->
      <g transform="translate(210.562996 320.182437)scale(0.1 -0.1)">
       <defs>
        <path id="DejaVuSans-36" d="M 2113 2584 
Q 1688 2584 1439 2293 
Q 1191 2003 1191 1497 
Q 1191 994 1439 701 
Q 1688 409 2113 409 
Q 2538 409 2786 701 
Q 3034 994 3034 1497 
Q 3034 2003 2786 2293 
Q 2538 2584 2113 2584 
z
M 3366 4563 
L 3366 3988 
Q 3128 4100 2886 4159 
Q 2644 4219 2406 4219 
Q 1781 4219 1451 3797 
Q 1122 3375 1075 2522 
Q 1259 2794 1537 2939 
Q 1816 3084 2150 3084 
Q 2853 3084 3261 2657 
Q 3669 2231 3669 1497 
Q 3669 778 3244 343 
Q 2819 -91 2113 -91 
Q 1303 -91 875 529 
Q 447 1150 447 2328 
Q 447 3434 972 4092 
Q 1497 4750 2381 4750 
Q 2619 4750 2861 4703 
Q 3103 4656 3366 4563 
z
" transform="scale(0.015625)"/>
       </defs>
       <use xlink:href="#DejaVuSans-36"/>
       <use xlink:href="#DejaVuSans-30" x="63.623047"/>
       <use xlink:href="#DejaVuSans-30" x="127.246094"/>
      </g>
     </g>
    </g>
    <g id="xtick_4">
     <g id="line2d_4">
      <g>
       <use xlink:href="#m1636cfe09e" x="291.459357" y="307.584" style="stroke: #000000; stroke-width: 0.8"/>
      </g>
     </g>
     <g id="text_4">
      <!-- 800 -->
      <g transform="translate(281.915607 320.182437)scale(0.1 -0.1)">
       <defs>
        <path id="DejaVuSans-38" d="M 2034 2216 
Q 1584 2216 1326 1975 
Q 1069 1734 1069 1313 
Q 1069 891 1326 650 
Q 1584 409 2034 409 
Q 2484 409 2743 651 
Q 3003 894 3003 1313 
Q 3003 1734 2745 1975 
Q 2488 2216 2034 2216 
z
M 1403 2484 
Q 997 2584 770 2862 
Q 544 3141 544 3541 
Q 544 4100 942 4425 
Q 1341 4750 2034 4750 
Q 2731 4750 3128 4425 
Q 3525 4100 3525 3541 
Q 3525 3141 3298 2862 
Q 3072 2584 2669 2484 
Q 3125 2378 3379 2068 
Q 3634 1759 3634 1313 
Q 3634 634 3220 271 
Q 2806 -91 2034 -91 
Q 1263 -91 848 271 
Q 434 634 434 1313 
Q 434 1759 690 2068 
Q 947 2378 1403 2484 
z
M 1172 3481 
Q 1172 3119 1398 2916 
Q 1625 2713 2034 2713 
Q 2441 2713 2670 2916 
Q 2900 3119 2900 3481 
Q 2900 3844 2670 4047 
Q 2441 4250 2034 4250 
Q 1625 4250 1398 4047 
Q 1172 3844 1172 3481 
z
" transform="scale(0.015625)"/>
       </defs>
       <use xlink:href="#DejaVuSans-38"/>
       <use xlink:href="#DejaVuSans-30" x="63.623047"/>
       <use xlink:href="#DejaVuSans-30" x="127.246094"/>
      </g>
     </g>
    </g>
    <g id="xtick_5">
     <g id="line2d_5">
      <g>
       <use xlink:href="#m1636cfe09e" x="362.811969" y="307.584" style="stroke: #000000; stroke-width: 0.8"/>
      </g>
     </g>
     <g id="text_5">
      <!-- 1000 -->
      <g transform="translate(350.086969 320.182437)scale(0.1 -0.1)">
       <defs>
        <path id="DejaVuSans-31" d="M 794 531 
L 1825 531 
L 1825 4091 
L 703 3866 
L 703 4441 
L 1819 4666 
L 2450 4666 
L 2450 531 
L 3481 531 
L 3481 0 
L 794 0 
L 794 531 
z
" transform="scale(0.015625)"/>
       </defs>
       <use xlink:href="#DejaVuSans-31"/>
       <use xlink:href="#DejaVuSans-30" x="63.623047"/>
       <use xlink:href="#DejaVuSans-30" x="127.246094"/>
       <use xlink:href="#DejaVuSans-30" x="190.869141"/>
      </g>
     </g>
    </g>
    <g id="xtick_6">
     <g id="line2d_6">
      <defs>
       <path id="m8921b80159" d="M 0 0 
L 0 -2 
" style="stroke: #000000; stroke-width: 0.6"/>
      </defs>
      <g>
       <use xlink:href="#m8921b80159" x="59.56337" y="307.584" style="stroke: #000000; stroke-width: 0.6"/>
      </g>
     </g>
    </g>
    <g id="xtick_7">
     <g id="line2d_7">
      <g>
       <use xlink:href="#m8921b80159" x="95.239676" y="307.584" style="stroke: #000000; stroke-width: 0.6"/>
      </g>
     </g>
    </g>
    <g id="xtick_8">
     <g id="line2d_8">
      <g>
       <use xlink:href="#m8921b80159" x="113.077829" y="307.584" style="stroke: #000000; stroke-width: 0.6"/>
      </g>
     </g>
    </g>
    <g id="xtick_9">
     <g id="line2d_9">
      <g>
       <use xlink:href="#m8921b80159" x="130.915981" y="307.584" style="stroke: #000000; stroke-width: 0.6"/>
      </g>
     </g>
    </g>
    <g id="xtick_10">
     <g id="line2d_10">
      <g>
       <use xlink:href="#m8921b80159" x="166.592287" y="307.584" style="stroke: #000000; stroke-width: 0.6"/>
      </g>
     </g>
    </g>
    <g id="xtick_11">
     <g id="line2d_11">
      <g>
       <use xlink:href="#m8921b80159" x="184.43044" y="307.584" style="stroke: #000000; stroke-width: 0.6"/>
      </g>
     </g>
    </g>
    <g id="xtick_12">
     <g id="line2d_12">
      <g>
       <use xlink:href="#m8921b80159" x="202.268593" y="307.584" style="stroke: #000000; stroke-width: 0.6"/>
      </g>
     </g>
    </g>
    <g id="xtick_13">
     <g id="line2d_13">
      <g>
       <use xlink:href="#m8921b80159" x="237.944899" y="307.584" style="stroke: #000000; stroke-width: 0.6"/>
      </g>
     </g>
    </g>
    <g id="xtick_14">
     <g id="line2d_14">
      <g>
       <use xlink:href="#m8921b80159" x="255.783052" y="307.584" style="stroke: #000000; stroke-width: 0.6"/>
      </g>
     </g>
    </g>
    <g id="xtick_15">
     <g id="line2d_15">
      <g>
       <use xlink:href="#m8921b80159" x="273.621204" y="307.584" style="stroke: #000000; stroke-width: 0.6"/>
      </g>
     </g>
    </g>
    <g id="xtick_16">
     <g id="line2d_16">
      <g>
       <use xlink:href="#m8921b80159" x="309.29751" y="307.584" style="stroke: #000000; stroke-width: 0.6"/>
      </g>
     </g>
    </g>
    <g id="xtick_17">
     <g id="line2d_17">
      <g>
       <use xlink:href="#m8921b80159" x="327.135663" y="307.584" style="stroke: #000000; stroke-width: 0.6"/>
      </g>
     </g>
    </g>
    <g id="xtick_18">
     <g id="line2d_18">
      <g>
       <use xlink:href="#m8921b80159" x="344.973816" y="307.584" style="stroke: #000000; stroke-width: 0.6"/>
      </g>
     </g>
    </g>
    <g id="xtick_19">
     <g id="line2d_19">
      <g>
       <use xlink:href="#m8921b80159" x="380.650122" y="307.584" style="stroke: #000000; stroke-width: 0.6"/>
      </g>
     </g>
    </g>
    <g id="xtick_20">
     <g id="line2d_20">
      <g>
       <use xlink:href="#m8921b80159" x="398.488275" y="307.584" style="stroke: #000000; stroke-width: 0.6"/>
      </g>
     </g>
    </g>
    <g id="text_6">
     <!-- nm -->
     <g transform="translate(228.120937 333.860562)scale(0.1 -0.1)">
      <defs>
       <path id="DejaVuSans-6e" d="M 3513 2113 
L 3513 0 
L 2938 0 
L 2938 2094 
Q 2938 2591 2744 2837 
Q 2550 3084 2163 3084 
Q 1697 3084 1428 2787 
Q 1159 2491 1159 1978 
L 1159 0 
L 581 0 
L 581 3500 
L 1159 3500 
L 1159 2956 
Q 1366 3272 1645 3428 
Q 1925 3584 2291 3584 
Q 2894 3584 3203 3211 
Q 3513 2838 3513 2113 
z
" transform="scale(0.015625)"/>
       <path id="DejaVuSans-6d" d="M 3328 2828 
Q 3544 3216 3844 3400 
Q 4144 3584 4550 3584 
Q 5097 3584 5394 3201 
Q 5691 2819 5691 2113 
L 5691 0 
L 5113 0 
L 5113 2094 
Q 5113 2597 4934 2840 
Q 4756 3084 4391 3084 
Q 3944 3084 3684 2787 
Q 3425 2491 3425 1978 
L 3425 0 
L 2847 0 
L 2847 2094 
Q 2847 2600 2669 2842 
Q 2491 3084 2119 3084 
Q 1678 3084 1418 2786 
Q 1159 2488 1159 1978 
L 1159 0 
L 581 0 
L 581 3500 
L 1159 3500 
L 1159 2956 
Q 1356 3278 1631 3431 
Q 1906 3584 2284 3584 
Q 2666 3584 2933 3390 
Q 3200 3197 3328 2828 
z
" transform="scale(0.015625)"/>
      </defs>
      <use xlink:href="#DejaVuSans-6e"/>
      <use xlink:href="#DejaVuSans-6d" x="63.378906"/>
     </g>
    </g>
   </g>
   <g id="matplotlib.axis_2">
    <g id="ytick_1">
     <g id="line2d_21">
      <defs>
       <path id="md18e16030d" d="M 0 0 
L 3.5 0 
" style="stroke: #000000; stroke-width: 0.8"/>
      </defs>
      <g>
       <use xlink:href="#md18e16030d" x="57.6" y="294.976665" style="stroke: #000000; stroke-width: 0.8"/>
      </g>
     </g>
     <g id="text_7">
      <!-- 0 -->
      <g transform="translate(46.2375 298.775884)scale(0.1 -0.1)">
       <use xlink:href="#DejaVuSans-30"/>
      </g>
     </g>
    </g>
    <g id="ytick_2">
     <g id="line2d_22">
      <g>
       <use xlink:href="#md18e16030d" x="57.6" y="240.030274" style="stroke: #000000; stroke-width: 0.8"/>
      </g>
     </g>
     <g id="text_8">
      <!-- 1 -->
      <g transform="translate(46.2375 243.829492)scale(0.1 -0.1)">
       <use xlink:href="#DejaVuSans-31"/>
      </g>
     </g>
    </g>
    <g id="ytick_3">
     <g id="line2d_23">
      <g>
       <use xlink:href="#md18e16030d" x="57.6" y="185.083882" style="stroke: #000000; stroke-width: 0.8"/>
      </g>
     </g>
     <g id="text_9">
      <!-- 2 -->
      <g transform="translate(46.2375 188.883101)scale(0.1 -0.1)">
       <use xlink:href="#DejaVuSans-32"/>
      </g>
     </g>
    </g>
    <g id="ytick_4">
     <g id="line2d_24">
      <g>
       <use xlink:href="#md18e16030d" x="57.6" y="130.137491" style="stroke: #000000; stroke-width: 0.8"/>
      </g>
     </g>
     <g id="text_10">
      <!-- 3 -->
      <g transform="translate(46.2375 133.93671)scale(0.1 -0.1)">
       <defs>
        <path id="DejaVuSans-33" d="M 2597 2516 
Q 3050 2419 3304 2112 
Q 3559 1806 3559 1356 
Q 3559 666 3084 287 
Q 2609 -91 1734 -91 
Q 1441 -91 1130 -33 
Q 819 25 488 141 
L 488 750 
Q 750 597 1062 519 
Q 1375 441 1716 441 
Q 2309 441 2620 675 
Q 2931 909 2931 1356 
Q 2931 1769 2642 2001 
Q 2353 2234 1838 2234 
L 1294 2234 
L 1294 2753 
L 1863 2753 
Q 2328 2753 2575 2939 
Q 2822 3125 2822 3475 
Q 2822 3834 2567 4026 
Q 2313 4219 1838 4219 
Q 1578 4219 1281 4162 
Q 984 4106 628 3988 
L 628 4550 
Q 988 4650 1302 4700 
Q 1616 4750 1894 4750 
Q 2613 4750 3031 4423 
Q 3450 4097 3450 3541 
Q 3450 3153 3228 2886 
Q 3006 2619 2597 2516 
z
" transform="scale(0.015625)"/>
       </defs>
       <use xlink:href="#DejaVuSans-33"/>
      </g>
     </g>
    </g>
    <g id="ytick_5">
     <g id="line2d_25">
      <g>
       <use xlink:href="#md18e16030d" x="57.6" y="75.1911" style="stroke: #000000; stroke-width: 0.8"/>
      </g>
     </g>
     <g id="text_11">
      <!-- 4 -->
      <g transform="translate(46.2375 78.990319)scale(0.1 -0.1)">
       <use xlink:href="#DejaVuSans-34"/>
      </g>
     </g>
    </g>
    <g id="ytick_6">
     <g id="line2d_26">
      <defs>
       <path id="m3e7d6e2b86" d="M 0 0 
L 2 0 
" style="stroke: #000000; stroke-width: 0.6"/>
      </defs>
      <g>
       <use xlink:href="#m3e7d6e2b86" x="57.6" y="305.965943" style="stroke: #000000; stroke-width: 0.6"/>
      </g>
     </g>
    </g>
    <g id="ytick_7">
     <g id="line2d_27">
      <g>
       <use xlink:href="#m3e7d6e2b86" x="57.6" y="283.987387" style="stroke: #000000; stroke-width: 0.6"/>
      </g>
     </g>
    </g>
    <g id="ytick_8">
     <g id="line2d_28">
      <g>
       <use xlink:href="#m3e7d6e2b86" x="57.6" y="272.998108" style="stroke: #000000; stroke-width: 0.6"/>
      </g>
     </g>
    </g>
    <g id="ytick_9">
     <g id="line2d_29">
      <g>
       <use xlink:href="#m3e7d6e2b86" x="57.6" y="262.00883" style="stroke: #000000; stroke-width: 0.6"/>
      </g>
     </g>
    </g>
    <g id="ytick_10">
     <g id="line2d_30">
      <g>
       <use xlink:href="#m3e7d6e2b86" x="57.6" y="251.019552" style="stroke: #000000; stroke-width: 0.6"/>
      </g>
     </g>
    </g>
    <g id="ytick_11">
     <g id="line2d_31">
      <g>
       <use xlink:href="#m3e7d6e2b86" x="57.6" y="229.040995" style="stroke: #000000; stroke-width: 0.6"/>
      </g>
     </g>
    </g>
    <g id="ytick_12">
     <g id="line2d_32">
      <g>
       <use xlink:href="#m3e7d6e2b86" x="57.6" y="218.051717" style="stroke: #000000; stroke-width: 0.6"/>
      </g>
     </g>
    </g>
    <g id="ytick_13">
     <g id="line2d_33">
      <g>
       <use xlink:href="#m3e7d6e2b86" x="57.6" y="207.062439" style="stroke: #000000; stroke-width: 0.6"/>
      </g>
     </g>
    </g>
    <g id="ytick_14">
     <g id="line2d_34">
      <g>
       <use xlink:href="#m3e7d6e2b86" x="57.6" y="196.073161" style="stroke: #000000; stroke-width: 0.6"/>
      </g>
     </g>
    </g>
    <g id="ytick_15">
     <g id="line2d_35">
      <g>
       <use xlink:href="#m3e7d6e2b86" x="57.6" y="174.094604" style="stroke: #000000; stroke-width: 0.6"/>
      </g>
     </g>
    </g>
    <g id="ytick_16">
     <g id="line2d_36">
      <g>
       <use xlink:href="#m3e7d6e2b86" x="57.6" y="163.105326" style="stroke: #000000; stroke-width: 0.6"/>
      </g>
     </g>
    </g>
    <g id="ytick_17">
     <g id="line2d_37">
      <g>
       <use xlink:href="#m3e7d6e2b86" x="57.6" y="152.116048" style="stroke: #000000; stroke-width: 0.6"/>
      </g>
     </g>
    </g>
    <g id="ytick_18">
     <g id="line2d_38">
      <g>
       <use xlink:href="#m3e7d6e2b86" x="57.6" y="141.126769" style="stroke: #000000; stroke-width: 0.6"/>
      </g>
     </g>
    </g>
    <g id="ytick_19">
     <g id="line2d_39">
      <g>
       <use xlink:href="#m3e7d6e2b86" x="57.6" y="119.148213" style="stroke: #000000; stroke-width: 0.6"/>
      </g>
     </g>
    </g>
    <g id="ytick_20">
     <g id="line2d_40">
      <g>
       <use xlink:href="#m3e7d6e2b86" x="57.6" y="108.158935" style="stroke: #000000; stroke-width: 0.6"/>
      </g>
     </g>
    </g>
    <g id="ytick_21">
     <g id="line2d_41">
      <g>
       <use xlink:href="#m3e7d6e2b86" x="57.6" y="97.169656" style="stroke: #000000; stroke-width: 0.6"/>
      </g>
     </g>
    </g>
    <g id="ytick_22">
     <g id="line2d_42">
      <g>
       <use xlink:href="#m3e7d6e2b86" x="57.6" y="86.180378" style="stroke: #000000; stroke-width: 0.6"/>
      </g>
     </g>
    </g>
    <g id="ytick_23">
     <g id="line2d_43">
      <g>
       <use xlink:href="#m3e7d6e2b86" x="57.6" y="64.201822" style="stroke: #000000; stroke-width: 0.6"/>
      </g>
     </g>
    </g>
    <g id="ytick_24">
     <g id="line2d_44">
      <g>
       <use xlink:href="#m3e7d6e2b86" x="57.6" y="53.212543" style="stroke: #000000; stroke-width: 0.6"/>
      </g>
     </g>
    </g>
    <g id="ytick_25">
     <g id="line2d_45">
      <g>
       <use xlink:href="#m3e7d6e2b86" x="57.6" y="42.223265" style="stroke: #000000; stroke-width: 0.6"/>
      </g>
     </g>
    </g>
    <g id="text_12">
     <!-- Abs -->
     <g transform="translate(40.157812 183.727219)rotate(-90)scale(0.1 -0.1)">
      <defs>
       <path id="DejaVuSans-41" d="M 2188 4044 
L 1331 1722 
L 3047 1722 
L 2188 4044 
z
M 1831 4666 
L 2547 4666 
L 4325 0 
L 3669 0 
L 3244 1197 
L 1141 1197 
L 716 0 
L 50 0 
L 1831 4666 
z
" transform="scale(0.015625)"/>
       <path id="DejaVuSans-62" d="M 3116 1747 
Q 3116 2381 2855 2742 
Q 2594 3103 2138 3103 
Q 1681 3103 1420 2742 
Q 1159 2381 1159 1747 
Q 1159 1113 1420 752 
Q 1681 391 2138 391 
Q 2594 391 2855 752 
Q 3116 1113 3116 1747 
z
M 1159 2969 
Q 1341 3281 1617 3432 
Q 1894 3584 2278 3584 
Q 2916 3584 3314 3078 
Q 3713 2572 3713 1747 
Q 3713 922 3314 415 
Q 2916 -91 2278 -91 
Q 1894 -91 1617 61 
Q 1341 213 1159 525 
L 1159 0 
L 581 0 
L 581 4863 
L 1159 4863 
L 1159 2969 
z
" transform="scale(0.015625)"/>
       <path id="DejaVuSans-73" d="M 2834 3397 
L 2834 2853 
Q 2591 2978 2328 3040 
Q 2066 3103 1784 3103 
Q 1356 3103 1142 2972 
Q 928 2841 928 2578 
Q 928 2378 1081 2264 
Q 1234 2150 1697 2047 
L 1894 2003 
Q 2506 1872 2764 1633 
Q 3022 1394 3022 966 
Q 3022 478 2636 193 
Q 2250 -91 1575 -91 
Q 1294 -91 989 -36 
Q 684 19 347 128 
L 347 722 
Q 666 556 975 473 
Q 1284 391 1588 391 
Q 1994 391 2212 530 
Q 2431 669 2431 922 
Q 2431 1156 2273 1281 
Q 2116 1406 1581 1522 
L 1381 1569 
Q 847 1681 609 1914 
Q 372 2147 372 2553 
Q 372 3047 722 3315 
Q 1072 3584 1716 3584 
Q 2034 3584 2315 3537 
Q 2597 3491 2834 3397 
z
" transform="scale(0.015625)"/>
      </defs>
      <use xlink:href="#DejaVuSans-41"/>
      <use xlink:href="#DejaVuSans-62" x="68.408203"/>
      <use xlink:href="#DejaVuSans-73" x="131.884766"/>
     </g>
    </g>
   </g>
   <g id="line2d_46">
    <path d="M 398.487273 292.377733 
L 398.130031 293.973375 
L 397.772527 294.614164 
L 397.414806 293.373641 
L 397.056737 294.750023 
L 396.708988 293.739884 
L 396.350396 293.154192 
L 395.991586 294.297819 
L 395.632472 294.456195 
L 395.273052 293.256076 
L 394.923997 294.800951 
L 394.564055 295.488 
L 394.203852 293.23531 
L 393.853969 292.840426 
L 393.493287 294.239595 
L 393.1323 294.341163 
L 392.781634 294.19601 
L 392.420123 293.782386 
L 392.068978 292.489662 
L 391.706902 293.802308 
L 391.355235 293.243787 
L 390.992636 295.122317 
L 390.640446 294.665308 
L 390.288037 295.248783 
L 389.924655 294.478215 
L 389.57168 294.200445 
L 389.207819 293.62628 
L 388.854366 294.710757 
L 388.500651 293.026935 
L 388.146718 293.938205 
L 387.781768 294.400724 
L 387.42727 293.173611 
L 387.072597 293.297838 
L 386.71762 293.885223 
L 386.362381 294.105339 
L 386.006924 293.62547 
L 385.640449 293.971353 
L 385.284427 293.931633 
L 384.571728 294.238079 
L 383.858115 293.582611 
L 383.500873 294.132264 
L 383.143457 293.867211 
L 382.785735 293.801289 
L 382.43864 293.862281 
L 382.080397 293.678327 
L 381.721979 293.655962 
L 381.363299 294.074535 
L 381.004359 293.998161 
L 380.6452 293.682206 
L 380.296625 293.819011 
L 379.936988 294.224176 
L 379.577089 293.517211 
L 379.227817 293.19075 
L 378.156874 294.177329 
L 377.795756 294.011703 
L 377.43442 293.614067 
L 376.721939 293.901046 
L 376.370794 293.762432 
L 376.008457 294.335458 
L 375.656919 293.913594 
L 375.294147 294.279016 
L 374.589853 294.008463 
L 374.22634 293.970014 
L 373.873583 294.282449 
L 373.509635 293.992258 
L 373.156399 294.223078 
L 372.803033 293.973124 
L 372.449362 294.085299 
L 371.730348 293.864559 
L 371.376024 294.218322 
L 371.021504 294.015677 
L 370.655639 294.071906 
L 369.945423 293.730299 
L 367.095499 293.92148 
L 366.380797 293.923582 
L 366.023141 293.956533 
L 365.665202 293.859284 
L 365.307089 294.058906 
L 364.601337 293.923491 
L 363.883543 294.067903 
L 363.524319 293.980273 
L 363.164878 294.014486 
L 362.816433 293.871435 
L 362.456556 293.871512 
L 362.096461 294.089637 
L 361.736149 293.99853 
L 361.386855 294.031039 
L 361.026128 293.890438 
L 360.67642 293.984105 
L 359.241682 293.818745 
L 358.528656 293.91233 
L 358.17749 293.838202 
L 357.463288 293.839201 
L 353.537 293.958902 
L 353.183003 293.958695 
L 352.817355 293.832989 
L 352.4629 293.966112 
L 351.753468 293.914455 
L 350.676298 293.892207 
L 348.539509 293.752588 
L 348.18268 293.715081 
L 347.825699 293.856808 
L 345.332539 293.811843 
L 338.193706 293.633457 
L 337.842953 293.767834 
L 336.76624 293.716901 
L 336.051343 293.807547 
L 334.266874 293.751536 
L 333.561209 293.708971 
L 332.135898 293.591913 
L 331.416319 293.53486 
L 325.704669 293.566962 
L 324.990512 293.523909 
L 322.8559 293.459619 
L 322.497547 293.393884 
L 321.43342 293.489355 
L 319.288596 293.477992 
L 318.21994 293.453289 
L 317.85941 293.348743 
L 317.149803 293.361496 
L 316.427545 293.329864 
L 316.078208 293.383151 
L 315.716632 293.24722 
L 315.005088 293.289233 
L 314.643011 293.216889 
L 314.292868 293.319034 
L 313.579995 293.276289 
L 313.217287 293.389222 
L 312.5035 293.348632 
L 311.437631 293.305496 
L 310.722211 293.343608 
L 310.006159 293.296806 
L 309.653968 293.34118 
L 308.584267 293.113861 
L 308.231489 293.198959 
L 307.513194 293.180847 
L 306.794333 293.194424 
L 306.440727 293.310202 
L 305.379018 293.240665 
L 304.303785 293.305304 
L 302.161313 293.163675 
L 301.805813 293.223347 
L 301.094181 293.144879 
L 300.382005 293.137409 
L 299.669263 293.184828 
L 285.390749 293.472616 
L 285.040889 293.521478 
L 283.965439 293.406412 
L 283.251956 293.329982 
L 282.90129 293.418618 
L 281.823423 293.312187 
L 279.689072 293.553103 
L 278.972367 293.558171 
L 276.112884 293.568861 
L 272.194305 293.788665 
L 271.839588 293.728484 
L 271.129808 293.78436 
L 268.273025 294.171266 
L 266.134711 294.170902 
L 263.991999 294.260597 
L 262.919009 294.260381 
L 261.486622 294.07844 
L 260.423867 293.914385 
L 259.347285 293.895793 
L 257.563361 293.733861 
L 255.789388 293.421648 
L 252.9296 293.284396 
L 252.568395 293.29613 
L 252.219928 293.146376 
L 251.14818 293.075212 
L 250.43742 293.02026 
L 247.576979 292.918635 
L 246.150558 292.78683 
L 244.00765 292.872376 
L 241.509198 292.818959 
L 239.723227 292.915618 
L 239.018541 292.821478 
L 218.674947 292.940832 
L 217.613651 292.989244 
L 216.896815 292.922616 
L 209.401306 293.267399 
L 208.333042 293.429336 
L 206.555324 293.429973 
L 204.762102 293.602053 
L 203.690463 293.618167 
L 201.907214 293.707922 
L 200.847006 293.664337 
L 199.772602 293.758892 
L 197.635094 293.632467 
L 196.55849 293.565611 
L 195.844833 293.43793 
L 193.701925 293.326662 
L 192.987005 293.268305 
L 191.569686 293.253451 
L 190.85383 293.12177 
L 189.421138 293.209546 
L 188.352569 293.046346 
L 186.565596 293.110805 
L 185.86115 293.074815 
L 177.65719 293.265897 
L 174.795889 293.115368 
L 174.086674 293.136417 
L 173.008698 292.991151 
L 171.943744 292.978222 
L 171.233462 292.890431 
L 170.522876 292.961714 
L 169.442831 292.801797 
L 168.375863 292.875855 
L 167.664242 292.738165 
L 166.596272 292.82733 
L 165.527725 292.748186 
L 164.444893 292.709461 
L 164.08837 292.678736 
L 163.375181 292.745127 
L 162.30487 292.701087 
L 161.591028 292.771818 
L 160.890665 292.681946 
L 159.819037 292.74385 
L 159.461708 292.662427 
L 158.389339 292.778593 
L 157.674125 292.719549 
L 156.95865 292.809577 
L 155.884986 292.806345 
L 155.182696 292.785345 
L 154.466372 292.846296 
L 153.749786 292.857211 
L 153.032994 292.898874 
L 152.67451 292.954377 
L 152.315951 292.836823 
L 149.818239 293.021345 
L 149.113946 292.989223 
L 148.754809 293.07301 
L 147.677051 293.05867 
L 145.893476 293.05973 
L 145.547654 292.94863 
L 144.828184 293.014763 
L 144.122322 292.967765 
L 143.762391 293.005277 
L 143.042365 292.879044 
L 142.33597 292.884679 
L 141.615498 292.854117 
L 139.8411 292.570314 
L 139.119866 292.525402 
L 138.759162 292.390042 
L 138.051493 292.312534 
L 135.913343 291.392642 
L 135.190932 290.943746 
L 134.12085 289.467285 
L 133.411842 288.2511 
L 130.559883 278.065997 
L 130.197948 276.243429 
L 129.487851 270.073291 
L 128.777537 262.237346 
L 128.06707 253.721754 
L 127.34245 240.009628 
L 126.283037 209.941274 
L 125.920515 196.96284 
L 124.846589 147.166834 
L 124.497828 136.599499 
L 123.786208 103.977162 
L 123.423348 106.019739 
L 123.060444 115.750689 
L 122.711444 89.629464 
L 122.348453 102.132386 
L 121.999355 96.787672 
L 121.636266 79.225057 
L 121.287102 89.833003 
L 120.923916 106.937607 
L 120.574643 103.353669 
L 119.862032 92.625476 
L 119.49866 95.144063 
L 119.149213 82.657765 
L 118.785754 103.558374 
L 118.436242 95.485652 
L 118.072696 94.616084 
L 117.709096 104.917537 
L 117.359443 99.801068 
L 116.995766 100.218926 
L 116.282251 128.369876 
L 115.568572 156.554689 
L 113.076337 237.085195 
L 112.361885 252.584146 
L 111.29692 268.268777 
L 110.582055 275.822648 
L 109.867048 280.742076 
L 109.151856 284.113627 
L 108.801212 285.514411 
L 107.720993 287.922705 
L 107.019367 288.853732 
L 105.587568 289.808309 
L 104.520317 289.962737 
L 103.08744 289.920713 
L 102.370778 289.691854 
L 102.019415 289.405139 
L 101.668009 288.841627 
L 101.302525 288.040718 
L 100.951042 285.931497 
L 100.585482 282.956384 
L 100.233934 278.939534 
L 99.882342 271.616453 
L 99.516652 256.692866 
L 98.813316 216.069849 
L 97.743963 109.501625 
L 97.378055 103.053294 
L 97.026202 106.360476 
L 96.660217 99.71927 
L 96.308277 90.016315 
L 95.956316 88.547005 
L 95.590238 95.951182 
L 95.23819 86.53283 
L 94.88613 64.867455 
L 94.519938 80.970153 
L 94.167786 89.902251 
L 93.815618 91.187214 
L 93.449333 85.454352 
L 93.097089 86.622199 
L 92.744817 73.879818 
L 92.392501 81.933401 
L 92.02607 97.487513 
L 91.6737 93.512441 
L 91.321292 86.749154 
L 90.954763 98.945635 
L 90.602295 66.469719 
L 90.249789 88.241297 
L 89.883156 75.314832 
L 89.53059 101.32663 
L 89.177992 88.682278 
L 88.811261 81.38226 
L 88.458603 89.405398 
L 88.105906 84.309797 
L 87.753188 88.909803 
L 87.386316 96.5463 
L 87.033527 115.951372 
L 86.68071 74.491626 
L 86.313751 53.568 
L 85.960875 78.284997 
L 85.60796 93.523393 
L 85.255024 94.766121 
L 84.887935 90.920925 
L 84.181904 96.427638 
L 83.828854 89.434677 
L 83.461634 87.656149 
L 83.108523 93.825629 
L 82.755369 65.540284 
L 82.402199 80.899399 
L 82.034864 64.531539 
L 81.681623 94.368634 
L 80.975065 80.336534 
L 80.607616 96.542828 
L 80.254266 91.833318 
L 79.547485 66.174859 
L 79.179916 86.61637 
L 78.826452 91.094857 
L 78.472966 93.772743 
L 78.119453 91.500153 
L 77.75177 101.016272 
L 77.398197 101.942878 
L 77.044596 92.13706 
L 76.690974 91.596924 
L 76.337325 99.764282 
L 75.9695 103.499462 
L 75.615791 84.372259 
L 75.262066 100.287322 
L 74.908302 110.882954 
L 74.540369 117.561431 
L 74.186556 103.76879 
L 73.832727 100.305912 
L 73.832727 100.305912 
" clip-path="url(#pd669179fdf)" style="fill: none; stroke: #099e7d; stroke-width: 1.5; stroke-linecap: square"/>
   </g>
   <g id="patch_3">
    <path d="M 57.6 307.584 
L 57.6 41.472 
" style="fill: none; stroke: #000000; stroke-width: 0.8; stroke-linejoin: miter; stroke-linecap: square"/>
   </g>
   <g id="patch_4">
    <path d="M 414.72 307.584 
L 414.72 41.472 
" style="fill: none; stroke: #000000; stroke-width: 0.8; stroke-linejoin: miter; stroke-linecap: square"/>
   </g>
   <g id="patch_5">
    <path d="M 57.6 307.584 
L 414.72 307.584 
" style="fill: none; stroke: #000000; stroke-width: 0.8; stroke-linejoin: miter; stroke-linecap: square"/>
   </g>
   <g id="patch_6">
    <path d="M 57.6 41.472 
L 414.72 41.472 
" style="fill: none; stroke: #000000; stroke-width: 0.8; stroke-linejoin: miter; stroke-linecap: square"/>
   </g>
   <g id="text_13">
    <!-- UV-Vis: 10μm CS₂ Run 2 -->
    <g transform="translate(164.77125 35.472)scale(0.12 -0.12)">
     <defs>
      <path id="DejaVuSans-55" d="M 556 4666 
L 1191 4666 
L 1191 1831 
Q 1191 1081 1462 751 
Q 1734 422 2344 422 
Q 2950 422 3222 751 
Q 3494 1081 3494 1831 
L 3494 4666 
L 4128 4666 
L 4128 1753 
Q 4128 841 3676 375 
Q 3225 -91 2344 -91 
Q 1459 -91 1007 375 
Q 556 841 556 1753 
L 556 4666 
z
" transform="scale(0.015625)"/>
      <path id="DejaVuSans-56" d="M 1831 0 
L 50 4666 
L 709 4666 
L 2188 738 
L 3669 4666 
L 4325 4666 
L 2547 0 
L 1831 0 
z
" transform="scale(0.015625)"/>
      <path id="DejaVuSans-2d" d="M 313 2009 
L 1997 2009 
L 1997 1497 
L 313 1497 
L 313 2009 
z
" transform="scale(0.015625)"/>
      <path id="DejaVuSans-69" d="M 603 3500 
L 1178 3500 
L 1178 0 
L 603 0 
L 603 3500 
z
M 603 4863 
L 1178 4863 
L 1178 4134 
L 603 4134 
L 603 4863 
z
" transform="scale(0.015625)"/>
      <path id="DejaVuSans-3a" d="M 750 794 
L 1409 794 
L 1409 0 
L 750 0 
L 750 794 
z
M 750 3309 
L 1409 3309 
L 1409 2516 
L 750 2516 
L 750 3309 
z
" transform="scale(0.015625)"/>
      <path id="DejaVuSans-20" transform="scale(0.015625)"/>
      <path id="DejaVuSans-3bc" d="M 544 -1331 
L 544 3500 
L 1119 3500 
L 1119 1325 
Q 1119 872 1334 640 
Q 1550 409 1972 409 
Q 2434 409 2667 671 
Q 2900 934 2900 1459 
L 2900 3500 
L 3475 3500 
L 3475 806 
Q 3475 619 3529 530 
Q 3584 441 3700 441 
Q 3728 441 3778 458 
Q 3828 475 3916 513 
L 3916 50 
Q 3788 -22 3673 -56 
Q 3559 -91 3450 -91 
Q 3234 -91 3106 31 
Q 2978 153 2931 403 
Q 2775 156 2548 32 
Q 2322 -91 2016 -91 
Q 1697 -91 1473 31 
Q 1250 153 1119 397 
L 1119 -1331 
L 544 -1331 
z
" transform="scale(0.015625)"/>
      <path id="DejaVuSans-43" d="M 4122 4306 
L 4122 3641 
Q 3803 3938 3442 4084 
Q 3081 4231 2675 4231 
Q 1875 4231 1450 3742 
Q 1025 3253 1025 2328 
Q 1025 1406 1450 917 
Q 1875 428 2675 428 
Q 3081 428 3442 575 
Q 3803 722 4122 1019 
L 4122 359 
Q 3791 134 3420 21 
Q 3050 -91 2638 -91 
Q 1578 -91 968 557 
Q 359 1206 359 2328 
Q 359 3453 968 4101 
Q 1578 4750 2638 4750 
Q 3056 4750 3426 4639 
Q 3797 4528 4122 4306 
z
" transform="scale(0.015625)"/>
      <path id="DejaVuSans-53" d="M 3425 4513 
L 3425 3897 
Q 3066 4069 2747 4153 
Q 2428 4238 2131 4238 
Q 1616 4238 1336 4038 
Q 1056 3838 1056 3469 
Q 1056 3159 1242 3001 
Q 1428 2844 1947 2747 
L 2328 2669 
Q 3034 2534 3370 2195 
Q 3706 1856 3706 1288 
Q 3706 609 3251 259 
Q 2797 -91 1919 -91 
Q 1588 -91 1214 -16 
Q 841 59 441 206 
L 441 856 
Q 825 641 1194 531 
Q 1563 422 1919 422 
Q 2459 422 2753 634 
Q 3047 847 3047 1241 
Q 3047 1584 2836 1778 
Q 2625 1972 2144 2069 
L 1759 2144 
Q 1053 2284 737 2584 
Q 422 2884 422 3419 
Q 422 4038 858 4394 
Q 1294 4750 2059 4750 
Q 2388 4750 2728 4690 
Q 3069 4631 3425 4513 
z
" transform="scale(0.015625)"/>
      <path id="DejaVuSans-2082" d="M 838 356 
L 2163 356 
L 2163 0 
L 294 0 
L 294 343 
Q 400 440 597 615 
Q 1672 1568 1672 1862 
Q 1672 2068 1509 2194 
Q 1347 2321 1081 2321 
Q 919 2321 728 2266 
Q 538 2212 313 2103 
L 313 2487 
Q 553 2575 761 2618 
Q 969 2662 1147 2662 
Q 1600 2662 1872 2456 
Q 2144 2250 2144 1912 
Q 2144 1478 1109 590 
Q 934 440 838 356 
z
" transform="scale(0.015625)"/>
      <path id="DejaVuSans-52" d="M 2841 2188 
Q 3044 2119 3236 1894 
Q 3428 1669 3622 1275 
L 4263 0 
L 3584 0 
L 2988 1197 
Q 2756 1666 2539 1819 
Q 2322 1972 1947 1972 
L 1259 1972 
L 1259 0 
L 628 0 
L 628 4666 
L 2053 4666 
Q 2853 4666 3247 4331 
Q 3641 3997 3641 3322 
Q 3641 2881 3436 2590 
Q 3231 2300 2841 2188 
z
M 1259 4147 
L 1259 2491 
L 2053 2491 
Q 2509 2491 2742 2702 
Q 2975 2913 2975 3322 
Q 2975 3731 2742 3939 
Q 2509 4147 2053 4147 
L 1259 4147 
z
" transform="scale(0.015625)"/>
      <path id="DejaVuSans-75" d="M 544 1381 
L 544 3500 
L 1119 3500 
L 1119 1403 
Q 1119 906 1312 657 
Q 1506 409 1894 409 
Q 2359 409 2629 706 
Q 2900 1003 2900 1516 
L 2900 3500 
L 3475 3500 
L 3475 0 
L 2900 0 
L 2900 538 
Q 2691 219 2414 64 
Q 2138 -91 1772 -91 
Q 1169 -91 856 284 
Q 544 659 544 1381 
z
M 1991 3584 
L 1991 3584 
z
" transform="scale(0.015625)"/>
     </defs>
     <use xlink:href="#DejaVuSans-55"/>
     <use xlink:href="#DejaVuSans-56" x="73.193359"/>
     <use xlink:href="#DejaVuSans-2d" x="135.726562"/>
     <use xlink:href="#DejaVuSans-56" x="165.935547"/>
     <use xlink:href="#DejaVuSans-69" x="232.09375"/>
     <use xlink:href="#DejaVuSans-73" x="259.876953"/>
     <use xlink:href="#DejaVuSans-3a" x="311.976562"/>
     <use xlink:href="#DejaVuSans-20" x="345.667969"/>
     <use xlink:href="#DejaVuSans-31" x="377.455078"/>
     <use xlink:href="#DejaVuSans-30" x="441.078125"/>
     <use xlink:href="#DejaVuSans-3bc" x="504.701172"/>
     <use xlink:href="#DejaVuSans-6d" x="568.324219"/>
     <use xlink:href="#DejaVuSans-20" x="665.736328"/>
     <use xlink:href="#DejaVuSans-43" x="697.523438"/>
     <use xlink:href="#DejaVuSans-53" x="767.347656"/>
     <use xlink:href="#DejaVuSans-2082" x="830.824219"/>
     <use xlink:href="#DejaVuSans-20" x="870.912109"/>
     <use xlink:href="#DejaVuSans-52" x="902.699219"/>
     <use xlink:href="#DejaVuSans-75" x="967.681641"/>
     <use xlink:href="#DejaVuSans-6e" x="1031.060547"/>
     <use xlink:href="#DejaVuSans-20" x="1094.439453"/>
     <use xlink:href="#DejaVuSans-32" x="1126.226562"/>
    </g>
   </g>
  </g>
 </g>
 <defs>
  <clipPath id="pd669179fdf">
   <rect x="57.6" y="41.472" width="357.12" height="266.112"/>
  </clipPath>
 </defs>
</svg>
