<?xml version="1.0" encoding="utf-8" standalone="no"?>
<!DOCTYPE svg PUBLIC "-//W3C//DTD SVG 1.1//EN"
  "http://www.w3.org/Graphics/SVG/1.1/DTD/svg11.dtd">
<svg xmlns:xlink="http://www.w3.org/1999/xlink" width="460.8pt" height="345.6pt" viewBox="0 0 460.8 345.6" xmlns="http://www.w3.org/2000/svg" version="1.1">
 <metadata>
  <rdf:RDF xmlns:dc="http://purl.org/dc/elements/1.1/" xmlns:cc="http://creativecommons.org/ns#" xmlns:rdf="http://www.w3.org/1999/02/22-rdf-syntax-ns#">
   <cc:Work>
    <dc:type rdf:resource="http://purl.org/dc/dcmitype/StillImage"/>
    <dc:date>2023-10-19T15:46:19.263970</dc:date>
    <dc:format>image/svg+xml</dc:format>
    <dc:creator>
     <cc:Agent>
      <dc:title>Matplotlib v3.5.2, https://matplotlib.org/</dc:title>
     </cc:Agent>
    </dc:creator>
   </cc:Work>
  </rdf:RDF>
 </metadata>
 <defs>
  <style type="text/css">*{stroke-linejoin: round; stroke-linecap: butt}</style>
 </defs>
 <g id="figure_1">
  <g id="patch_1">
   <path d="M 0 345.6 
L 460.8 345.6 
L 460.8 0 
L 0 0 
L 0 345.6 
z
" style="fill: none"/>
  </g>
  <g id="axes_1">
   <g id="patch_2">
    <path d="M 57.6 307.584 
L 414.72 307.584 
L 414.72 41.472 
L 57.6 41.472 
L 57.6 307.584 
z
" style="fill: none"/>
   </g>
   <g id="matplotlib.axis_1">
    <g id="xtick_1">
     <g id="line2d_1">
      <defs>
       <path id="m181ce71713" d="M 0 0 
L 0 -3.5 
" style="stroke: #000000; stroke-width: 0.8"/>
      </defs>
      <g>
       <use xlink:href="#m181ce71713" x="84.292278" y="307.584" style="stroke: #000000; stroke-width: 0.8"/>
      </g>
     </g>
     <g id="text_1">
      <!-- 200 -->
      <g transform="translate(74.748528 320.182437)scale(0.1 -0.1)">
       <defs>
        <path id="DejaVuSans-32" d="M 1228 531 
L 3431 531 
L 3431 0 
L 469 0 
L 469 531 
Q 828 903 1448 1529 
Q 2069 2156 2228 2338 
Q 2531 2678 2651 2914 
Q 2772 3150 2772 3378 
Q 2772 3750 2511 3984 
Q 2250 4219 1831 4219 
Q 1534 4219 1204 4116 
Q 875 4013 500 3803 
L 500 4441 
Q 881 4594 1212 4672 
Q 1544 4750 1819 4750 
Q 2544 4750 2975 4387 
Q 3406 4025 3406 3419 
Q 3406 3131 3298 2873 
Q 3191 2616 2906 2266 
Q 2828 2175 2409 1742 
Q 1991 1309 1228 531 
z
" transform="scale(0.015625)"/>
        <path id="DejaVuSans-30" d="M 2034 4250 
Q 1547 4250 1301 3770 
Q 1056 3291 1056 2328 
Q 1056 1369 1301 889 
Q 1547 409 2034 409 
Q 2525 409 2770 889 
Q 3016 1369 3016 2328 
Q 3016 3291 2770 3770 
Q 2525 4250 2034 4250 
z
M 2034 4750 
Q 2819 4750 3233 4129 
Q 3647 3509 3647 2328 
Q 3647 1150 3233 529 
Q 2819 -91 2034 -91 
Q 1250 -91 836 529 
Q 422 1150 422 2328 
Q 422 3509 836 4129 
Q 1250 4750 2034 4750 
z
" transform="scale(0.015625)"/>
       </defs>
       <use xlink:href="#DejaVuSans-32"/>
       <use xlink:href="#DejaVuSans-30" x="63.623047"/>
       <use xlink:href="#DejaVuSans-30" x="127.246094"/>
      </g>
     </g>
    </g>
    <g id="xtick_2">
     <g id="line2d_2">
      <g>
       <use xlink:href="#m181ce71713" x="136.65843" y="307.584" style="stroke: #000000; stroke-width: 0.8"/>
      </g>
     </g>
     <g id="text_2">
      <!-- 250 -->
      <g transform="translate(127.11468 320.182437)scale(0.1 -0.1)">
       <defs>
        <path id="DejaVuSans-35" d="M 691 4666 
L 3169 4666 
L 3169 4134 
L 1269 4134 
L 1269 2991 
Q 1406 3038 1543 3061 
Q 1681 3084 1819 3084 
Q 2600 3084 3056 2656 
Q 3513 2228 3513 1497 
Q 3513 744 3044 326 
Q 2575 -91 1722 -91 
Q 1428 -91 1123 -41 
Q 819 9 494 109 
L 494 744 
Q 775 591 1075 516 
Q 1375 441 1709 441 
Q 2250 441 2565 725 
Q 2881 1009 2881 1497 
Q 2881 1984 2565 2268 
Q 2250 2553 1709 2553 
Q 1456 2553 1204 2497 
Q 953 2441 691 2322 
L 691 4666 
z
" transform="scale(0.015625)"/>
       </defs>
       <use xlink:href="#DejaVuSans-32"/>
       <use xlink:href="#DejaVuSans-35" x="63.623047"/>
       <use xlink:href="#DejaVuSans-30" x="127.246094"/>
      </g>
     </g>
    </g>
    <g id="xtick_3">
     <g id="line2d_3">
      <g>
       <use xlink:href="#m181ce71713" x="189.024582" y="307.584" style="stroke: #000000; stroke-width: 0.8"/>
      </g>
     </g>
     <g id="text_3">
      <!-- 300 -->
      <g transform="translate(179.480832 320.182437)scale(0.1 -0.1)">
       <defs>
        <path id="DejaVuSans-33" d="M 2597 2516 
Q 3050 2419 3304 2112 
Q 3559 1806 3559 1356 
Q 3559 666 3084 287 
Q 2609 -91 1734 -91 
Q 1441 -91 1130 -33 
Q 819 25 488 141 
L 488 750 
Q 750 597 1062 519 
Q 1375 441 1716 441 
Q 2309 441 2620 675 
Q 2931 909 2931 1356 
Q 2931 1769 2642 2001 
Q 2353 2234 1838 2234 
L 1294 2234 
L 1294 2753 
L 1863 2753 
Q 2328 2753 2575 2939 
Q 2822 3125 2822 3475 
Q 2822 3834 2567 4026 
Q 2313 4219 1838 4219 
Q 1578 4219 1281 4162 
Q 984 4106 628 3988 
L 628 4550 
Q 988 4650 1302 4700 
Q 1616 4750 1894 4750 
Q 2613 4750 3031 4423 
Q 3450 4097 3450 3541 
Q 3450 3153 3228 2886 
Q 3006 2619 2597 2516 
z
" transform="scale(0.015625)"/>
       </defs>
       <use xlink:href="#DejaVuSans-33"/>
       <use xlink:href="#DejaVuSans-30" x="63.623047"/>
       <use xlink:href="#DejaVuSans-30" x="127.246094"/>
      </g>
     </g>
    </g>
    <g id="xtick_4">
     <g id="line2d_4">
      <g>
       <use xlink:href="#m181ce71713" x="241.390734" y="307.584" style="stroke: #000000; stroke-width: 0.8"/>
      </g>
     </g>
     <g id="text_4">
      <!-- 350 -->
      <g transform="translate(231.846984 320.182437)scale(0.1 -0.1)">
       <use xlink:href="#DejaVuSans-33"/>
       <use xlink:href="#DejaVuSans-35" x="63.623047"/>
       <use xlink:href="#DejaVuSans-30" x="127.246094"/>
      </g>
     </g>
    </g>
    <g id="xtick_5">
     <g id="line2d_5">
      <g>
       <use xlink:href="#m181ce71713" x="293.756886" y="307.584" style="stroke: #000000; stroke-width: 0.8"/>
      </g>
     </g>
     <g id="text_5">
      <!-- 400 -->
      <g transform="translate(284.213136 320.182437)scale(0.1 -0.1)">
       <defs>
        <path id="DejaVuSans-34" d="M 2419 4116 
L 825 1625 
L 2419 1625 
L 2419 4116 
z
M 2253 4666 
L 3047 4666 
L 3047 1625 
L 3713 1625 
L 3713 1100 
L 3047 1100 
L 3047 0 
L 2419 0 
L 2419 1100 
L 313 1100 
L 313 1709 
L 2253 4666 
z
" transform="scale(0.015625)"/>
       </defs>
       <use xlink:href="#DejaVuSans-34"/>
       <use xlink:href="#DejaVuSans-30" x="63.623047"/>
       <use xlink:href="#DejaVuSans-30" x="127.246094"/>
      </g>
     </g>
    </g>
    <g id="xtick_6">
     <g id="line2d_6">
      <g>
       <use xlink:href="#m181ce71713" x="346.123038" y="307.584" style="stroke: #000000; stroke-width: 0.8"/>
      </g>
     </g>
     <g id="text_6">
      <!-- 450 -->
      <g transform="translate(336.579288 320.182437)scale(0.1 -0.1)">
       <use xlink:href="#DejaVuSans-34"/>
       <use xlink:href="#DejaVuSans-35" x="63.623047"/>
       <use xlink:href="#DejaVuSans-30" x="127.246094"/>
      </g>
     </g>
    </g>
    <g id="xtick_7">
     <g id="line2d_7">
      <g>
       <use xlink:href="#m181ce71713" x="398.48919" y="307.584" style="stroke: #000000; stroke-width: 0.8"/>
      </g>
     </g>
     <g id="text_7">
      <!-- 500 -->
      <g transform="translate(388.94544 320.182437)scale(0.1 -0.1)">
       <use xlink:href="#DejaVuSans-35"/>
       <use xlink:href="#DejaVuSans-30" x="63.623047"/>
       <use xlink:href="#DejaVuSans-30" x="127.246094"/>
      </g>
     </g>
    </g>
    <g id="xtick_8">
     <g id="line2d_8">
      <defs>
       <path id="m304295afb9" d="M 0 0 
L 0 -2 
" style="stroke: #000000; stroke-width: 0.6"/>
      </defs>
      <g>
       <use xlink:href="#m304295afb9" x="63.345817" y="307.584" style="stroke: #000000; stroke-width: 0.6"/>
      </g>
     </g>
    </g>
    <g id="xtick_9">
     <g id="line2d_9">
      <g>
       <use xlink:href="#m304295afb9" x="73.819048" y="307.584" style="stroke: #000000; stroke-width: 0.6"/>
      </g>
     </g>
    </g>
    <g id="xtick_10">
     <g id="line2d_10">
      <g>
       <use xlink:href="#m304295afb9" x="94.765508" y="307.584" style="stroke: #000000; stroke-width: 0.6"/>
      </g>
     </g>
    </g>
    <g id="xtick_11">
     <g id="line2d_11">
      <g>
       <use xlink:href="#m304295afb9" x="105.238739" y="307.584" style="stroke: #000000; stroke-width: 0.6"/>
      </g>
     </g>
    </g>
    <g id="xtick_12">
     <g id="line2d_12">
      <g>
       <use xlink:href="#m304295afb9" x="115.711969" y="307.584" style="stroke: #000000; stroke-width: 0.6"/>
      </g>
     </g>
    </g>
    <g id="xtick_13">
     <g id="line2d_13">
      <g>
       <use xlink:href="#m304295afb9" x="126.1852" y="307.584" style="stroke: #000000; stroke-width: 0.6"/>
      </g>
     </g>
    </g>
    <g id="xtick_14">
     <g id="line2d_14">
      <g>
       <use xlink:href="#m304295afb9" x="147.131661" y="307.584" style="stroke: #000000; stroke-width: 0.6"/>
      </g>
     </g>
    </g>
    <g id="xtick_15">
     <g id="line2d_15">
      <g>
       <use xlink:href="#m304295afb9" x="157.604891" y="307.584" style="stroke: #000000; stroke-width: 0.6"/>
      </g>
     </g>
    </g>
    <g id="xtick_16">
     <g id="line2d_16">
      <g>
       <use xlink:href="#m304295afb9" x="168.078121" y="307.584" style="stroke: #000000; stroke-width: 0.6"/>
      </g>
     </g>
    </g>
    <g id="xtick_17">
     <g id="line2d_17">
      <g>
       <use xlink:href="#m304295afb9" x="178.551352" y="307.584" style="stroke: #000000; stroke-width: 0.6"/>
      </g>
     </g>
    </g>
    <g id="xtick_18">
     <g id="line2d_18">
      <g>
       <use xlink:href="#m304295afb9" x="199.497813" y="307.584" style="stroke: #000000; stroke-width: 0.6"/>
      </g>
     </g>
    </g>
    <g id="xtick_19">
     <g id="line2d_19">
      <g>
       <use xlink:href="#m304295afb9" x="209.971043" y="307.584" style="stroke: #000000; stroke-width: 0.6"/>
      </g>
     </g>
    </g>
    <g id="xtick_20">
     <g id="line2d_20">
      <g>
       <use xlink:href="#m304295afb9" x="220.444273" y="307.584" style="stroke: #000000; stroke-width: 0.6"/>
      </g>
     </g>
    </g>
    <g id="xtick_21">
     <g id="line2d_21">
      <g>
       <use xlink:href="#m304295afb9" x="230.917504" y="307.584" style="stroke: #000000; stroke-width: 0.6"/>
      </g>
     </g>
    </g>
    <g id="xtick_22">
     <g id="line2d_22">
      <g>
       <use xlink:href="#m304295afb9" x="251.863965" y="307.584" style="stroke: #000000; stroke-width: 0.6"/>
      </g>
     </g>
    </g>
    <g id="xtick_23">
     <g id="line2d_23">
      <g>
       <use xlink:href="#m304295afb9" x="262.337195" y="307.584" style="stroke: #000000; stroke-width: 0.6"/>
      </g>
     </g>
    </g>
    <g id="xtick_24">
     <g id="line2d_24">
      <g>
       <use xlink:href="#m304295afb9" x="272.810426" y="307.584" style="stroke: #000000; stroke-width: 0.6"/>
      </g>
     </g>
    </g>
    <g id="xtick_25">
     <g id="line2d_25">
      <g>
       <use xlink:href="#m304295afb9" x="283.283656" y="307.584" style="stroke: #000000; stroke-width: 0.6"/>
      </g>
     </g>
    </g>
    <g id="xtick_26">
     <g id="line2d_26">
      <g>
       <use xlink:href="#m304295afb9" x="304.230117" y="307.584" style="stroke: #000000; stroke-width: 0.6"/>
      </g>
     </g>
    </g>
    <g id="xtick_27">
     <g id="line2d_27">
      <g>
       <use xlink:href="#m304295afb9" x="314.703347" y="307.584" style="stroke: #000000; stroke-width: 0.6"/>
      </g>
     </g>
    </g>
    <g id="xtick_28">
     <g id="line2d_28">
      <g>
       <use xlink:href="#m304295afb9" x="325.176578" y="307.584" style="stroke: #000000; stroke-width: 0.6"/>
      </g>
     </g>
    </g>
    <g id="xtick_29">
     <g id="line2d_29">
      <g>
       <use xlink:href="#m304295afb9" x="335.649808" y="307.584" style="stroke: #000000; stroke-width: 0.6"/>
      </g>
     </g>
    </g>
    <g id="xtick_30">
     <g id="line2d_30">
      <g>
       <use xlink:href="#m304295afb9" x="356.596269" y="307.584" style="stroke: #000000; stroke-width: 0.6"/>
      </g>
     </g>
    </g>
    <g id="xtick_31">
     <g id="line2d_31">
      <g>
       <use xlink:href="#m304295afb9" x="367.069499" y="307.584" style="stroke: #000000; stroke-width: 0.6"/>
      </g>
     </g>
    </g>
    <g id="xtick_32">
     <g id="line2d_32">
      <g>
       <use xlink:href="#m304295afb9" x="377.54273" y="307.584" style="stroke: #000000; stroke-width: 0.6"/>
      </g>
     </g>
    </g>
    <g id="xtick_33">
     <g id="line2d_33">
      <g>
       <use xlink:href="#m304295afb9" x="388.01596" y="307.584" style="stroke: #000000; stroke-width: 0.6"/>
      </g>
     </g>
    </g>
    <g id="xtick_34">
     <g id="line2d_34">
      <g>
       <use xlink:href="#m304295afb9" x="408.962421" y="307.584" style="stroke: #000000; stroke-width: 0.6"/>
      </g>
     </g>
    </g>
    <g id="text_8">
     <!-- nm -->
     <g transform="translate(228.120937 333.860562)scale(0.1 -0.1)">
      <defs>
       <path id="DejaVuSans-6e" d="M 3513 2113 
L 3513 0 
L 2938 0 
L 2938 2094 
Q 2938 2591 2744 2837 
Q 2550 3084 2163 3084 
Q 1697 3084 1428 2787 
Q 1159 2491 1159 1978 
L 1159 0 
L 581 0 
L 581 3500 
L 1159 3500 
L 1159 2956 
Q 1366 3272 1645 3428 
Q 1925 3584 2291 3584 
Q 2894 3584 3203 3211 
Q 3513 2838 3513 2113 
z
" transform="scale(0.015625)"/>
       <path id="DejaVuSans-6d" d="M 3328 2828 
Q 3544 3216 3844 3400 
Q 4144 3584 4550 3584 
Q 5097 3584 5394 3201 
Q 5691 2819 5691 2113 
L 5691 0 
L 5113 0 
L 5113 2094 
Q 5113 2597 4934 2840 
Q 4756 3084 4391 3084 
Q 3944 3084 3684 2787 
Q 3425 2491 3425 1978 
L 3425 0 
L 2847 0 
L 2847 2094 
Q 2847 2600 2669 2842 
Q 2491 3084 2119 3084 
Q 1678 3084 1418 2786 
Q 1159 2488 1159 1978 
L 1159 0 
L 581 0 
L 581 3500 
L 1159 3500 
L 1159 2956 
Q 1356 3278 1631 3431 
Q 1906 3584 2284 3584 
Q 2666 3584 2933 3390 
Q 3200 3197 3328 2828 
z
" transform="scale(0.015625)"/>
      </defs>
      <use xlink:href="#DejaVuSans-6e"/>
      <use xlink:href="#DejaVuSans-6d" x="63.378906"/>
     </g>
    </g>
   </g>
   <g id="matplotlib.axis_2">
    <g id="ytick_1">
     <g id="line2d_35">
      <defs>
       <path id="ma3618facfc" d="M 0 0 
L 3.5 0 
" style="stroke: #000000; stroke-width: 0.8"/>
      </defs>
      <g>
       <use xlink:href="#ma3618facfc" x="57.6" y="297.576008" style="stroke: #000000; stroke-width: 0.8"/>
      </g>
     </g>
     <g id="text_9">
      <!-- 0 -->
      <g transform="translate(46.2375 301.375226)scale(0.1 -0.1)">
       <use xlink:href="#DejaVuSans-30"/>
      </g>
     </g>
    </g>
    <g id="ytick_2">
     <g id="line2d_36">
      <g>
       <use xlink:href="#ma3618facfc" x="57.6" y="243.384129" style="stroke: #000000; stroke-width: 0.8"/>
      </g>
     </g>
     <g id="text_10">
      <!-- 1 -->
      <g transform="translate(46.2375 247.183348)scale(0.1 -0.1)">
       <defs>
        <path id="DejaVuSans-31" d="M 794 531 
L 1825 531 
L 1825 4091 
L 703 3866 
L 703 4441 
L 1819 4666 
L 2450 4666 
L 2450 531 
L 3481 531 
L 3481 0 
L 794 0 
L 794 531 
z
" transform="scale(0.015625)"/>
       </defs>
       <use xlink:href="#DejaVuSans-31"/>
      </g>
     </g>
    </g>
    <g id="ytick_3">
     <g id="line2d_37">
      <g>
       <use xlink:href="#ma3618facfc" x="57.6" y="189.19225" style="stroke: #000000; stroke-width: 0.8"/>
      </g>
     </g>
     <g id="text_11">
      <!-- 2 -->
      <g transform="translate(46.2375 192.991469)scale(0.1 -0.1)">
       <use xlink:href="#DejaVuSans-32"/>
      </g>
     </g>
    </g>
    <g id="ytick_4">
     <g id="line2d_38">
      <g>
       <use xlink:href="#ma3618facfc" x="57.6" y="135.000371" style="stroke: #000000; stroke-width: 0.8"/>
      </g>
     </g>
     <g id="text_12">
      <!-- 3 -->
      <g transform="translate(46.2375 138.79959)scale(0.1 -0.1)">
       <use xlink:href="#DejaVuSans-33"/>
      </g>
     </g>
    </g>
    <g id="ytick_5">
     <g id="line2d_39">
      <g>
       <use xlink:href="#ma3618facfc" x="57.6" y="80.808492" style="stroke: #000000; stroke-width: 0.8"/>
      </g>
     </g>
     <g id="text_13">
      <!-- 4 -->
      <g transform="translate(46.2375 84.607711)scale(0.1 -0.1)">
       <use xlink:href="#DejaVuSans-34"/>
      </g>
     </g>
    </g>
    <g id="ytick_6">
     <g id="line2d_40">
      <defs>
       <path id="m7187a63bac" d="M 0 0 
L 2 0 
" style="stroke: #000000; stroke-width: 0.6"/>
      </defs>
      <g>
       <use xlink:href="#m7187a63bac" x="57.6" y="286.737632" style="stroke: #000000; stroke-width: 0.6"/>
      </g>
     </g>
    </g>
    <g id="ytick_7">
     <g id="line2d_41">
      <g>
       <use xlink:href="#m7187a63bac" x="57.6" y="275.899256" style="stroke: #000000; stroke-width: 0.6"/>
      </g>
     </g>
    </g>
    <g id="ytick_8">
     <g id="line2d_42">
      <g>
       <use xlink:href="#m7187a63bac" x="57.6" y="265.06088" style="stroke: #000000; stroke-width: 0.6"/>
      </g>
     </g>
    </g>
    <g id="ytick_9">
     <g id="line2d_43">
      <g>
       <use xlink:href="#m7187a63bac" x="57.6" y="254.222505" style="stroke: #000000; stroke-width: 0.6"/>
      </g>
     </g>
    </g>
    <g id="ytick_10">
     <g id="line2d_44">
      <g>
       <use xlink:href="#m7187a63bac" x="57.6" y="232.545753" style="stroke: #000000; stroke-width: 0.6"/>
      </g>
     </g>
    </g>
    <g id="ytick_11">
     <g id="line2d_45">
      <g>
       <use xlink:href="#m7187a63bac" x="57.6" y="221.707377" style="stroke: #000000; stroke-width: 0.6"/>
      </g>
     </g>
    </g>
    <g id="ytick_12">
     <g id="line2d_46">
      <g>
       <use xlink:href="#m7187a63bac" x="57.6" y="210.869001" style="stroke: #000000; stroke-width: 0.6"/>
      </g>
     </g>
    </g>
    <g id="ytick_13">
     <g id="line2d_47">
      <g>
       <use xlink:href="#m7187a63bac" x="57.6" y="200.030626" style="stroke: #000000; stroke-width: 0.6"/>
      </g>
     </g>
    </g>
    <g id="ytick_14">
     <g id="line2d_48">
      <g>
       <use xlink:href="#m7187a63bac" x="57.6" y="178.353874" style="stroke: #000000; stroke-width: 0.6"/>
      </g>
     </g>
    </g>
    <g id="ytick_15">
     <g id="line2d_49">
      <g>
       <use xlink:href="#m7187a63bac" x="57.6" y="167.515498" style="stroke: #000000; stroke-width: 0.6"/>
      </g>
     </g>
    </g>
    <g id="ytick_16">
     <g id="line2d_50">
      <g>
       <use xlink:href="#m7187a63bac" x="57.6" y="156.677123" style="stroke: #000000; stroke-width: 0.6"/>
      </g>
     </g>
    </g>
    <g id="ytick_17">
     <g id="line2d_51">
      <g>
       <use xlink:href="#m7187a63bac" x="57.6" y="145.838747" style="stroke: #000000; stroke-width: 0.6"/>
      </g>
     </g>
    </g>
    <g id="ytick_18">
     <g id="line2d_52">
      <g>
       <use xlink:href="#m7187a63bac" x="57.6" y="124.161995" style="stroke: #000000; stroke-width: 0.6"/>
      </g>
     </g>
    </g>
    <g id="ytick_19">
     <g id="line2d_53">
      <g>
       <use xlink:href="#m7187a63bac" x="57.6" y="113.32362" style="stroke: #000000; stroke-width: 0.6"/>
      </g>
     </g>
    </g>
    <g id="ytick_20">
     <g id="line2d_54">
      <g>
       <use xlink:href="#m7187a63bac" x="57.6" y="102.485244" style="stroke: #000000; stroke-width: 0.6"/>
      </g>
     </g>
    </g>
    <g id="ytick_21">
     <g id="line2d_55">
      <g>
       <use xlink:href="#m7187a63bac" x="57.6" y="91.646868" style="stroke: #000000; stroke-width: 0.6"/>
      </g>
     </g>
    </g>
    <g id="ytick_22">
     <g id="line2d_56">
      <g>
       <use xlink:href="#m7187a63bac" x="57.6" y="69.970117" style="stroke: #000000; stroke-width: 0.6"/>
      </g>
     </g>
    </g>
    <g id="ytick_23">
     <g id="line2d_57">
      <g>
       <use xlink:href="#m7187a63bac" x="57.6" y="59.131741" style="stroke: #000000; stroke-width: 0.6"/>
      </g>
     </g>
    </g>
    <g id="ytick_24">
     <g id="line2d_58">
      <g>
       <use xlink:href="#m7187a63bac" x="57.6" y="48.293365" style="stroke: #000000; stroke-width: 0.6"/>
      </g>
     </g>
    </g>
    <g id="text_14">
     <!-- Abs -->
     <g transform="translate(40.157812 183.727219)rotate(-90)scale(0.1 -0.1)">
      <defs>
       <path id="DejaVuSans-41" d="M 2188 4044 
L 1331 1722 
L 3047 1722 
L 2188 4044 
z
M 1831 4666 
L 2547 4666 
L 4325 0 
L 3669 0 
L 3244 1197 
L 1141 1197 
L 716 0 
L 50 0 
L 1831 4666 
z
" transform="scale(0.015625)"/>
       <path id="DejaVuSans-62" d="M 3116 1747 
Q 3116 2381 2855 2742 
Q 2594 3103 2138 3103 
Q 1681 3103 1420 2742 
Q 1159 2381 1159 1747 
Q 1159 1113 1420 752 
Q 1681 391 2138 391 
Q 2594 391 2855 752 
Q 3116 1113 3116 1747 
z
M 1159 2969 
Q 1341 3281 1617 3432 
Q 1894 3584 2278 3584 
Q 2916 3584 3314 3078 
Q 3713 2572 3713 1747 
Q 3713 922 3314 415 
Q 2916 -91 2278 -91 
Q 1894 -91 1617 61 
Q 1341 213 1159 525 
L 1159 0 
L 581 0 
L 581 4863 
L 1159 4863 
L 1159 2969 
z
" transform="scale(0.015625)"/>
       <path id="DejaVuSans-73" d="M 2834 3397 
L 2834 2853 
Q 2591 2978 2328 3040 
Q 2066 3103 1784 3103 
Q 1356 3103 1142 2972 
Q 928 2841 928 2578 
Q 928 2378 1081 2264 
Q 1234 2150 1697 2047 
L 1894 2003 
Q 2506 1872 2764 1633 
Q 3022 1394 3022 966 
Q 3022 478 2636 193 
Q 2250 -91 1575 -91 
Q 1294 -91 989 -36 
Q 684 19 347 128 
L 347 722 
Q 666 556 975 473 
Q 1284 391 1588 391 
Q 1994 391 2212 530 
Q 2431 669 2431 922 
Q 2431 1156 2273 1281 
Q 2116 1406 1581 1522 
L 1381 1569 
Q 847 1681 609 1914 
Q 372 2147 372 2553 
Q 372 3047 722 3315 
Q 1072 3584 1716 3584 
Q 2034 3584 2315 3537 
Q 2597 3491 2834 3397 
z
" transform="scale(0.015625)"/>
      </defs>
      <use xlink:href="#DejaVuSans-41"/>
      <use xlink:href="#DejaVuSans-62" x="68.408203"/>
      <use xlink:href="#DejaVuSans-73" x="131.884766"/>
     </g>
    </g>
   </g>
   <g id="line2d_59">
    <path d="M 398.487273 295.331995 
L 392.193842 295.397745 
L 386.969915 295.460544 
L 375.466685 295.397837 
L 355.55716 294.944866 
L 292.694605 294.335887 
L 289.043677 294.079593 
L 285.390767 293.607072 
L 280.679571 292.520764 
L 279.094939 291.981456 
L 274.908012 289.951795 
L 271.776271 287.339663 
L 271.247431 286.890289 
L 269.660562 285.12647 
L 267.05571 280.443577 
L 265.9972 278.088979 
L 265.467914 276.342199 
L 264.938563 275.027219 
L 263.920453 271.360361 
L 263.390974 269.410299 
L 261.802379 261.809347 
L 260.783853 255.962261 
L 260.254119 251.361912 
L 259.724417 248.52075 
L 259.194651 244.269024 
L 258.134927 232.864043 
L 256.5859 210.983171 
L 255.525856 191.877041 
L 254.99577 178.177573 
L 253.976254 160.374325 
L 252.915858 134.714147 
L 252.385549 121.575713 
L 251.324898 104.836766 
L 250.835307 94.750804 
L 250.30487 100.362733 
L 249.774401 93.844622 
L 249.243899 99.443023 
L 248.713366 99.070155 
L 248.182801 100.907403 
L 247.692987 88.362349 
L 247.162325 100.548204 
L 246.631632 101.447474 
L 246.100907 104.715689 
L 245.57015 94.266627 
L 245.039329 89.421805 
L 244.549356 100.10023 
L 244.018471 106.011549 
L 243.487554 98.719096 
L 242.956605 96.545428 
L 242.425624 104.920528 
L 241.89458 102.565962 
L 241.404382 85.280316 
L 240.873241 103.191036 
L 240.342133 107.610106 
L 239.81096 110.670692 
L 239.279788 97.802746 
L 238.789398 92.101034 
L 238.25813 102.31209 
L 237.726766 98.435443 
L 237.195433 86.008262 
L 236.664037 101.027136 
L 236.173488 77.778334 
L 235.642028 104.065976 
L 235.110504 93.554586 
L 234.047423 103.442737 
L 233.515803 88.733913 
L 233.025094 108.467255 
L 232.493411 101.071427 
L 231.961663 91.887215 
L 231.429915 103.221761 
L 230.898135 104.951718 
L 230.407202 91.244699 
L 229.875359 90.501779 
L 229.343419 94.512062 
L 228.811511 103.169123 
L 228.279572 108.262429 
L 227.788479 92.836421 
L 227.256444 85.456679 
L 226.724376 90.364707 
L 226.192245 103.533994 
L 225.701057 92.220625 
L 225.168861 86.138189 
L 224.636666 77.283304 
L 224.104407 83.179648 
L 223.572147 98.44605 
L 223.080767 98.387624 
L 222.548444 85.812273 
L 222.016025 85.697824 
L 221.483606 94.701733 
L 220.951155 92.491668 
L 220.459615 99.69152 
L 219.9271 86.554935 
L 219.394489 102.032468 
L 218.861943 97.307896 
L 217.837632 76.782227 
L 217.304925 89.130426 
L 216.772186 80.685129 
L 216.239416 75.991062 
L 215.747588 85.337347 
L 215.214754 88.235342 
L 214.681887 81.407467 
L 214.148989 83.121816 
L 213.657065 75.317808 
L 213.124071 55.00035 
L 212.591077 95.508505 
L 212.05805 97.845461 
L 211.52496 95.458439 
L 210.499723 85.787815 
L 209.966536 94.431284 
L 209.433318 81.164009 
L 208.941139 96.330291 
L 208.407825 100.357564 
L 207.874543 84.868777 
L 207.341197 89.639255 
L 206.848858 75.659448 
L 206.315448 79.309008 
L 205.782007 79.376633 
L 205.248501 78.066768 
L 204.715027 66.582385 
L 204.222528 87.503262 
L 203.688959 78.400191 
L 203.155357 75.071831 
L 202.621691 84.252631 
L 202.129097 77.457263 
L 201.595367 84.373488 
L 201.061638 81.451331 
L 200.527876 74.871746 
L 200.035154 73.009846 
L 199.501296 66.846477 
L 198.967439 83.864595 
L 198.43355 65.83993 
L 197.940699 78.770074 
L 197.406714 78.938091 
L 196.872729 79.67822 
L 196.33868 84.59117 
L 195.845702 79.195722 
L 195.311621 67.925998 
L 194.777476 82.434027 
L 194.243331 80.16157 
L 193.750225 73.070494 
L 193.216016 73.120651 
L 192.681775 81.940935 
L 192.147502 65.00835 
L 191.654268 71.118462 
L 191.119931 54.860888 
L 190.585531 78.465748 
L 190.092233 74.579488 
L 189.5578 53.568 
L 189.023336 85.296531 
L 188.488839 81.179229 
L 187.995445 82.831935 
L 186.926261 71.281026 
L 186.391604 77.105339 
L 185.898083 72.158472 
L 185.363394 78.422569 
L 184.828674 63.392583 
L 184.293922 80.422639 
L 183.800272 70.685346 
L 183.265488 85.751741 
L 182.730608 73.014833 
L 182.236863 73.981095 
L 181.167039 86.694901 
L 180.632063 74.393693 
L 180.138253 87.875653 
L 179.603213 78.422129 
L 179.068142 82.43519 
L 178.533038 65.762201 
L 178.039101 76.93293 
L 177.503933 85.031134 
L 176.968765 84.642206 
L 175.939501 71.637343 
L 175.404237 85.757245 
L 174.868909 80.830108 
L 174.374748 82.120489 
L 173.839389 82.082568 
L 173.303997 58.523781 
L 172.809773 80.297751 
L 172.274317 88.698692 
L 171.738862 89.9219 
L 171.203343 99.792364 
L 170.70899 104.807656 
L 169.143407 139.327254 
L 168.072049 160.109535 
L 167.041793 176.120718 
L 165.475635 192.662792 
L 163.909189 203.370701 
L 163.373222 206.269446 
L 162.837255 208.433766 
L 161.806457 210.684297 
L 161.270426 210.881249 
L 160.734299 210.335829 
L 159.703245 208.051201 
L 159.167118 204.645584 
L 158.672158 200.660683 
L 158.135936 194.404507 
L 157.063395 177.03575 
L 156.031957 148.006939 
L 155.000487 103.864393 
L 154.46404 90.925295 
L 153.927594 83.734616 
L 153.432347 81.905146 
L 152.895869 86.768275 
L 152.359326 65.130474 
L 151.864015 79.921355 
L 150.790803 72.023145 
L 150.254165 92.781135 
L 149.222056 75.890619 
L 148.685354 75.309307 
L 148.189851 73.209388 
L 147.653117 65.197401 
L 147.116287 81.554462 
L 146.62072 74.31953 
L 146.083858 78.404713 
L 145.546964 87.29279 
L 145.051365 75.235919 
L 144.514408 65.130629 
L 143.97745 78.019376 
L 143.481723 74.285705 
L 142.944702 78.607459 
L 142.407664 71.696441 
L 141.911905 83.953939 
L 141.374788 71.389841 
L 140.837686 81.041046 
L 139.804634 79.127684 
L 139.267421 82.077142 
L 138.771518 81.794367 
L 138.234241 80.660968 
L 137.696948 82.399814 
L 137.200949 78.696454 
L 136.663608 88.697258 
L 136.126251 81.567369 
L 135.630204 85.672798 
L 135.092799 81.684686 
L 134.55533 78.78806 
L 134.059204 79.290144 
L 132.98417 94.763983 
L 132.487979 77.189373 
L 131.950415 72.489699 
L 131.412818 90.534713 
L 130.916515 90.096881 
L 130.378871 86.73206 
L 129.84121 87.696357 
L 129.344876 83.037266 
L 128.807167 82.914975 
L 128.269394 61.490087 
L 127.772996 67.548 
L 127.235176 79.975336 
L 126.697339 76.703335 
L 126.200877 70.712091 
L 125.662992 68.276346 
L 125.125108 76.192852 
L 124.628518 72.499131 
L 124.09057 74.921696 
L 123.552605 66.042857 
L 123.055999 71.127144 
L 122.517971 77.914205 
L 121.979927 79.308181 
L 121.483225 75.679371 
L 120.945117 73.943135 
L 120.406992 76.163084 
L 119.910259 74.093424 
L 119.372087 75.062063 
L 118.833914 78.147288 
L 118.337053 84.56542 
L 117.798817 73.491207 
L 117.301971 77.607501 
L 116.763671 87.063983 
L 116.225339 74.078979 
L 115.728398 80.148133 
L 115.190018 76.318257 
L 114.651638 64.68175 
L 114.154664 80.038336 
L 113.616221 79.07347 
L 113.077777 98.067949 
L 112.580691 90.7026 
L 112.0422 91.953471 
L 111.503676 80.196998 
L 111.006527 85.645742 
L 110.467955 84.672129 
L 109.97079 81.83942 
L 109.432154 87.52431 
L 108.893487 84.999324 
L 108.396289 81.66431 
L 107.857574 92.63675 
L 107.318858 87.58271 
L 106.821549 88.851488 
L 106.282786 82.071999 
L 105.744022 90.071647 
L 105.246665 86.629718 
L 104.707822 93.558979 
L 104.210401 86.792385 
L 103.671542 86.318854 
L 103.132651 89.373264 
L 102.635166 85.781626 
L 102.096226 88.988612 
L 101.557255 88.552434 
L 101.059738 96.346028 
L 100.520703 92.753421 
L 99.981684 90.207479 
L 99.484103 92.39576 
L 98.945036 91.694663 
L 98.44736 87.361707 
L 97.908245 85.156371 
L 97.36913 93.794982 
L 96.871437 91.696123 
L 96.33221 88.418165 
L 95.793015 93.787476 
L 95.295275 92.331171 
L 94.756 81.400839 
L 94.258211 93.010433 
L 93.718937 85.545971 
L 93.179598 88.328576 
L 92.681745 92.226452 
L 92.142375 89.050539 
L 91.603004 83.238423 
L 91.105088 85.39054 
L 90.565669 90.833806 
L 90.067721 89.981825 
L 89.528238 83.167128 
L 88.988739 94.739344 
L 88.490711 86.075279 
L 87.951197 89.997381 
L 87.453153 95.107083 
L 86.913558 95.844473 
L 86.373964 94.962517 
L 85.875856 95.634504 
L 85.336213 93.511083 
L 84.796555 103.085412 
L 84.298383 101.867178 
L 83.758692 92.687166 
L 83.260472 93.440719 
L 82.720734 89.488087 
L 82.18098 93.285688 
L 81.682712 93.497866 
L 81.14291 95.497885 
L 80.644594 100.87651 
L 80.10476 98.857848 
L 79.564894 95.644518 
L 79.066546 104.990311 
L 78.526632 103.749996 
L 78.028236 99.226439 
L 77.488306 100.637988 
L 76.948328 98.83087 
L 76.449884 102.574516 
L 75.909874 108.687663 
L 75.369848 106.544371 
L 74.871341 111.736995 
L 74.331283 105.135458 
L 73.832727 103.007167 
L 73.832727 103.007167 
" clip-path="url(#pd7d600d262)" style="fill: none; stroke: #099e7d; stroke-width: 1.5; stroke-linecap: square"/>
   </g>
   <g id="line2d_60">
    <path d="M 398.487273 291.893725 
L 389.60251 291.965047 
L 378.065177 291.964876 
L 372.826995 291.855793 
L 362.89654 291.573994 
L 359.729353 291.521559 
L 354.513672 291.421829 
L 326.225243 291.140511 
L 316.294212 291.122074 
L 309.988028 291.146402 
L 296.384015 291.215436 
L 290.626008 291.22784 
L 286.405649 291.181585 
L 283.279277 291.136264 
L 272.30511 290.844928 
L 247.692987 289.72177 
L 239.81096 288.835737 
L 235.642028 287.832258 
L 231.961663 286.519477 
L 230.407202 285.600604 
L 228.811511 284.477788 
L 227.788479 283.606804 
L 224.636666 280.123099 
L 224.104407 279.493072 
L 223.572147 278.484495 
L 222.548444 277.139889 
L 219.9271 273.340382 
L 218.861943 271.949117 
L 218.3293 271.041608 
L 217.837632 270.729001 
L 216.772186 270.238881 
L 215.747588 269.209688 
L 215.214754 268.991718 
L 214.681887 268.623327 
L 213.657065 267.614231 
L 213.124071 267.414411 
L 212.591077 267.039195 
L 211.52496 265.756026 
L 211.032877 265.827149 
L 210.499723 266.315917 
L 209.966536 266.492347 
L 208.941139 266.199462 
L 207.874543 267.016846 
L 207.341197 266.939446 
L 206.848858 266.743961 
L 205.248501 267.073372 
L 204.715027 267.202246 
L 204.222528 267.782393 
L 203.155357 269.414998 
L 202.621691 270.144385 
L 201.595367 271.050988 
L 201.061638 271.661297 
L 200.035154 272.17609 
L 199.501296 272.464339 
L 197.940699 274.395035 
L 196.33868 276.948014 
L 195.845702 277.597059 
L 195.311621 277.904203 
L 191.119931 281.859603 
L 190.585531 282.432691 
L 189.023336 283.340385 
L 184.828674 285.495123 
L 182.236863 286.149902 
L 179.603213 286.695292 
L 176.968765 286.84361 
L 173.303997 286.93133 
L 163.373222 286.18181 
L 160.239435 285.865942 
L 159.167118 285.786846 
L 155.000487 285.294292 
L 153.927594 285.070224 
L 151.864015 284.398728 
L 150.790803 283.850953 
L 150.254165 283.399127 
L 148.189851 280.96314 
L 147.653117 280.131777 
L 146.62072 277.724499 
L 145.546964 273.418401 
L 143.97745 264.066057 
L 142.407664 247.25952 
L 140.837686 219.582672 
L 138.234241 150.839752 
L 137.696948 133.642313 
L 137.200949 121.896073 
L 136.663608 113.031886 
L 135.630204 102.044988 
L 135.092799 95.110326 
L 134.55533 92.316675 
L 134.059204 91.580421 
L 133.521687 95.162756 
L 132.98417 100.885464 
L 132.487979 95.012299 
L 131.950415 95.451513 
L 131.412818 98.734549 
L 130.916515 98.764253 
L 129.84121 92.398499 
L 129.344876 90.506637 
L 128.807167 91.991663 
L 128.269394 91.798866 
L 127.772996 95.345993 
L 126.697339 100.681568 
L 126.200877 94.708038 
L 125.662992 97.363092 
L 125.125108 101.382562 
L 124.628518 100.041468 
L 124.09057 96.932987 
L 123.552605 95.146206 
L 123.055999 91.373411 
L 122.517971 92.175365 
L 121.979927 92.110892 
L 121.483225 91.723398 
L 120.945117 81.632023 
L 120.406992 87.179879 
L 119.910259 95.928145 
L 119.372087 93.362396 
L 118.337053 91.956248 
L 117.798817 85.696364 
L 117.301971 88.675836 
L 116.763671 93.715574 
L 116.225339 94.103443 
L 115.728398 90.537982 
L 115.190018 89.696815 
L 114.651638 87.68491 
L 114.154664 87.695388 
L 113.616221 107.953296 
L 113.077777 103.861499 
L 112.580691 112.126789 
L 112.0422 111.010833 
L 111.503676 87.174711 
L 111.006527 90.069037 
L 110.467955 89.258389 
L 109.97079 91.318771 
L 109.432154 92.990923 
L 108.893487 91.710348 
L 108.396289 94.849709 
L 107.857574 90.307896 
L 107.318858 92.865208 
L 106.821549 98.276406 
L 106.282786 92.16194 
L 105.744022 91.71049 
L 105.246665 92.492533 
L 104.707822 94.031386 
L 104.210401 96.681479 
L 103.132651 93.819466 
L 102.635166 98.773749 
L 101.557255 91.450921 
L 101.059738 94.368116 
L 100.520703 93.708816 
L 99.981684 92.711973 
L 99.484103 90.200903 
L 98.945036 93.338157 
L 98.44736 99.148465 
L 97.908245 93.37542 
L 97.36913 93.410589 
L 96.871437 94.676732 
L 96.33221 101.34747 
L 95.295275 94.504258 
L 94.756 89.692758 
L 94.258211 98.198315 
L 93.718937 96.946075 
L 93.179598 96.978906 
L 92.681745 93.972146 
L 92.142375 95.16733 
L 91.603004 97.927789 
L 91.105088 92.999748 
L 90.565669 94.92435 
L 90.067721 98.94276 
L 89.528238 89.330536 
L 88.988739 98.562411 
L 88.490711 95.802004 
L 87.951197 94.954971 
L 87.453153 99.609541 
L 86.913558 95.284259 
L 86.373964 98.566687 
L 85.875856 103.340059 
L 85.336213 103.893399 
L 84.796555 103.999126 
L 84.298383 106.073592 
L 83.758692 97.311941 
L 83.260472 94.229713 
L 82.720734 99.516462 
L 82.18098 97.229431 
L 81.682712 97.101985 
L 81.14291 95.05504 
L 80.644594 104.267211 
L 80.10476 104.740768 
L 79.564894 104.228166 
L 79.066546 104.135475 
L 78.526632 104.798909 
L 78.028236 101.298153 
L 77.488306 100.148965 
L 76.948328 108.852734 
L 76.449884 104.964509 
L 75.909874 113.167524 
L 75.369848 113.823697 
L 74.871341 113.636119 
L 74.331283 110.68431 
L 73.832727 109.248006 
L 73.832727 109.248006 
" clip-path="url(#pd7d600d262)" style="fill: none; stroke: #64b5f6; stroke-width: 1.5; stroke-linecap: square"/>
   </g>
   <g id="patch_3">
    <path d="M 57.6 307.584 
L 57.6 41.472 
" style="fill: none; stroke: #000000; stroke-width: 0.8; stroke-linejoin: miter; stroke-linecap: square"/>
   </g>
   <g id="patch_4">
    <path d="M 414.72 307.584 
L 414.72 41.472 
" style="fill: none; stroke: #000000; stroke-width: 0.8; stroke-linejoin: miter; stroke-linecap: square"/>
   </g>
   <g id="patch_5">
    <path d="M 57.6 307.584 
L 414.72 307.584 
" style="fill: none; stroke: #000000; stroke-width: 0.8; stroke-linejoin: miter; stroke-linecap: square"/>
   </g>
   <g id="patch_6">
    <path d="M 57.6 41.472 
L 414.72 41.472 
" style="fill: none; stroke: #000000; stroke-width: 0.8; stroke-linejoin: miter; stroke-linecap: square"/>
   </g>
   <g id="text_15">
    <!-- UV-Vis: CS₂ -->
    <g transform="translate(203.110312 35.472)scale(0.12 -0.12)">
     <defs>
      <path id="DejaVuSans-55" d="M 556 4666 
L 1191 4666 
L 1191 1831 
Q 1191 1081 1462 751 
Q 1734 422 2344 422 
Q 2950 422 3222 751 
Q 3494 1081 3494 1831 
L 3494 4666 
L 4128 4666 
L 4128 1753 
Q 4128 841 3676 375 
Q 3225 -91 2344 -91 
Q 1459 -91 1007 375 
Q 556 841 556 1753 
L 556 4666 
z
" transform="scale(0.015625)"/>
      <path id="DejaVuSans-56" d="M 1831 0 
L 50 4666 
L 709 4666 
L 2188 738 
L 3669 4666 
L 4325 4666 
L 2547 0 
L 1831 0 
z
" transform="scale(0.015625)"/>
      <path id="DejaVuSans-2d" d="M 313 2009 
L 1997 2009 
L 1997 1497 
L 313 1497 
L 313 2009 
z
" transform="scale(0.015625)"/>
      <path id="DejaVuSans-69" d="M 603 3500 
L 1178 3500 
L 1178 0 
L 603 0 
L 603 3500 
z
M 603 4863 
L 1178 4863 
L 1178 4134 
L 603 4134 
L 603 4863 
z
" transform="scale(0.015625)"/>
      <path id="DejaVuSans-3a" d="M 750 794 
L 1409 794 
L 1409 0 
L 750 0 
L 750 794 
z
M 750 3309 
L 1409 3309 
L 1409 2516 
L 750 2516 
L 750 3309 
z
" transform="scale(0.015625)"/>
      <path id="DejaVuSans-20" transform="scale(0.015625)"/>
      <path id="DejaVuSans-43" d="M 4122 4306 
L 4122 3641 
Q 3803 3938 3442 4084 
Q 3081 4231 2675 4231 
Q 1875 4231 1450 3742 
Q 1025 3253 1025 2328 
Q 1025 1406 1450 917 
Q 1875 428 2675 428 
Q 3081 428 3442 575 
Q 3803 722 4122 1019 
L 4122 359 
Q 3791 134 3420 21 
Q 3050 -91 2638 -91 
Q 1578 -91 968 557 
Q 359 1206 359 2328 
Q 359 3453 968 4101 
Q 1578 4750 2638 4750 
Q 3056 4750 3426 4639 
Q 3797 4528 4122 4306 
z
" transform="scale(0.015625)"/>
      <path id="DejaVuSans-53" d="M 3425 4513 
L 3425 3897 
Q 3066 4069 2747 4153 
Q 2428 4238 2131 4238 
Q 1616 4238 1336 4038 
Q 1056 3838 1056 3469 
Q 1056 3159 1242 3001 
Q 1428 2844 1947 2747 
L 2328 2669 
Q 3034 2534 3370 2195 
Q 3706 1856 3706 1288 
Q 3706 609 3251 259 
Q 2797 -91 1919 -91 
Q 1588 -91 1214 -16 
Q 841 59 441 206 
L 441 856 
Q 825 641 1194 531 
Q 1563 422 1919 422 
Q 2459 422 2753 634 
Q 3047 847 3047 1241 
Q 3047 1584 2836 1778 
Q 2625 1972 2144 2069 
L 1759 2144 
Q 1053 2284 737 2584 
Q 422 2884 422 3419 
Q 422 4038 858 4394 
Q 1294 4750 2059 4750 
Q 2388 4750 2728 4690 
Q 3069 4631 3425 4513 
z
" transform="scale(0.015625)"/>
      <path id="DejaVuSans-2082" d="M 838 356 
L 2163 356 
L 2163 0 
L 294 0 
L 294 343 
Q 400 440 597 615 
Q 1672 1568 1672 1862 
Q 1672 2068 1509 2194 
Q 1347 2321 1081 2321 
Q 919 2321 728 2266 
Q 538 2212 313 2103 
L 313 2487 
Q 553 2575 761 2618 
Q 969 2662 1147 2662 
Q 1600 2662 1872 2456 
Q 2144 2250 2144 1912 
Q 2144 1478 1109 590 
Q 934 440 838 356 
z
" transform="scale(0.015625)"/>
     </defs>
     <use xlink:href="#DejaVuSans-55"/>
     <use xlink:href="#DejaVuSans-56" x="73.193359"/>
     <use xlink:href="#DejaVuSans-2d" x="135.726562"/>
     <use xlink:href="#DejaVuSans-56" x="165.935547"/>
     <use xlink:href="#DejaVuSans-69" x="232.09375"/>
     <use xlink:href="#DejaVuSans-73" x="259.876953"/>
     <use xlink:href="#DejaVuSans-3a" x="311.976562"/>
     <use xlink:href="#DejaVuSans-20" x="345.667969"/>
     <use xlink:href="#DejaVuSans-43" x="377.455078"/>
     <use xlink:href="#DejaVuSans-53" x="447.279297"/>
     <use xlink:href="#DejaVuSans-2082" x="510.755859"/>
    </g>
   </g>
   <g id="legend_1">
    <g id="patch_7">
     <path d="M 318.073125 78.82825 
L 407.72 78.82825 
Q 409.72 78.82825 409.72 76.82825 
L 409.72 48.472 
Q 409.72 46.472 407.72 46.472 
L 318.073125 46.472 
Q 316.073125 46.472 316.073125 48.472 
L 316.073125 76.82825 
Q 316.073125 78.82825 318.073125 78.82825 
z
" style="fill: #ffffff; opacity: 0.8; stroke: #cccccc; stroke-linejoin: miter"/>
    </g>
    <g id="line2d_61">
     <path d="M 320.073125 54.570437 
L 330.073125 54.570437 
L 340.073125 54.570437 
" style="fill: none; stroke: #099e7d; stroke-width: 1.5; stroke-linecap: square"/>
    </g>
    <g id="text_16">
     <!-- 1mm full -->
     <g transform="translate(348.073125 58.070437)scale(0.1 -0.1)">
      <defs>
       <path id="DejaVuSans-66" d="M 2375 4863 
L 2375 4384 
L 1825 4384 
Q 1516 4384 1395 4259 
Q 1275 4134 1275 3809 
L 1275 3500 
L 2222 3500 
L 2222 3053 
L 1275 3053 
L 1275 0 
L 697 0 
L 697 3053 
L 147 3053 
L 147 3500 
L 697 3500 
L 697 3744 
Q 697 4328 969 4595 
Q 1241 4863 1831 4863 
L 2375 4863 
z
" transform="scale(0.015625)"/>
       <path id="DejaVuSans-75" d="M 544 1381 
L 544 3500 
L 1119 3500 
L 1119 1403 
Q 1119 906 1312 657 
Q 1506 409 1894 409 
Q 2359 409 2629 706 
Q 2900 1003 2900 1516 
L 2900 3500 
L 3475 3500 
L 3475 0 
L 2900 0 
L 2900 538 
Q 2691 219 2414 64 
Q 2138 -91 1772 -91 
Q 1169 -91 856 284 
Q 544 659 544 1381 
z
M 1991 3584 
L 1991 3584 
z
" transform="scale(0.015625)"/>
       <path id="DejaVuSans-6c" d="M 603 4863 
L 1178 4863 
L 1178 0 
L 603 0 
L 603 4863 
z
" transform="scale(0.015625)"/>
      </defs>
      <use xlink:href="#DejaVuSans-31"/>
      <use xlink:href="#DejaVuSans-6d" x="63.623047"/>
      <use xlink:href="#DejaVuSans-6d" x="161.035156"/>
      <use xlink:href="#DejaVuSans-20" x="258.447266"/>
      <use xlink:href="#DejaVuSans-66" x="290.234375"/>
      <use xlink:href="#DejaVuSans-75" x="325.439453"/>
      <use xlink:href="#DejaVuSans-6c" x="388.818359"/>
      <use xlink:href="#DejaVuSans-6c" x="416.601562"/>
     </g>
    </g>
    <g id="line2d_62">
     <path d="M 320.073125 69.248562 
L 330.073125 69.248562 
L 340.073125 69.248562 
" style="fill: none; stroke: #64b5f6; stroke-width: 1.5; stroke-linecap: square"/>
    </g>
    <g id="text_17">
     <!-- 1mm vapor -->
     <g transform="translate(348.073125 72.748562)scale(0.1 -0.1)">
      <defs>
       <path id="DejaVuSans-76" d="M 191 3500 
L 800 3500 
L 1894 563 
L 2988 3500 
L 3597 3500 
L 2284 0 
L 1503 0 
L 191 3500 
z
" transform="scale(0.015625)"/>
       <path id="DejaVuSans-61" d="M 2194 1759 
Q 1497 1759 1228 1600 
Q 959 1441 959 1056 
Q 959 750 1161 570 
Q 1363 391 1709 391 
Q 2188 391 2477 730 
Q 2766 1069 2766 1631 
L 2766 1759 
L 2194 1759 
z
M 3341 1997 
L 3341 0 
L 2766 0 
L 2766 531 
Q 2569 213 2275 61 
Q 1981 -91 1556 -91 
Q 1019 -91 701 211 
Q 384 513 384 1019 
Q 384 1609 779 1909 
Q 1175 2209 1959 2209 
L 2766 2209 
L 2766 2266 
Q 2766 2663 2505 2880 
Q 2244 3097 1772 3097 
Q 1472 3097 1187 3025 
Q 903 2953 641 2809 
L 641 3341 
Q 956 3463 1253 3523 
Q 1550 3584 1831 3584 
Q 2591 3584 2966 3190 
Q 3341 2797 3341 1997 
z
" transform="scale(0.015625)"/>
       <path id="DejaVuSans-70" d="M 1159 525 
L 1159 -1331 
L 581 -1331 
L 581 3500 
L 1159 3500 
L 1159 2969 
Q 1341 3281 1617 3432 
Q 1894 3584 2278 3584 
Q 2916 3584 3314 3078 
Q 3713 2572 3713 1747 
Q 3713 922 3314 415 
Q 2916 -91 2278 -91 
Q 1894 -91 1617 61 
Q 1341 213 1159 525 
z
M 3116 1747 
Q 3116 2381 2855 2742 
Q 2594 3103 2138 3103 
Q 1681 3103 1420 2742 
Q 1159 2381 1159 1747 
Q 1159 1113 1420 752 
Q 1681 391 2138 391 
Q 2594 391 2855 752 
Q 3116 1113 3116 1747 
z
" transform="scale(0.015625)"/>
       <path id="DejaVuSans-6f" d="M 1959 3097 
Q 1497 3097 1228 2736 
Q 959 2375 959 1747 
Q 959 1119 1226 758 
Q 1494 397 1959 397 
Q 2419 397 2687 759 
Q 2956 1122 2956 1747 
Q 2956 2369 2687 2733 
Q 2419 3097 1959 3097 
z
M 1959 3584 
Q 2709 3584 3137 3096 
Q 3566 2609 3566 1747 
Q 3566 888 3137 398 
Q 2709 -91 1959 -91 
Q 1206 -91 779 398 
Q 353 888 353 1747 
Q 353 2609 779 3096 
Q 1206 3584 1959 3584 
z
" transform="scale(0.015625)"/>
       <path id="DejaVuSans-72" d="M 2631 2963 
Q 2534 3019 2420 3045 
Q 2306 3072 2169 3072 
Q 1681 3072 1420 2755 
Q 1159 2438 1159 1844 
L 1159 0 
L 581 0 
L 581 3500 
L 1159 3500 
L 1159 2956 
Q 1341 3275 1631 3429 
Q 1922 3584 2338 3584 
Q 2397 3584 2469 3576 
Q 2541 3569 2628 3553 
L 2631 2963 
z
" transform="scale(0.015625)"/>
      </defs>
      <use xlink:href="#DejaVuSans-31"/>
      <use xlink:href="#DejaVuSans-6d" x="63.623047"/>
      <use xlink:href="#DejaVuSans-6d" x="161.035156"/>
      <use xlink:href="#DejaVuSans-20" x="258.447266"/>
      <use xlink:href="#DejaVuSans-76" x="290.234375"/>
      <use xlink:href="#DejaVuSans-61" x="349.414062"/>
      <use xlink:href="#DejaVuSans-70" x="410.693359"/>
      <use xlink:href="#DejaVuSans-6f" x="474.169922"/>
      <use xlink:href="#DejaVuSans-72" x="535.351562"/>
     </g>
    </g>
   </g>
  </g>
 </g>
 <defs>
  <clipPath id="pd7d600d262">
   <rect x="57.6" y="41.472" width="357.12" height="266.112"/>
  </clipPath>
 </defs>
</svg>
