<?xml version="1.0" encoding="utf-8" standalone="no"?>
<!DOCTYPE svg PUBLIC "-//W3C//DTD SVG 1.1//EN"
  "http://www.w3.org/Graphics/SVG/1.1/DTD/svg11.dtd">
<svg xmlns:xlink="http://www.w3.org/1999/xlink" width="460.8pt" height="345.6pt" viewBox="0 0 460.8 345.6" xmlns="http://www.w3.org/2000/svg" version="1.1">
 <metadata>
  <rdf:RDF xmlns:dc="http://purl.org/dc/elements/1.1/" xmlns:cc="http://creativecommons.org/ns#" xmlns:rdf="http://www.w3.org/1999/02/22-rdf-syntax-ns#">
   <cc:Work>
    <dc:type rdf:resource="http://purl.org/dc/dcmitype/StillImage"/>
    <dc:date>2023-10-19T16:12:49.707814</dc:date>
    <dc:format>image/svg+xml</dc:format>
    <dc:creator>
     <cc:Agent>
      <dc:title>Matplotlib v3.5.2, https://matplotlib.org/</dc:title>
     </cc:Agent>
    </dc:creator>
   </cc:Work>
  </rdf:RDF>
 </metadata>
 <defs>
  <style type="text/css">*{stroke-linejoin: round; stroke-linecap: butt}</style>
 </defs>
 <g id="figure_1">
  <g id="patch_1">
   <path d="M 0 345.6 
L 460.8 345.6 
L 460.8 0 
L 0 0 
L 0 345.6 
z
" style="fill: none"/>
  </g>
  <g id="axes_1">
   <g id="patch_2">
    <path d="M 57.6 307.584 
L 414.72 307.584 
L 414.72 41.472 
L 57.6 41.472 
L 57.6 307.584 
z
" style="fill: none"/>
   </g>
   <g id="matplotlib.axis_1">
    <g id="xtick_1">
     <g id="line2d_1">
      <defs>
       <path id="m057e61230a" d="M 0 0 
L 0 -3.5 
" style="stroke: #000000; stroke-width: 0.8"/>
      </defs>
      <g>
       <use xlink:href="#m057e61230a" x="79.148207" y="307.584" style="stroke: #000000; stroke-width: 0.8"/>
      </g>
     </g>
     <g id="text_1">
      <!-- 200 -->
      <g transform="translate(69.604457 320.182437)scale(0.1 -0.1)">
       <defs>
        <path id="DejaVuSans-32" d="M 1228 531 
L 3431 531 
L 3431 0 
L 469 0 
L 469 531 
Q 828 903 1448 1529 
Q 2069 2156 2228 2338 
Q 2531 2678 2651 2914 
Q 2772 3150 2772 3378 
Q 2772 3750 2511 3984 
Q 2250 4219 1831 4219 
Q 1534 4219 1204 4116 
Q 875 4013 500 3803 
L 500 4441 
Q 881 4594 1212 4672 
Q 1544 4750 1819 4750 
Q 2544 4750 2975 4387 
Q 3406 4025 3406 3419 
Q 3406 3131 3298 2873 
Q 3191 2616 2906 2266 
Q 2828 2175 2409 1742 
Q 1991 1309 1228 531 
z
" transform="scale(0.015625)"/>
        <path id="DejaVuSans-30" d="M 2034 4250 
Q 1547 4250 1301 3770 
Q 1056 3291 1056 2328 
Q 1056 1369 1301 889 
Q 1547 409 2034 409 
Q 2525 409 2770 889 
Q 3016 1369 3016 2328 
Q 3016 3291 2770 3770 
Q 2525 4250 2034 4250 
z
M 2034 4750 
Q 2819 4750 3233 4129 
Q 3647 3509 3647 2328 
Q 3647 1150 3233 529 
Q 2819 -91 2034 -91 
Q 1250 -91 836 529 
Q 422 1150 422 2328 
Q 422 3509 836 4129 
Q 1250 4750 2034 4750 
z
" transform="scale(0.015625)"/>
       </defs>
       <use xlink:href="#DejaVuSans-32"/>
       <use xlink:href="#DejaVuSans-30" x="63.623047"/>
       <use xlink:href="#DejaVuSans-30" x="127.246094"/>
      </g>
     </g>
    </g>
    <g id="xtick_2">
     <g id="line2d_2">
      <g>
       <use xlink:href="#m057e61230a" x="132.372521" y="307.584" style="stroke: #000000; stroke-width: 0.8"/>
      </g>
     </g>
     <g id="text_2">
      <!-- 300 -->
      <g transform="translate(122.828771 320.182437)scale(0.1 -0.1)">
       <defs>
        <path id="DejaVuSans-33" d="M 2597 2516 
Q 3050 2419 3304 2112 
Q 3559 1806 3559 1356 
Q 3559 666 3084 287 
Q 2609 -91 1734 -91 
Q 1441 -91 1130 -33 
Q 819 25 488 141 
L 488 750 
Q 750 597 1062 519 
Q 1375 441 1716 441 
Q 2309 441 2620 675 
Q 2931 909 2931 1356 
Q 2931 1769 2642 2001 
Q 2353 2234 1838 2234 
L 1294 2234 
L 1294 2753 
L 1863 2753 
Q 2328 2753 2575 2939 
Q 2822 3125 2822 3475 
Q 2822 3834 2567 4026 
Q 2313 4219 1838 4219 
Q 1578 4219 1281 4162 
Q 984 4106 628 3988 
L 628 4550 
Q 988 4650 1302 4700 
Q 1616 4750 1894 4750 
Q 2613 4750 3031 4423 
Q 3450 4097 3450 3541 
Q 3450 3153 3228 2886 
Q 3006 2619 2597 2516 
z
" transform="scale(0.015625)"/>
       </defs>
       <use xlink:href="#DejaVuSans-33"/>
       <use xlink:href="#DejaVuSans-30" x="63.623047"/>
       <use xlink:href="#DejaVuSans-30" x="127.246094"/>
      </g>
     </g>
    </g>
    <g id="xtick_3">
     <g id="line2d_3">
      <g>
       <use xlink:href="#m057e61230a" x="185.596836" y="307.584" style="stroke: #000000; stroke-width: 0.8"/>
      </g>
     </g>
     <g id="text_3">
      <!-- 400 -->
      <g transform="translate(176.053086 320.182437)scale(0.1 -0.1)">
       <defs>
        <path id="DejaVuSans-34" d="M 2419 4116 
L 825 1625 
L 2419 1625 
L 2419 4116 
z
M 2253 4666 
L 3047 4666 
L 3047 1625 
L 3713 1625 
L 3713 1100 
L 3047 1100 
L 3047 0 
L 2419 0 
L 2419 1100 
L 313 1100 
L 313 1709 
L 2253 4666 
z
" transform="scale(0.015625)"/>
       </defs>
       <use xlink:href="#DejaVuSans-34"/>
       <use xlink:href="#DejaVuSans-30" x="63.623047"/>
       <use xlink:href="#DejaVuSans-30" x="127.246094"/>
      </g>
     </g>
    </g>
    <g id="xtick_4">
     <g id="line2d_4">
      <g>
       <use xlink:href="#m057e61230a" x="238.821151" y="307.584" style="stroke: #000000; stroke-width: 0.8"/>
      </g>
     </g>
     <g id="text_4">
      <!-- 500 -->
      <g transform="translate(229.277401 320.182437)scale(0.1 -0.1)">
       <defs>
        <path id="DejaVuSans-35" d="M 691 4666 
L 3169 4666 
L 3169 4134 
L 1269 4134 
L 1269 2991 
Q 1406 3038 1543 3061 
Q 1681 3084 1819 3084 
Q 2600 3084 3056 2656 
Q 3513 2228 3513 1497 
Q 3513 744 3044 326 
Q 2575 -91 1722 -91 
Q 1428 -91 1123 -41 
Q 819 9 494 109 
L 494 744 
Q 775 591 1075 516 
Q 1375 441 1709 441 
Q 2250 441 2565 725 
Q 2881 1009 2881 1497 
Q 2881 1984 2565 2268 
Q 2250 2553 1709 2553 
Q 1456 2553 1204 2497 
Q 953 2441 691 2322 
L 691 4666 
z
" transform="scale(0.015625)"/>
       </defs>
       <use xlink:href="#DejaVuSans-35"/>
       <use xlink:href="#DejaVuSans-30" x="63.623047"/>
       <use xlink:href="#DejaVuSans-30" x="127.246094"/>
      </g>
     </g>
    </g>
    <g id="xtick_5">
     <g id="line2d_5">
      <g>
       <use xlink:href="#m057e61230a" x="292.045465" y="307.584" style="stroke: #000000; stroke-width: 0.8"/>
      </g>
     </g>
     <g id="text_5">
      <!-- 600 -->
      <g transform="translate(282.501715 320.182437)scale(0.1 -0.1)">
       <defs>
        <path id="DejaVuSans-36" d="M 2113 2584 
Q 1688 2584 1439 2293 
Q 1191 2003 1191 1497 
Q 1191 994 1439 701 
Q 1688 409 2113 409 
Q 2538 409 2786 701 
Q 3034 994 3034 1497 
Q 3034 2003 2786 2293 
Q 2538 2584 2113 2584 
z
M 3366 4563 
L 3366 3988 
Q 3128 4100 2886 4159 
Q 2644 4219 2406 4219 
Q 1781 4219 1451 3797 
Q 1122 3375 1075 2522 
Q 1259 2794 1537 2939 
Q 1816 3084 2150 3084 
Q 2853 3084 3261 2657 
Q 3669 2231 3669 1497 
Q 3669 778 3244 343 
Q 2819 -91 2113 -91 
Q 1303 -91 875 529 
Q 447 1150 447 2328 
Q 447 3434 972 4092 
Q 1497 4750 2381 4750 
Q 2619 4750 2861 4703 
Q 3103 4656 3366 4563 
z
" transform="scale(0.015625)"/>
       </defs>
       <use xlink:href="#DejaVuSans-36"/>
       <use xlink:href="#DejaVuSans-30" x="63.623047"/>
       <use xlink:href="#DejaVuSans-30" x="127.246094"/>
      </g>
     </g>
    </g>
    <g id="xtick_6">
     <g id="line2d_6">
      <g>
       <use xlink:href="#m057e61230a" x="345.26978" y="307.584" style="stroke: #000000; stroke-width: 0.8"/>
      </g>
     </g>
     <g id="text_6">
      <!-- 700 -->
      <g transform="translate(335.72603 320.182437)scale(0.1 -0.1)">
       <defs>
        <path id="DejaVuSans-37" d="M 525 4666 
L 3525 4666 
L 3525 4397 
L 1831 0 
L 1172 0 
L 2766 4134 
L 525 4134 
L 525 4666 
z
" transform="scale(0.015625)"/>
       </defs>
       <use xlink:href="#DejaVuSans-37"/>
       <use xlink:href="#DejaVuSans-30" x="63.623047"/>
       <use xlink:href="#DejaVuSans-30" x="127.246094"/>
      </g>
     </g>
    </g>
    <g id="xtick_7">
     <g id="line2d_7">
      <g>
       <use xlink:href="#m057e61230a" x="398.494095" y="307.584" style="stroke: #000000; stroke-width: 0.8"/>
      </g>
     </g>
     <g id="text_7">
      <!-- 800 -->
      <g transform="translate(388.950345 320.182437)scale(0.1 -0.1)">
       <defs>
        <path id="DejaVuSans-38" d="M 2034 2216 
Q 1584 2216 1326 1975 
Q 1069 1734 1069 1313 
Q 1069 891 1326 650 
Q 1584 409 2034 409 
Q 2484 409 2743 651 
Q 3003 894 3003 1313 
Q 3003 1734 2745 1975 
Q 2488 2216 2034 2216 
z
M 1403 2484 
Q 997 2584 770 2862 
Q 544 3141 544 3541 
Q 544 4100 942 4425 
Q 1341 4750 2034 4750 
Q 2731 4750 3128 4425 
Q 3525 4100 3525 3541 
Q 3525 3141 3298 2862 
Q 3072 2584 2669 2484 
Q 3125 2378 3379 2068 
Q 3634 1759 3634 1313 
Q 3634 634 3220 271 
Q 2806 -91 2034 -91 
Q 1263 -91 848 271 
Q 434 634 434 1313 
Q 434 1759 690 2068 
Q 947 2378 1403 2484 
z
M 1172 3481 
Q 1172 3119 1398 2916 
Q 1625 2713 2034 2713 
Q 2441 2713 2670 2916 
Q 2900 3119 2900 3481 
Q 2900 3844 2670 4047 
Q 2441 4250 2034 4250 
Q 1625 4250 1398 4047 
Q 1172 3844 1172 3481 
z
" transform="scale(0.015625)"/>
       </defs>
       <use xlink:href="#DejaVuSans-38"/>
       <use xlink:href="#DejaVuSans-30" x="63.623047"/>
       <use xlink:href="#DejaVuSans-30" x="127.246094"/>
      </g>
     </g>
    </g>
    <g id="xtick_8">
     <g id="line2d_8">
      <defs>
       <path id="m4f255350db" d="M 0 0 
L 0 -2 
" style="stroke: #000000; stroke-width: 0.6"/>
      </defs>
      <g>
       <use xlink:href="#m4f255350db" x="57.858481" y="307.584" style="stroke: #000000; stroke-width: 0.6"/>
      </g>
     </g>
    </g>
    <g id="xtick_9">
     <g id="line2d_9">
      <g>
       <use xlink:href="#m4f255350db" x="68.503344" y="307.584" style="stroke: #000000; stroke-width: 0.6"/>
      </g>
     </g>
    </g>
    <g id="xtick_10">
     <g id="line2d_10">
      <g>
       <use xlink:href="#m4f255350db" x="89.79307" y="307.584" style="stroke: #000000; stroke-width: 0.6"/>
      </g>
     </g>
    </g>
    <g id="xtick_11">
     <g id="line2d_11">
      <g>
       <use xlink:href="#m4f255350db" x="100.437933" y="307.584" style="stroke: #000000; stroke-width: 0.6"/>
      </g>
     </g>
    </g>
    <g id="xtick_12">
     <g id="line2d_12">
      <g>
       <use xlink:href="#m4f255350db" x="111.082796" y="307.584" style="stroke: #000000; stroke-width: 0.6"/>
      </g>
     </g>
    </g>
    <g id="xtick_13">
     <g id="line2d_13">
      <g>
       <use xlink:href="#m4f255350db" x="121.727659" y="307.584" style="stroke: #000000; stroke-width: 0.6"/>
      </g>
     </g>
    </g>
    <g id="xtick_14">
     <g id="line2d_14">
      <g>
       <use xlink:href="#m4f255350db" x="143.017384" y="307.584" style="stroke: #000000; stroke-width: 0.6"/>
      </g>
     </g>
    </g>
    <g id="xtick_15">
     <g id="line2d_15">
      <g>
       <use xlink:href="#m4f255350db" x="153.662247" y="307.584" style="stroke: #000000; stroke-width: 0.6"/>
      </g>
     </g>
    </g>
    <g id="xtick_16">
     <g id="line2d_16">
      <g>
       <use xlink:href="#m4f255350db" x="164.30711" y="307.584" style="stroke: #000000; stroke-width: 0.6"/>
      </g>
     </g>
    </g>
    <g id="xtick_17">
     <g id="line2d_17">
      <g>
       <use xlink:href="#m4f255350db" x="174.951973" y="307.584" style="stroke: #000000; stroke-width: 0.6"/>
      </g>
     </g>
    </g>
    <g id="xtick_18">
     <g id="line2d_18">
      <g>
       <use xlink:href="#m4f255350db" x="196.241699" y="307.584" style="stroke: #000000; stroke-width: 0.6"/>
      </g>
     </g>
    </g>
    <g id="xtick_19">
     <g id="line2d_19">
      <g>
       <use xlink:href="#m4f255350db" x="206.886562" y="307.584" style="stroke: #000000; stroke-width: 0.6"/>
      </g>
     </g>
    </g>
    <g id="xtick_20">
     <g id="line2d_20">
      <g>
       <use xlink:href="#m4f255350db" x="217.531425" y="307.584" style="stroke: #000000; stroke-width: 0.6"/>
      </g>
     </g>
    </g>
    <g id="xtick_21">
     <g id="line2d_21">
      <g>
       <use xlink:href="#m4f255350db" x="228.176288" y="307.584" style="stroke: #000000; stroke-width: 0.6"/>
      </g>
     </g>
    </g>
    <g id="xtick_22">
     <g id="line2d_22">
      <g>
       <use xlink:href="#m4f255350db" x="249.466014" y="307.584" style="stroke: #000000; stroke-width: 0.6"/>
      </g>
     </g>
    </g>
    <g id="xtick_23">
     <g id="line2d_23">
      <g>
       <use xlink:href="#m4f255350db" x="260.110877" y="307.584" style="stroke: #000000; stroke-width: 0.6"/>
      </g>
     </g>
    </g>
    <g id="xtick_24">
     <g id="line2d_24">
      <g>
       <use xlink:href="#m4f255350db" x="270.75574" y="307.584" style="stroke: #000000; stroke-width: 0.6"/>
      </g>
     </g>
    </g>
    <g id="xtick_25">
     <g id="line2d_25">
      <g>
       <use xlink:href="#m4f255350db" x="281.400602" y="307.584" style="stroke: #000000; stroke-width: 0.6"/>
      </g>
     </g>
    </g>
    <g id="xtick_26">
     <g id="line2d_26">
      <g>
       <use xlink:href="#m4f255350db" x="302.690328" y="307.584" style="stroke: #000000; stroke-width: 0.6"/>
      </g>
     </g>
    </g>
    <g id="xtick_27">
     <g id="line2d_27">
      <g>
       <use xlink:href="#m4f255350db" x="313.335191" y="307.584" style="stroke: #000000; stroke-width: 0.6"/>
      </g>
     </g>
    </g>
    <g id="xtick_28">
     <g id="line2d_28">
      <g>
       <use xlink:href="#m4f255350db" x="323.980054" y="307.584" style="stroke: #000000; stroke-width: 0.6"/>
      </g>
     </g>
    </g>
    <g id="xtick_29">
     <g id="line2d_29">
      <g>
       <use xlink:href="#m4f255350db" x="334.624917" y="307.584" style="stroke: #000000; stroke-width: 0.6"/>
      </g>
     </g>
    </g>
    <g id="xtick_30">
     <g id="line2d_30">
      <g>
       <use xlink:href="#m4f255350db" x="355.914643" y="307.584" style="stroke: #000000; stroke-width: 0.6"/>
      </g>
     </g>
    </g>
    <g id="xtick_31">
     <g id="line2d_31">
      <g>
       <use xlink:href="#m4f255350db" x="366.559506" y="307.584" style="stroke: #000000; stroke-width: 0.6"/>
      </g>
     </g>
    </g>
    <g id="xtick_32">
     <g id="line2d_32">
      <g>
       <use xlink:href="#m4f255350db" x="377.204369" y="307.584" style="stroke: #000000; stroke-width: 0.6"/>
      </g>
     </g>
    </g>
    <g id="xtick_33">
     <g id="line2d_33">
      <g>
       <use xlink:href="#m4f255350db" x="387.849232" y="307.584" style="stroke: #000000; stroke-width: 0.6"/>
      </g>
     </g>
    </g>
    <g id="xtick_34">
     <g id="line2d_34">
      <g>
       <use xlink:href="#m4f255350db" x="409.138958" y="307.584" style="stroke: #000000; stroke-width: 0.6"/>
      </g>
     </g>
    </g>
    <g id="text_8">
     <!-- nm -->
     <g transform="translate(228.120937 333.860562)scale(0.1 -0.1)">
      <defs>
       <path id="DejaVuSans-6e" d="M 3513 2113 
L 3513 0 
L 2938 0 
L 2938 2094 
Q 2938 2591 2744 2837 
Q 2550 3084 2163 3084 
Q 1697 3084 1428 2787 
Q 1159 2491 1159 1978 
L 1159 0 
L 581 0 
L 581 3500 
L 1159 3500 
L 1159 2956 
Q 1366 3272 1645 3428 
Q 1925 3584 2291 3584 
Q 2894 3584 3203 3211 
Q 3513 2838 3513 2113 
z
" transform="scale(0.015625)"/>
       <path id="DejaVuSans-6d" d="M 3328 2828 
Q 3544 3216 3844 3400 
Q 4144 3584 4550 3584 
Q 5097 3584 5394 3201 
Q 5691 2819 5691 2113 
L 5691 0 
L 5113 0 
L 5113 2094 
Q 5113 2597 4934 2840 
Q 4756 3084 4391 3084 
Q 3944 3084 3684 2787 
Q 3425 2491 3425 1978 
L 3425 0 
L 2847 0 
L 2847 2094 
Q 2847 2600 2669 2842 
Q 2491 3084 2119 3084 
Q 1678 3084 1418 2786 
Q 1159 2488 1159 1978 
L 1159 0 
L 581 0 
L 581 3500 
L 1159 3500 
L 1159 2956 
Q 1356 3278 1631 3431 
Q 1906 3584 2284 3584 
Q 2666 3584 2933 3390 
Q 3200 3197 3328 2828 
z
" transform="scale(0.015625)"/>
      </defs>
      <use xlink:href="#DejaVuSans-6e"/>
      <use xlink:href="#DejaVuSans-6d" x="63.378906"/>
     </g>
    </g>
   </g>
   <g id="matplotlib.axis_2">
    <g id="ytick_1">
     <g id="line2d_35">
      <defs>
       <path id="m44e0e0a53c" d="M 0 0 
L 3.5 0 
" style="stroke: #000000; stroke-width: 0.8"/>
      </defs>
      <g>
       <use xlink:href="#m44e0e0a53c" x="57.6" y="295.815001" style="stroke: #000000; stroke-width: 0.8"/>
      </g>
     </g>
     <g id="text_9">
      <!-- 0 -->
      <g transform="translate(46.2375 299.61422)scale(0.1 -0.1)">
       <use xlink:href="#DejaVuSans-30"/>
      </g>
     </g>
    </g>
    <g id="ytick_2">
     <g id="line2d_36">
      <g>
       <use xlink:href="#m44e0e0a53c" x="57.6" y="247.365601" style="stroke: #000000; stroke-width: 0.8"/>
      </g>
     </g>
     <g id="text_10">
      <!-- 2 -->
      <g transform="translate(46.2375 251.16482)scale(0.1 -0.1)">
       <use xlink:href="#DejaVuSans-32"/>
      </g>
     </g>
    </g>
    <g id="ytick_3">
     <g id="line2d_37">
      <g>
       <use xlink:href="#m44e0e0a53c" x="57.6" y="198.916201" style="stroke: #000000; stroke-width: 0.8"/>
      </g>
     </g>
     <g id="text_11">
      <!-- 4 -->
      <g transform="translate(46.2375 202.71542)scale(0.1 -0.1)">
       <use xlink:href="#DejaVuSans-34"/>
      </g>
     </g>
    </g>
    <g id="ytick_4">
     <g id="line2d_38">
      <g>
       <use xlink:href="#m44e0e0a53c" x="57.6" y="150.466801" style="stroke: #000000; stroke-width: 0.8"/>
      </g>
     </g>
     <g id="text_12">
      <!-- 6 -->
      <g transform="translate(46.2375 154.266019)scale(0.1 -0.1)">
       <use xlink:href="#DejaVuSans-36"/>
      </g>
     </g>
    </g>
    <g id="ytick_5">
     <g id="line2d_39">
      <g>
       <use xlink:href="#m44e0e0a53c" x="57.6" y="102.0174" style="stroke: #000000; stroke-width: 0.8"/>
      </g>
     </g>
     <g id="text_13">
      <!-- 8 -->
      <g transform="translate(46.2375 105.816619)scale(0.1 -0.1)">
       <use xlink:href="#DejaVuSans-38"/>
      </g>
     </g>
    </g>
    <g id="ytick_6">
     <g id="line2d_40">
      <g>
       <use xlink:href="#m44e0e0a53c" x="57.6" y="53.568" style="stroke: #000000; stroke-width: 0.8"/>
      </g>
     </g>
     <g id="text_14">
      <!-- 10 -->
      <g transform="translate(39.875 57.367219)scale(0.1 -0.1)">
       <defs>
        <path id="DejaVuSans-31" d="M 794 531 
L 1825 531 
L 1825 4091 
L 703 3866 
L 703 4441 
L 1819 4666 
L 2450 4666 
L 2450 531 
L 3481 531 
L 3481 0 
L 794 0 
L 794 531 
z
" transform="scale(0.015625)"/>
       </defs>
       <use xlink:href="#DejaVuSans-31"/>
       <use xlink:href="#DejaVuSans-30" x="63.623047"/>
      </g>
     </g>
    </g>
    <g id="ytick_7">
     <g id="line2d_41">
      <defs>
       <path id="m6fca2c91b1" d="M 0 0 
L 2 0 
" style="stroke: #000000; stroke-width: 0.6"/>
      </defs>
      <g>
       <use xlink:href="#m6fca2c91b1" x="57.6" y="283.702651" style="stroke: #000000; stroke-width: 0.6"/>
      </g>
     </g>
    </g>
    <g id="ytick_8">
     <g id="line2d_42">
      <g>
       <use xlink:href="#m6fca2c91b1" x="57.6" y="271.590301" style="stroke: #000000; stroke-width: 0.6"/>
      </g>
     </g>
    </g>
    <g id="ytick_9">
     <g id="line2d_43">
      <g>
       <use xlink:href="#m6fca2c91b1" x="57.6" y="259.477951" style="stroke: #000000; stroke-width: 0.6"/>
      </g>
     </g>
    </g>
    <g id="ytick_10">
     <g id="line2d_44">
      <g>
       <use xlink:href="#m6fca2c91b1" x="57.6" y="235.253251" style="stroke: #000000; stroke-width: 0.6"/>
      </g>
     </g>
    </g>
    <g id="ytick_11">
     <g id="line2d_45">
      <g>
       <use xlink:href="#m6fca2c91b1" x="57.6" y="223.140901" style="stroke: #000000; stroke-width: 0.6"/>
      </g>
     </g>
    </g>
    <g id="ytick_12">
     <g id="line2d_46">
      <g>
       <use xlink:href="#m6fca2c91b1" x="57.6" y="211.028551" style="stroke: #000000; stroke-width: 0.6"/>
      </g>
     </g>
    </g>
    <g id="ytick_13">
     <g id="line2d_47">
      <g>
       <use xlink:href="#m6fca2c91b1" x="57.6" y="186.803851" style="stroke: #000000; stroke-width: 0.6"/>
      </g>
     </g>
    </g>
    <g id="ytick_14">
     <g id="line2d_48">
      <g>
       <use xlink:href="#m6fca2c91b1" x="57.6" y="174.691501" style="stroke: #000000; stroke-width: 0.6"/>
      </g>
     </g>
    </g>
    <g id="ytick_15">
     <g id="line2d_49">
      <g>
       <use xlink:href="#m6fca2c91b1" x="57.6" y="162.579151" style="stroke: #000000; stroke-width: 0.6"/>
      </g>
     </g>
    </g>
    <g id="ytick_16">
     <g id="line2d_50">
      <g>
       <use xlink:href="#m6fca2c91b1" x="57.6" y="138.35445" style="stroke: #000000; stroke-width: 0.6"/>
      </g>
     </g>
    </g>
    <g id="ytick_17">
     <g id="line2d_51">
      <g>
       <use xlink:href="#m6fca2c91b1" x="57.6" y="126.2421" style="stroke: #000000; stroke-width: 0.6"/>
      </g>
     </g>
    </g>
    <g id="ytick_18">
     <g id="line2d_52">
      <g>
       <use xlink:href="#m6fca2c91b1" x="57.6" y="114.12975" style="stroke: #000000; stroke-width: 0.6"/>
      </g>
     </g>
    </g>
    <g id="ytick_19">
     <g id="line2d_53">
      <g>
       <use xlink:href="#m6fca2c91b1" x="57.6" y="89.90505" style="stroke: #000000; stroke-width: 0.6"/>
      </g>
     </g>
    </g>
    <g id="ytick_20">
     <g id="line2d_54">
      <g>
       <use xlink:href="#m6fca2c91b1" x="57.6" y="77.7927" style="stroke: #000000; stroke-width: 0.6"/>
      </g>
     </g>
    </g>
    <g id="ytick_21">
     <g id="line2d_55">
      <g>
       <use xlink:href="#m6fca2c91b1" x="57.6" y="65.68035" style="stroke: #000000; stroke-width: 0.6"/>
      </g>
     </g>
    </g>
    <g id="text_15">
     <!-- Abs -->
     <g transform="translate(33.795313 183.727219)rotate(-90)scale(0.1 -0.1)">
      <defs>
       <path id="DejaVuSans-41" d="M 2188 4044 
L 1331 1722 
L 3047 1722 
L 2188 4044 
z
M 1831 4666 
L 2547 4666 
L 4325 0 
L 3669 0 
L 3244 1197 
L 1141 1197 
L 716 0 
L 50 0 
L 1831 4666 
z
" transform="scale(0.015625)"/>
       <path id="DejaVuSans-62" d="M 3116 1747 
Q 3116 2381 2855 2742 
Q 2594 3103 2138 3103 
Q 1681 3103 1420 2742 
Q 1159 2381 1159 1747 
Q 1159 1113 1420 752 
Q 1681 391 2138 391 
Q 2594 391 2855 752 
Q 3116 1113 3116 1747 
z
M 1159 2969 
Q 1341 3281 1617 3432 
Q 1894 3584 2278 3584 
Q 2916 3584 3314 3078 
Q 3713 2572 3713 1747 
Q 3713 922 3314 415 
Q 2916 -91 2278 -91 
Q 1894 -91 1617 61 
Q 1341 213 1159 525 
L 1159 0 
L 581 0 
L 581 4863 
L 1159 4863 
L 1159 2969 
z
" transform="scale(0.015625)"/>
       <path id="DejaVuSans-73" d="M 2834 3397 
L 2834 2853 
Q 2591 2978 2328 3040 
Q 2066 3103 1784 3103 
Q 1356 3103 1142 2972 
Q 928 2841 928 2578 
Q 928 2378 1081 2264 
Q 1234 2150 1697 2047 
L 1894 2003 
Q 2506 1872 2764 1633 
Q 3022 1394 3022 966 
Q 3022 478 2636 193 
Q 2250 -91 1575 -91 
Q 1294 -91 989 -36 
Q 684 19 347 128 
L 347 722 
Q 666 556 975 473 
Q 1284 391 1588 391 
Q 1994 391 2212 530 
Q 2431 669 2431 922 
Q 2431 1156 2273 1281 
Q 2116 1406 1581 1522 
L 1381 1569 
Q 847 1681 609 1914 
Q 372 2147 372 2553 
Q 372 3047 722 3315 
Q 1072 3584 1716 3584 
Q 2034 3584 2315 3537 
Q 2597 3491 2834 3397 
z
" transform="scale(0.015625)"/>
      </defs>
      <use xlink:href="#DejaVuSans-41"/>
      <use xlink:href="#DejaVuSans-62" x="68.408203"/>
      <use xlink:href="#DejaVuSans-73" x="131.884766"/>
     </g>
    </g>
   </g>
   <g id="line2d_56">
    <path d="M 238.820176 294.811889 
L 211.940907 294.588222 
L 206.091754 294.536452 
L 188.249898 294.473913 
L 181.613443 294.074821 
L 179.735534 293.730718 
L 178.682613 293.48231 
L 176.555183 292.669889 
L 175.480627 292.083047 
L 173.888868 290.764033 
L 173.351232 290.249844 
L 171.758514 287.60213 
L 171.489534 287.103965 
L 170.165066 283.224446 
L 169.088592 278.457448 
L 168.840143 277.212942 
L 168.301744 273.886459 
L 167.763264 269.405232 
L 167.224702 263.651817 
L 166.706769 257.106517 
L 166.168061 248.565749 
L 165.629272 238.551655 
L 165.380563 234.483494 
L 164.572176 217.139848 
L 163.784353 205.148653 
L 163.514788 207.657282 
L 163.245207 204.743575 
L 162.975609 207.246156 
L 162.705995 207.079477 
L 162.436365 207.900759 
L 162.187445 202.292905 
L 161.917766 207.740191 
L 161.648071 208.14218 
L 161.37836 209.603128 
L 161.108632 204.932218 
L 160.838872 202.7665 
L 160.589871 207.539939 
L 160.320078 210.1824 
L 160.05027 206.922548 
L 159.780445 205.950881 
L 159.510604 209.694695 
L 159.24073 208.642163 
L 158.991614 200.915183 
L 158.721692 208.921582 
L 158.181847 212.265117 
L 157.911909 206.512924 
L 157.662696 203.964161 
L 157.392709 208.528678 
L 157.122672 206.79575 
L 156.852653 201.240587 
L 156.5826 207.954281 
L 156.333306 197.561668 
L 156.063221 209.312695 
L 155.793104 204.613924 
L 155.252853 209.034097 
L 154.982687 202.459 
L 154.733312 211.280143 
L 154.192882 203.86858 
L 153.922651 208.935316 
L 153.652404 209.708637 
L 153.402915 203.581364 
L 153.132636 203.249266 
L 152.862307 205.041932 
L 152.321666 211.188582 
L 152.072096 204.292892 
L 151.801719 200.99402 
L 151.531326 203.187993 
L 151.2609 209.07489 
L 151.011281 204.01762 
L 150.740822 201.298667 
L 150.470364 197.340381 
L 150.199873 199.976148 
L 149.929382 206.800492 
L 149.679666 206.774375 
L 149.409142 201.152977 
L 149.13857 201.101816 
L 148.867998 205.126718 
L 148.59741 204.138781 
L 148.347612 207.357238 
L 148.076992 201.484959 
L 147.806322 208.403682 
L 147.535685 206.291718 
L 147.015137 197.116391 
L 146.744418 202.636248 
L 146.473684 198.861055 
L 146.202933 196.762727 
L 145.952989 200.940676 
L 145.682206 202.23613 
L 145.411407 199.183953 
L 145.140591 199.950296 
L 144.890598 196.461771 
L 144.619734 187.379518 
L 144.348869 205.487359 
L 144.077989 206.532018 
L 143.807075 205.464978 
L 143.286056 201.142043 
L 143.015094 205.005822 
L 142.744116 199.075123 
L 142.493994 205.854711 
L 142.222967 207.654972 
L 141.951956 200.731218 
L 141.680913 202.863703 
L 141.430709 196.61449 
L 141.159634 198.245906 
L 140.888542 198.276135 
L 140.617417 197.690603 
L 140.346309 192.556887 
L 140.096024 201.908878 
L 139.824868 197.839649 
L 139.553695 196.351815 
L 139.282489 200.45579 
L 139.032155 197.418144 
L 138.760917 200.509815 
L 138.489679 199.203561 
L 138.218425 196.262373 
L 137.968026 195.430072 
L 137.696723 192.67494 
L 137.42542 200.282331 
L 137.154101 192.224996 
L 136.903638 198.004993 
L 136.63227 198.080099 
L 136.360902 198.41095 
L 136.089501 200.607123 
L 135.838973 198.195265 
L 135.567556 193.157505 
L 135.296107 199.642843 
L 135.024658 198.627016 
L 134.774064 195.457183 
L 134.502582 195.479604 
L 134.231084 199.422422 
L 133.95957 191.853266 
L 133.708912 194.584591 
L 133.437365 187.317176 
L 133.165786 197.868954 
L 132.915095 196.131729 
L 132.6435 186.739233 
L 132.371888 200.922431 
L 132.10026 199.081926 
L 131.84952 199.820715 
L 131.306167 194.65726 
L 131.034458 197.260828 
L 130.783654 195.049493 
L 130.511928 197.849652 
L 130.240187 191.13099 
L 129.968429 198.743718 
L 129.717559 194.390981 
L 129.445785 201.125918 
L 129.173962 195.432301 
L 128.923044 195.864237 
L 128.379366 201.547526 
L 128.107494 196.048675 
L 127.856544 202.075343 
L 127.58464 197.849456 
L 127.312719 199.643363 
L 127.040783 192.19025 
L 126.517798 200.803794 
L 126.245829 200.629937 
L 125.722763 194.81654 
L 125.450746 201.128378 
L 125.178695 198.925863 
L 124.927566 199.502686 
L 124.655499 199.485735 
L 124.383417 188.954552 
L 124.132255 198.687891 
L 123.86014 202.443256 
L 123.588024 202.990051 
L 123.315877 207.402317 
L 123.06465 209.644239 
L 121.996818 229.852701 
L 121.201003 241.522402 
L 120.132781 250.661683 
L 119.609033 253.703612 
L 119.064283 255.966889 
L 118.540437 256.972915 
L 118.268029 257.060956 
L 117.995573 256.817144 
L 117.471598 255.795876 
L 116.947606 252.492187 
L 116.40258 245.851032 
L 116.130042 241.931437 
L 115.605872 228.95506 
L 115.081685 209.222584 
L 114.809066 203.438585 
L 114.536447 200.224228 
L 114.284766 199.406424 
L 114.012131 201.580326 
L 113.739463 191.907857 
L 113.487749 198.519635 
L 112.942349 194.989 
L 112.669633 204.268178 
L 112.145122 196.717827 
L 111.872373 196.45797 
L 111.620561 195.519271 
L 111.347796 191.937775 
L 111.074983 199.249662 
L 110.823139 196.015523 
L 110.550309 197.84167 
L 110.277463 201.814793 
L 109.752724 191.907927 
L 109.479845 197.669418 
L 109.22792 196.000403 
L 108.955009 197.932301 
L 108.68209 194.842957 
L 108.430148 200.322269 
L 108.157188 194.705902 
L 107.884237 199.020156 
L 107.359246 198.164851 
L 107.086237 199.483309 
L 106.834223 199.356904 
L 106.561182 198.850255 
L 106.288132 199.627549 
L 106.036069 197.972084 
L 105.762995 202.442614 
L 105.489914 199.255432 
L 105.237826 201.090629 
L 104.691582 198.013033 
L 104.439453 198.237473 
L 103.893128 205.154545 
L 103.640967 197.298392 
L 103.36778 195.197557 
L 103.094576 203.263988 
L 102.842358 203.06827 
L 102.569131 201.564137 
L 102.295895 201.995195 
L 102.043661 199.912501 
L 101.7704 199.857835 
L 101.497108 190.280542 
L 101.244841 192.988533 
L 100.971524 198.543766 
L 100.698199 197.081125 
L 100.4459 194.402936 
L 100.17255 193.314116 
L 99.899201 196.85293 
L 99.646837 195.201773 
L 99.373455 196.284702 
L 99.100064 192.315708 
L 98.57427 197.622404 
L 98.300839 198.245536 
L 98.048418 196.623396 
L 97.774955 195.847268 
L 97.501483 196.839623 
L 97.249046 195.91445 
L 96.97555 196.347448 
L 96.702055 197.726597 
L 96.449553 200.595612 
L 96.176024 195.645249 
L 95.92353 197.485303 
L 95.64997 201.712513 
L 95.376393 195.907993 
L 95.12385 198.621009 
L 94.850249 196.908988 
L 94.576647 191.70727 
L 94.324088 198.571928 
L 94.050455 198.140616 
L 93.776821 206.631474 
L 93.524205 203.339037 
L 93.250547 203.898197 
L 92.976872 198.642852 
L 92.724224 201.078535 
L 92.450525 200.643313 
L 92.197869 199.377043 
L 91.924138 201.918286 
L 91.397718 199.298766 
L 91.123946 204.203635 
L 90.850174 201.944392 
L 90.597444 202.511558 
L 90.323648 199.48101 
L 90.049852 203.05699 
L 89.797098 201.518388 
L 89.523261 204.615887 
L 89.270475 201.591103 
L 88.99663 201.379427 
L 88.722769 202.744801 
L 88.46995 201.139277 
L 88.196064 202.572855 
L 87.922162 202.377876 
L 87.669327 205.861746 
L 87.121467 203.117709 
L 86.868599 204.095908 
L 86.594649 203.782506 
L 86.341733 201.8456 
L 86.067758 200.859777 
L 85.793783 204.721385 
L 85.540858 203.783159 
L 85.266826 202.317855 
L 84.992811 204.718029 
L 84.739862 204.067036 
L 84.465806 199.18099 
L 84.212833 204.370678 
L 83.938777 201.033935 
L 83.664688 202.277807 
L 83.411683 204.020225 
L 83.137578 202.600537 
L 82.863473 200.002421 
L 82.610435 200.964455 
L 82.336306 203.397688 
L 82.083251 203.016838 
L 81.80909 199.970551 
L 81.53492 205.14353 
L 81.281825 201.270545 
L 80.754544 205.307916 
L 80.480325 205.637542 
L 80.206107 205.243293 
L 79.952971 205.543683 
L 79.678728 204.594477 
L 79.404477 208.874366 
L 79.151309 208.329795 
L 78.877042 204.226172 
L 78.62385 204.563023 
L 78.349558 202.796129 
L 78.075258 204.493721 
L 77.822041 204.588569 
L 77.547717 205.482611 
L 77.294476 207.886949 
L 77.020136 206.984572 
L 76.745779 205.548159 
L 76.492522 209.725889 
L 76.218141 209.171447 
L 75.964859 207.149339 
L 75.69047 207.780326 
L 75.416056 206.972513 
L 75.16275 208.645987 
L 74.888321 211.378669 
L 74.613883 210.42058 
L 74.360544 212.741773 
L 74.08609 209.790772 
L 73.832727 208.839389 
L 73.832727 208.839389 
" clip-path="url(#pd401df6def)" style="fill: none; stroke: #099e7d; stroke-width: 1.5; stroke-linecap: square"/>
   </g>
   <g id="line2d_57">
    <path d="M 238.820176 293.274923 
L 218.858735 293.099279 
L 205.29326 292.946809 
L 177.340213 292.885129 
L 161.37836 292.229061 
L 157.392709 291.758475 
L 154.982687 291.158613 
L 152.862307 290.171697 
L 151.011281 288.587397 
L 149.13857 286.317192 
L 148.076992 284.981261 
L 147.535685 284.359341 
L 147.264999 283.953669 
L 145.411407 282.872656 
L 144.890598 282.421573 
L 144.348869 282.164522 
L 143.807075 281.590923 
L 143.557002 281.622717 
L 143.015094 281.920072 
L 142.493994 281.789147 
L 141.951956 282.154531 
L 141.159634 282.097774 
L 140.346309 282.237409 
L 139.824868 282.896255 
L 139.032155 283.725632 
L 138.218425 284.375302 
L 137.696723 284.589654 
L 136.63227 285.861824 
L 135.567556 287.021367 
L 132.371888 289.451433 
L 129.968429 290.485477 
L 127.58464 290.951134 
L 125.178695 291.046691 
L 121.724572 290.92693 
L 114.809066 290.295756 
L 113.215066 289.797508 
L 112.669633 289.477692 
L 111.347796 288.017131 
L 110.823139 286.941036 
L 110.025602 283.772528 
L 109.479845 280.835478 
L 108.68209 273.322668 
L 107.884237 260.950641 
L 106.561182 230.221376 
L 106.036069 217.283055 
L 105.489914 210.938047 
L 104.96472 205.309366 
L 104.691582 204.060556 
L 104.439453 203.731438 
L 104.16629 205.332803 
L 103.893128 207.890952 
L 103.640967 205.265546 
L 103.36778 205.461883 
L 103.094576 206.929456 
L 102.842358 206.942734 
L 102.295895 204.097133 
L 102.043661 203.251438 
L 101.7704 203.91527 
L 101.497108 203.829086 
L 100.971524 206.731918 
L 100.698199 207.799807 
L 100.4459 205.129536 
L 100.17255 206.316391 
L 99.899201 208.113163 
L 99.646837 207.513671 
L 99.373455 206.124127 
L 99.100064 205.325405 
L 98.847692 203.638901 
L 98.57427 203.997388 
L 98.300839 203.968568 
L 98.048418 203.795351 
L 97.774955 199.284333 
L 97.501483 201.76432 
L 97.249046 205.674945 
L 96.97555 204.528011 
L 96.449553 203.899439 
L 96.176024 201.101163 
L 95.92353 202.433038 
L 95.64997 204.685888 
L 95.376393 204.859272 
L 95.12385 203.265449 
L 94.850249 202.889434 
L 94.576647 201.990077 
L 94.324088 201.994761 
L 94.050455 211.050394 
L 93.776821 209.22129 
L 93.524205 212.916017 
L 93.250547 212.417165 
L 92.976872 201.76201 
L 92.724224 203.055823 
L 92.450525 202.69345 
L 91.924138 204.361956 
L 91.65039 203.789518 
L 91.397718 205.192866 
L 91.123946 203.162597 
L 90.850174 204.30576 
L 90.597444 206.724658 
L 90.323648 203.991387 
L 90.049852 203.789581 
L 89.797098 204.139168 
L 89.523261 204.827061 
L 89.270475 206.011698 
L 88.722769 204.73233 
L 88.46995 206.946979 
L 87.922162 203.673549 
L 87.669327 204.977585 
L 87.121467 204.237261 
L 86.868599 203.114769 
L 86.594649 204.517176 
L 86.341733 207.114483 
L 86.067758 204.533833 
L 85.793783 204.549554 
L 85.540858 205.115542 
L 85.266826 208.097476 
L 84.739862 205.038443 
L 84.465806 202.88762 
L 84.212833 206.68975 
L 83.938777 206.129977 
L 83.664688 206.144653 
L 83.411683 204.80058 
L 83.137578 205.334848 
L 82.863473 206.56882 
L 82.610435 204.365901 
L 82.336306 205.226232 
L 82.083251 207.02253 
L 81.80909 202.725701 
L 81.53492 206.852507 
L 81.281825 205.618558 
L 81.007647 205.23992 
L 80.754544 207.320592 
L 80.480325 205.387117 
L 80.206107 206.854419 
L 79.952971 208.988198 
L 79.678728 209.23555 
L 79.404477 209.282812 
L 79.151309 210.210134 
L 78.877042 206.293525 
L 78.62385 204.915717 
L 78.349558 207.278985 
L 78.075258 206.256642 
L 77.822041 206.199672 
L 77.547717 205.284652 
L 77.294476 209.402651 
L 77.020136 209.614339 
L 76.745779 209.385197 
L 76.492522 209.343762 
L 76.218141 209.640329 
L 75.964859 208.075431 
L 75.69047 207.561724 
L 75.416056 211.452458 
L 75.16275 209.714355 
L 74.888321 213.381243 
L 74.613883 213.674564 
L 74.360544 213.590713 
L 74.08609 212.271204 
L 73.832727 211.629152 
L 73.832727 211.629152 
" clip-path="url(#pd401df6def)" style="fill: none; stroke: #e57373; stroke-width: 1.5; stroke-linecap: square"/>
   </g>
   <g id="line2d_58">
    <path d="M 238.820176 289.696533 
L 237.22153 289.704263 
L 235.358565 289.721813 
L 235.095189 289.772359 
L 234.304994 289.666017 
L 233.230697 289.711494 
L 232.967126 289.765353 
L 232.176249 289.656974 
L 221.792099 289.520329 
L 220.997957 289.44566 
L 220.468394 289.45139 
L 215.942638 289.320535 
L 215.412117 289.323286 
L 212.737631 289.249671 
L 210.081093 289.258127 
L 207.422135 289.160611 
L 206.623965 289.247665 
L 205.825617 289.156338 
L 205.027008 289.153013 
L 203.961937 289.157309 
L 202.630014 289.092994 
L 198.630751 289.05379 
L 198.097127 289.018684 
L 197.296537 289.065408 
L 196.516234 289.024201 
L 195.448191 289.031317 
L 177.877231 288.774765 
L 176.555183 288.677366 
L 165.629272 287.884919 
L 165.111144 287.879494 
L 160.838872 287.394964 
L 159.780445 287.199659 
L 157.662696 286.821868 
L 156.333306 286.338438 
L 154.192882 285.466578 
L 152.862307 284.510067 
L 151.011281 282.415015 
L 146.744418 275.331422 
L 143.557002 272.842435 
L 143.015094 272.794763 
L 141.680913 273.510725 
L 140.617417 273.422241 
L 140.346309 273.573612 
L 139.553695 274.797196 
L 139.282489 275.356952 
L 138.218425 276.342866 
L 137.42542 276.92607 
L 136.903638 277.573927 
L 136.360902 278.590809 
L 135.567556 279.552205 
L 133.95957 281.015621 
L 133.437365 281.499435 
L 132.915095 281.895031 
L 131.84952 282.509303 
L 130.783654 282.857553 
L 130.240187 283.072986 
L 129.445785 283.120491 
L 128.651205 283.237756 
L 127.040783 283.230613 
L 122.79247 282.112404 
L 119.336658 280.606196 
L 117.995573 279.86114 
L 117.471598 279.484604 
L 116.675101 279.118536 
L 115.333302 278.219511 
L 114.536447 277.605879 
L 114.012131 277.182242 
L 112.145122 275.205106 
L 111.347796 274.045852 
L 110.550309 272.572034 
L 110.025602 271.332905 
L 108.955009 268.081139 
L 108.157188 264.77588 
L 106.834223 257.115613 
L 105.237826 241.223577 
L 104.439453 232.706117 
L 103.893128 228.241251 
L 103.36778 224.541685 
L 103.094576 224.339382 
L 102.569131 222.877798 
L 102.043661 222.594862 
L 101.7704 222.951859 
L 101.497108 222.577749 
L 101.244841 222.658879 
L 100.698199 223.100651 
L 100.17255 222.616665 
L 99.899201 222.92063 
L 99.646837 222.728181 
L 99.373455 223.098872 
L 98.847692 221.90865 
L 98.57427 222.334804 
L 98.300839 221.619285 
L 98.048418 221.621861 
L 97.774955 221.739158 
L 97.501483 221.52855 
L 97.249046 222.165203 
L 96.702055 221.652004 
L 96.449553 221.805 
L 96.176024 221.789961 
L 95.92353 221.496906 
L 95.64997 221.889192 
L 95.376393 221.821195 
L 95.12385 221.15235 
L 94.850249 221.734896 
L 94.576647 221.408163 
L 94.324088 221.373053 
L 94.050455 222.315767 
L 93.776821 222.558112 
L 93.524205 223.311201 
L 93.250547 222.859588 
L 92.976872 221.123489 
L 92.724224 221.377495 
L 91.924138 221.336292 
L 91.65039 220.995825 
L 91.123946 221.64579 
L 90.850174 221.847353 
L 90.323648 220.868259 
L 89.797098 221.314217 
L 89.523261 221.063226 
L 89.270475 221.706694 
L 88.99663 221.139158 
L 88.46995 221.745396 
L 88.196064 221.265552 
L 87.922162 221.157201 
L 87.669327 221.363269 
L 86.868599 220.988865 
L 86.594649 221.615317 
L 86.341733 220.95573 
L 86.067758 220.852861 
L 85.793783 220.988703 
L 85.540858 220.876142 
L 85.266826 221.037756 
L 84.992811 221.425444 
L 84.739862 220.605318 
L 84.212833 220.885741 
L 83.938777 220.711606 
L 83.664688 220.874023 
L 82.083251 219.688178 
L 81.80909 219.08979 
L 81.53492 220.16882 
L 81.007647 219.313791 
L 80.754544 218.315164 
L 80.480325 218.608733 
L 80.206107 218.590793 
L 79.952971 217.932021 
L 79.678728 217.627056 
L 79.404477 217.94069 
L 78.877042 216.52478 
L 78.62385 217.698276 
L 78.349558 216.743514 
L 78.075258 216.717166 
L 77.822041 217.121014 
L 77.294476 216.430649 
L 77.020136 218.149005 
L 76.745779 216.709195 
L 76.492522 217.605144 
L 75.964859 218.651553 
L 75.69047 218.529976 
L 75.16275 219.798348 
L 74.613883 221.692844 
L 74.360544 221.315193 
L 74.08609 220.637442 
L 73.832727 220.76875 
L 73.832727 220.76875 
" clip-path="url(#pd401df6def)" style="fill: none; stroke: #64b5f6; stroke-width: 1.5; stroke-linecap: square"/>
   </g>
   <g id="line2d_59">
    <path d="M 398.487273 295.057319 
L 391.582243 295.084627 
L 387.855404 295.077957 
L 366.026191 295.362618 
L 362.840561 295.413611 
L 348.462199 295.244167 
L 336.754767 294.948773 
L 333.56865 294.866614 
L 328.768716 294.839232 
L 326.63552 294.81708 
L 323.45028 294.863038 
L 280.868327 294.954001 
L 279.278192 295.006544 
L 276.07437 295.047624 
L 273.424167 295.068768 
L 261.168443 295.204214 
L 255.84991 295.110749 
L 253.196166 295.073546 
L 248.927956 294.9762 
L 220.722366 294.906942 
L 216.992019 294.836558 
L 212.214938 294.818378 
L 206.345093 294.779919 
L 200.504663 294.81384 
L 196.235121 294.82741 
L 186.133627 294.919553 
L 180.813194 294.915204 
L 175.484395 294.838134 
L 169.629915 294.604685 
L 166.958093 294.317708 
L 165.362338 294.011883 
L 163.765917 293.376469 
L 162.168798 292.300429 
L 161.110614 291.21205 
L 160.571013 290.532632 
L 159.512374 289.527194 
L 158.99332 289.025148 
L 157.913468 287.322794 
L 157.394187 286.30252 
L 156.313896 283.191175 
L 155.254088 279.537903 
L 154.734481 277.483201 
L 153.653444 271.479172 
L 153.13361 267.582357 
L 151.532105 252.115741 
L 149.409646 224.942871 
L 148.868453 222.301403 
L 148.348002 216.974013 
L 147.806663 216.820688 
L 147.265259 215.610332 
L 146.744597 203.07136 
L 146.203063 215.445149 
L 145.682255 208.306138 
L 145.140575 210.094824 
L 144.619669 213.339578 
L 144.077842 207.808747 
L 143.556774 211.685666 
L 143.014834 204.133681 
L 142.493652 211.526559 
L 141.95155 201.451732 
L 141.430222 194.733486 
L 140.887989 198.812875 
L 140.366564 206.563403 
L 139.824202 208.944234 
L 139.281758 198.80822 
L 138.760121 213.25645 
L 137.695798 217.423789 
L 137.153094 221.379297 
L 136.08838 234.701754 
L 135.023391 244.999417 
L 133.43592 261.632008 
L 132.370296 270.334898 
L 131.304429 276.948794 
L 130.238335 282.240181 
L 128.649158 287.314135 
L 127.582463 289.505779 
L 126.515492 291.018212 
L 125.992377 291.592041 
L 123.857508 292.899909 
L 122.266204 293.345229 
L 120.653394 293.543059 
L 117.468187 293.556766 
L 115.874836 293.326515 
L 114.80533 292.709842 
L 114.280965 291.933078 
L 113.735598 290.537543 
L 113.211135 288.643805 
L 112.686607 285.44803 
L 112.141045 279.53428 
L 111.091762 261.122252 
L 110.546037 244.990476 
L 110.021282 223.496506 
L 109.496429 215.687661 
L 108.950542 214.349924 
L 108.425624 210.604002 
L 107.879624 210.351798 
L 107.354576 205.217874 
L 106.829496 205.345492 
L 106.283357 203.25581 
L 105.758147 207.605642 
L 105.232921 205.858795 
L 104.686611 197.358205 
L 104.161247 191.209342 
L 103.635858 196.850447 
L 103.089411 204.710463 
L 102.563908 192.875943 
L 101.512757 204.218334 
L 100.966091 206.29836 
L 100.440402 204.994427 
L 99.914656 206.819725 
L 99.367843 206.766398 
L 98.842007 196.542687 
L 98.316115 199.23602 
L 97.769148 198.203605 
L 97.243166 206.745982 
L 96.717136 188.384834 
L 96.170023 197.718488 
L 95.643903 193.235476 
L 95.117726 197.964102 
L 94.591518 192.850923 
L 94.044193 200.873552 
L 93.517878 223.12302 
L 92.991523 198.254869 
L 92.444069 199.847548 
L 91.917624 196.619387 
L 91.391123 204.38086 
L 90.864589 205.302256 
L 90.31694 191.874174 
L 89.790308 203.712708 
L 89.263637 205.951129 
L 88.736932 194.756774 
L 88.189088 201.389355 
L 87.662294 202.095887 
L 87.135436 197.981174 
L 86.608553 205.943777 
L 86.060538 205.752096 
L 85.533549 203.70565 
L 84.479458 205.391807 
L 83.931273 210.026383 
L 83.404122 202.173679 
L 82.876938 204.724313 
L 82.349698 205.058513 
L 81.801334 199.468927 
L 81.274012 210.32351 
L 80.746658 206.494939 
L 79.670729 208.686584 
L 79.143245 209.042056 
L 79.143245 209.042056 
" clip-path="url(#pd401df6def)" style="fill: none; stroke: #81c784; stroke-width: 1.5; stroke-linecap: square"/>
   </g>
   <g id="line2d_60">
    <path d="M 398.487273 295.086081 
L 395.299044 295.007916 
L 393.702087 295.010443 
L 390.502489 295.090749 
L 385.726594 295.058838 
L 354.313236 295.402741 
L 352.728331 295.355543 
L 330.357259 294.843546 
L 328.245374 294.851693 
L 323.45028 294.862797 
L 292.578488 294.846951 
L 289.909411 294.887882 
L 287.256674 294.884565 
L 285.135985 294.924587 
L 282.993304 294.924806 
L 279.795102 294.997173 
L 256.914591 295.140396 
L 254.262017 295.106579 
L 244.672447 294.946011 
L 242.006521 294.95347 
L 237.233192 294.994285 
L 232.43066 295.03886 
L 221.251962 294.920931 
L 204.747779 294.781038 
L 179.739839 294.911729 
L 173.892441 294.797846 
L 166.958093 294.334614 
L 164.844096 293.854387 
L 163.765917 293.376081 
L 162.708172 292.767285 
L 159.512374 289.549815 
L 158.453426 288.326062 
L 157.394187 286.3298 
L 156.313896 283.10969 
L 155.794403 281.488432 
L 154.194003 274.75443 
L 153.13361 267.614129 
L 151.532105 252.273043 
L 150.471014 236.96906 
L 149.929951 229.383779 
L 148.868453 222.133881 
L 148.348002 213.551266 
L 147.806663 216.946238 
L 147.265259 213.558999 
L 146.744597 213.138188 
L 146.203063 210.587167 
L 145.682255 209.500767 
L 145.140575 210.744159 
L 144.619669 215.035456 
L 144.077842 209.706546 
L 143.556774 200.228023 
L 143.014834 206.459309 
L 142.493652 207.954241 
L 141.95155 208.709062 
L 141.430222 205.101016 
L 140.887989 208.550678 
L 140.366564 53.568 
L 139.824202 192.92179 
L 139.281758 213.625269 
L 138.760121 212.456676 
L 138.217564 212.966057 
L 137.695798 216.403093 
L 137.153094 221.36901 
L 136.631198 228.468632 
L 133.979062 256.796317 
L 132.913568 266.177755 
L 131.304429 276.964519 
L 130.238335 282.127127 
L 128.649158 287.296848 
L 127.582463 289.440307 
L 126.515492 291.01008 
L 125.992377 291.568555 
L 124.380834 292.667379 
L 123.334101 293.076833 
L 121.198047 293.500347 
L 119.06105 293.573636 
L 116.94413 293.523347 
L 115.874836 293.317635 
L 115.350584 293.087118 
L 114.80533 292.717967 
L 114.280965 291.82837 
L 113.735598 290.513549 
L 113.211135 288.416948 
L 112.686607 285.231185 
L 112.141045 279.382405 
L 111.091762 260.934449 
L 110.546037 244.587702 
L 110.021282 223.218774 
L 109.496429 216.269139 
L 108.950542 216.745922 
L 108.425624 211.586834 
L 107.879624 210.042497 
L 107.354576 204.135084 
L 106.829496 207.100431 
L 106.283357 206.24717 
L 105.758147 204.722338 
L 104.686611 196.060227 
L 104.161247 205.338013 
L 103.635858 200.112112 
L 103.089411 203.57556 
L 102.563908 192.948913 
L 102.038365 199.688233 
L 101.512757 201.505457 
L 100.966091 205.346278 
L 100.440402 205.05443 
L 99.914656 210.091249 
L 99.367843 199.883421 
L 98.842007 208.938747 
L 97.769148 202.627631 
L 97.243166 208.798273 
L 96.717136 196.563861 
L 95.643903 204.591739 
L 95.117726 197.966839 
L 94.591518 204.605682 
L 94.044193 198.338443 
L 93.517878 222.774605 
L 92.991523 201.631152 
L 92.444069 202.53164 
L 91.917624 196.027687 
L 91.391123 200.945805 
L 90.864589 194.130581 
L 89.790308 204.514548 
L 89.263637 205.623248 
L 88.736932 199.276934 
L 88.189088 200.79412 
L 87.662294 209.0858 
L 87.135436 208.807028 
L 86.608553 203.089651 
L 86.060538 208.85704 
L 85.533549 208.372794 
L 85.006536 203.167813 
L 84.479458 203.21988 
L 83.931273 199.517102 
L 83.404122 204.861184 
L 82.876938 203.690558 
L 82.349698 200.906046 
L 81.801334 208.626425 
L 81.274012 194.088338 
L 80.746658 206.320371 
L 80.219263 200.423221 
L 79.670729 202.463239 
L 79.143245 209.027888 
L 79.143245 209.027888 
" clip-path="url(#pd401df6def)" style="fill: none; stroke: #099e7d; stroke-width: 1.5; stroke-linecap: square"/>
   </g>
   <g id="patch_3">
    <path d="M 57.6 307.584 
L 57.6 41.472 
" style="fill: none; stroke: #000000; stroke-width: 0.8; stroke-linejoin: miter; stroke-linecap: square"/>
   </g>
   <g id="patch_4">
    <path d="M 414.72 307.584 
L 414.72 41.472 
" style="fill: none; stroke: #000000; stroke-width: 0.8; stroke-linejoin: miter; stroke-linecap: square"/>
   </g>
   <g id="patch_5">
    <path d="M 57.6 307.584 
L 414.72 307.584 
" style="fill: none; stroke: #000000; stroke-width: 0.8; stroke-linejoin: miter; stroke-linecap: square"/>
   </g>
   <g id="patch_6">
    <path d="M 57.6 41.472 
L 414.72 41.472 
" style="fill: none; stroke: #000000; stroke-width: 0.8; stroke-linejoin: miter; stroke-linecap: square"/>
   </g>
   <g id="text_16">
    <!-- UV-Vis: CS₂ -->
    <g transform="translate(203.110312 35.472)scale(0.12 -0.12)">
     <defs>
      <path id="DejaVuSans-55" d="M 556 4666 
L 1191 4666 
L 1191 1831 
Q 1191 1081 1462 751 
Q 1734 422 2344 422 
Q 2950 422 3222 751 
Q 3494 1081 3494 1831 
L 3494 4666 
L 4128 4666 
L 4128 1753 
Q 4128 841 3676 375 
Q 3225 -91 2344 -91 
Q 1459 -91 1007 375 
Q 556 841 556 1753 
L 556 4666 
z
" transform="scale(0.015625)"/>
      <path id="DejaVuSans-56" d="M 1831 0 
L 50 4666 
L 709 4666 
L 2188 738 
L 3669 4666 
L 4325 4666 
L 2547 0 
L 1831 0 
z
" transform="scale(0.015625)"/>
      <path id="DejaVuSans-2d" d="M 313 2009 
L 1997 2009 
L 1997 1497 
L 313 1497 
L 313 2009 
z
" transform="scale(0.015625)"/>
      <path id="DejaVuSans-69" d="M 603 3500 
L 1178 3500 
L 1178 0 
L 603 0 
L 603 3500 
z
M 603 4863 
L 1178 4863 
L 1178 4134 
L 603 4134 
L 603 4863 
z
" transform="scale(0.015625)"/>
      <path id="DejaVuSans-3a" d="M 750 794 
L 1409 794 
L 1409 0 
L 750 0 
L 750 794 
z
M 750 3309 
L 1409 3309 
L 1409 2516 
L 750 2516 
L 750 3309 
z
" transform="scale(0.015625)"/>
      <path id="DejaVuSans-20" transform="scale(0.015625)"/>
      <path id="DejaVuSans-43" d="M 4122 4306 
L 4122 3641 
Q 3803 3938 3442 4084 
Q 3081 4231 2675 4231 
Q 1875 4231 1450 3742 
Q 1025 3253 1025 2328 
Q 1025 1406 1450 917 
Q 1875 428 2675 428 
Q 3081 428 3442 575 
Q 3803 722 4122 1019 
L 4122 359 
Q 3791 134 3420 21 
Q 3050 -91 2638 -91 
Q 1578 -91 968 557 
Q 359 1206 359 2328 
Q 359 3453 968 4101 
Q 1578 4750 2638 4750 
Q 3056 4750 3426 4639 
Q 3797 4528 4122 4306 
z
" transform="scale(0.015625)"/>
      <path id="DejaVuSans-53" d="M 3425 4513 
L 3425 3897 
Q 3066 4069 2747 4153 
Q 2428 4238 2131 4238 
Q 1616 4238 1336 4038 
Q 1056 3838 1056 3469 
Q 1056 3159 1242 3001 
Q 1428 2844 1947 2747 
L 2328 2669 
Q 3034 2534 3370 2195 
Q 3706 1856 3706 1288 
Q 3706 609 3251 259 
Q 2797 -91 1919 -91 
Q 1588 -91 1214 -16 
Q 841 59 441 206 
L 441 856 
Q 825 641 1194 531 
Q 1563 422 1919 422 
Q 2459 422 2753 634 
Q 3047 847 3047 1241 
Q 3047 1584 2836 1778 
Q 2625 1972 2144 2069 
L 1759 2144 
Q 1053 2284 737 2584 
Q 422 2884 422 3419 
Q 422 4038 858 4394 
Q 1294 4750 2059 4750 
Q 2388 4750 2728 4690 
Q 3069 4631 3425 4513 
z
" transform="scale(0.015625)"/>
      <path id="DejaVuSans-2082" d="M 838 356 
L 2163 356 
L 2163 0 
L 294 0 
L 294 343 
Q 400 440 597 615 
Q 1672 1568 1672 1862 
Q 1672 2068 1509 2194 
Q 1347 2321 1081 2321 
Q 919 2321 728 2266 
Q 538 2212 313 2103 
L 313 2487 
Q 553 2575 761 2618 
Q 969 2662 1147 2662 
Q 1600 2662 1872 2456 
Q 2144 2250 2144 1912 
Q 2144 1478 1109 590 
Q 934 440 838 356 
z
" transform="scale(0.015625)"/>
     </defs>
     <use xlink:href="#DejaVuSans-55"/>
     <use xlink:href="#DejaVuSans-56" x="73.193359"/>
     <use xlink:href="#DejaVuSans-2d" x="135.726562"/>
     <use xlink:href="#DejaVuSans-56" x="165.935547"/>
     <use xlink:href="#DejaVuSans-69" x="232.09375"/>
     <use xlink:href="#DejaVuSans-73" x="259.876953"/>
     <use xlink:href="#DejaVuSans-3a" x="311.976562"/>
     <use xlink:href="#DejaVuSans-20" x="345.667969"/>
     <use xlink:href="#DejaVuSans-43" x="377.455078"/>
     <use xlink:href="#DejaVuSans-53" x="447.279297"/>
     <use xlink:href="#DejaVuSans-2082" x="510.755859"/>
    </g>
   </g>
   <g id="legend_1">
    <g id="patch_7">
     <path d="M 309.424688 122.862625 
L 407.72 122.862625 
Q 409.72 122.862625 409.72 120.862625 
L 409.72 48.472 
Q 409.72 46.472 407.72 46.472 
L 309.424688 46.472 
Q 307.424688 46.472 307.424688 48.472 
L 307.424688 120.862625 
Q 307.424688 122.862625 309.424688 122.862625 
z
" style="fill: #ffffff; opacity: 0.8; stroke: #cccccc; stroke-linejoin: miter"/>
    </g>
    <g id="line2d_61">
     <path d="M 311.424688 54.570438 
L 321.424688 54.570438 
L 331.424688 54.570438 
" style="fill: none; stroke: #099e7d; stroke-width: 1.5; stroke-linecap: square"/>
    </g>
    <g id="text_17">
     <!-- 1mm full -->
     <g transform="translate(339.424688 58.070438)scale(0.1 -0.1)">
      <defs>
       <path id="DejaVuSans-66" d="M 2375 4863 
L 2375 4384 
L 1825 4384 
Q 1516 4384 1395 4259 
Q 1275 4134 1275 3809 
L 1275 3500 
L 2222 3500 
L 2222 3053 
L 1275 3053 
L 1275 0 
L 697 0 
L 697 3053 
L 147 3053 
L 147 3500 
L 697 3500 
L 697 3744 
Q 697 4328 969 4595 
Q 1241 4863 1831 4863 
L 2375 4863 
z
" transform="scale(0.015625)"/>
       <path id="DejaVuSans-75" d="M 544 1381 
L 544 3500 
L 1119 3500 
L 1119 1403 
Q 1119 906 1312 657 
Q 1506 409 1894 409 
Q 2359 409 2629 706 
Q 2900 1003 2900 1516 
L 2900 3500 
L 3475 3500 
L 3475 0 
L 2900 0 
L 2900 538 
Q 2691 219 2414 64 
Q 2138 -91 1772 -91 
Q 1169 -91 856 284 
Q 544 659 544 1381 
z
M 1991 3584 
L 1991 3584 
z
" transform="scale(0.015625)"/>
       <path id="DejaVuSans-6c" d="M 603 4863 
L 1178 4863 
L 1178 0 
L 603 0 
L 603 4863 
z
" transform="scale(0.015625)"/>
      </defs>
      <use xlink:href="#DejaVuSans-31"/>
      <use xlink:href="#DejaVuSans-6d" x="63.623047"/>
      <use xlink:href="#DejaVuSans-6d" x="161.035156"/>
      <use xlink:href="#DejaVuSans-20" x="258.447266"/>
      <use xlink:href="#DejaVuSans-66" x="290.234375"/>
      <use xlink:href="#DejaVuSans-75" x="325.439453"/>
      <use xlink:href="#DejaVuSans-6c" x="388.818359"/>
      <use xlink:href="#DejaVuSans-6c" x="416.601562"/>
     </g>
    </g>
    <g id="line2d_62">
     <path d="M 311.424688 69.248563 
L 321.424688 69.248563 
L 331.424688 69.248563 
" style="fill: none; stroke: #e57373; stroke-width: 1.5; stroke-linecap: square"/>
    </g>
    <g id="text_18">
     <!-- 1mm vapor -->
     <g transform="translate(339.424688 72.748563)scale(0.1 -0.1)">
      <defs>
       <path id="DejaVuSans-76" d="M 191 3500 
L 800 3500 
L 1894 563 
L 2988 3500 
L 3597 3500 
L 2284 0 
L 1503 0 
L 191 3500 
z
" transform="scale(0.015625)"/>
       <path id="DejaVuSans-61" d="M 2194 1759 
Q 1497 1759 1228 1600 
Q 959 1441 959 1056 
Q 959 750 1161 570 
Q 1363 391 1709 391 
Q 2188 391 2477 730 
Q 2766 1069 2766 1631 
L 2766 1759 
L 2194 1759 
z
M 3341 1997 
L 3341 0 
L 2766 0 
L 2766 531 
Q 2569 213 2275 61 
Q 1981 -91 1556 -91 
Q 1019 -91 701 211 
Q 384 513 384 1019 
Q 384 1609 779 1909 
Q 1175 2209 1959 2209 
L 2766 2209 
L 2766 2266 
Q 2766 2663 2505 2880 
Q 2244 3097 1772 3097 
Q 1472 3097 1187 3025 
Q 903 2953 641 2809 
L 641 3341 
Q 956 3463 1253 3523 
Q 1550 3584 1831 3584 
Q 2591 3584 2966 3190 
Q 3341 2797 3341 1997 
z
" transform="scale(0.015625)"/>
       <path id="DejaVuSans-70" d="M 1159 525 
L 1159 -1331 
L 581 -1331 
L 581 3500 
L 1159 3500 
L 1159 2969 
Q 1341 3281 1617 3432 
Q 1894 3584 2278 3584 
Q 2916 3584 3314 3078 
Q 3713 2572 3713 1747 
Q 3713 922 3314 415 
Q 2916 -91 2278 -91 
Q 1894 -91 1617 61 
Q 1341 213 1159 525 
z
M 3116 1747 
Q 3116 2381 2855 2742 
Q 2594 3103 2138 3103 
Q 1681 3103 1420 2742 
Q 1159 2381 1159 1747 
Q 1159 1113 1420 752 
Q 1681 391 2138 391 
Q 2594 391 2855 752 
Q 3116 1113 3116 1747 
z
" transform="scale(0.015625)"/>
       <path id="DejaVuSans-6f" d="M 1959 3097 
Q 1497 3097 1228 2736 
Q 959 2375 959 1747 
Q 959 1119 1226 758 
Q 1494 397 1959 397 
Q 2419 397 2687 759 
Q 2956 1122 2956 1747 
Q 2956 2369 2687 2733 
Q 2419 3097 1959 3097 
z
M 1959 3584 
Q 2709 3584 3137 3096 
Q 3566 2609 3566 1747 
Q 3566 888 3137 398 
Q 2709 -91 1959 -91 
Q 1206 -91 779 398 
Q 353 888 353 1747 
Q 353 2609 779 3096 
Q 1206 3584 1959 3584 
z
" transform="scale(0.015625)"/>
       <path id="DejaVuSans-72" d="M 2631 2963 
Q 2534 3019 2420 3045 
Q 2306 3072 2169 3072 
Q 1681 3072 1420 2755 
Q 1159 2438 1159 1844 
L 1159 0 
L 581 0 
L 581 3500 
L 1159 3500 
L 1159 2956 
Q 1341 3275 1631 3429 
Q 1922 3584 2338 3584 
Q 2397 3584 2469 3576 
Q 2541 3569 2628 3553 
L 2631 2963 
z
" transform="scale(0.015625)"/>
      </defs>
      <use xlink:href="#DejaVuSans-31"/>
      <use xlink:href="#DejaVuSans-6d" x="63.623047"/>
      <use xlink:href="#DejaVuSans-6d" x="161.035156"/>
      <use xlink:href="#DejaVuSans-20" x="258.447266"/>
      <use xlink:href="#DejaVuSans-76" x="290.234375"/>
      <use xlink:href="#DejaVuSans-61" x="349.414062"/>
      <use xlink:href="#DejaVuSans-70" x="410.693359"/>
      <use xlink:href="#DejaVuSans-6f" x="474.169922"/>
      <use xlink:href="#DejaVuSans-72" x="535.351562"/>
     </g>
    </g>
    <g id="line2d_63">
     <path d="M 311.424688 83.926688 
L 321.424688 83.926688 
L 331.424688 83.926688 
" style="fill: none; stroke: #64b5f6; stroke-width: 1.5; stroke-linecap: square"/>
    </g>
    <g id="text_19">
     <!-- 10um bubble -->
     <g transform="translate(339.424688 87.426688)scale(0.1 -0.1)">
      <defs>
       <path id="DejaVuSans-65" d="M 3597 1894 
L 3597 1613 
L 953 1613 
Q 991 1019 1311 708 
Q 1631 397 2203 397 
Q 2534 397 2845 478 
Q 3156 559 3463 722 
L 3463 178 
Q 3153 47 2828 -22 
Q 2503 -91 2169 -91 
Q 1331 -91 842 396 
Q 353 884 353 1716 
Q 353 2575 817 3079 
Q 1281 3584 2069 3584 
Q 2775 3584 3186 3129 
Q 3597 2675 3597 1894 
z
M 3022 2063 
Q 3016 2534 2758 2815 
Q 2500 3097 2075 3097 
Q 1594 3097 1305 2825 
Q 1016 2553 972 2059 
L 3022 2063 
z
" transform="scale(0.015625)"/>
      </defs>
      <use xlink:href="#DejaVuSans-31"/>
      <use xlink:href="#DejaVuSans-30" x="63.623047"/>
      <use xlink:href="#DejaVuSans-75" x="127.246094"/>
      <use xlink:href="#DejaVuSans-6d" x="190.625"/>
      <use xlink:href="#DejaVuSans-20" x="288.037109"/>
      <use xlink:href="#DejaVuSans-62" x="319.824219"/>
      <use xlink:href="#DejaVuSans-75" x="383.300781"/>
      <use xlink:href="#DejaVuSans-62" x="446.679688"/>
      <use xlink:href="#DejaVuSans-62" x="510.15625"/>
      <use xlink:href="#DejaVuSans-6c" x="573.632812"/>
      <use xlink:href="#DejaVuSans-65" x="601.416016"/>
     </g>
    </g>
    <g id="line2d_64">
     <path d="M 311.424688 98.604813 
L 321.424688 98.604813 
L 331.424688 98.604813 
" style="fill: none; stroke: #81c784; stroke-width: 1.5; stroke-linecap: square"/>
    </g>
    <g id="text_20">
     <!-- s1 -->
     <g transform="translate(339.424688 102.104813)scale(0.1 -0.1)">
      <use xlink:href="#DejaVuSans-73"/>
      <use xlink:href="#DejaVuSans-31" x="52.099609"/>
     </g>
    </g>
    <g id="line2d_65">
     <path d="M 311.424688 113.282938 
L 321.424688 113.282938 
L 331.424688 113.282938 
" style="fill: none; stroke: #099e7d; stroke-width: 1.5; stroke-linecap: square"/>
    </g>
    <g id="text_21">
     <!-- s1 -->
     <g transform="translate(339.424688 116.782938)scale(0.1 -0.1)">
      <use xlink:href="#DejaVuSans-73"/>
      <use xlink:href="#DejaVuSans-31" x="52.099609"/>
     </g>
    </g>
   </g>
  </g>
 </g>
 <defs>
  <clipPath id="pd401df6def">
   <rect x="57.6" y="41.472" width="357.12" height="266.112"/>
  </clipPath>
 </defs>
</svg>
